<ttFont>
    <TTGlyph name="A" xMin="0" yMin="0" xMax="1964" yMax="1763">
      <contour>
        <pt x="0" y="84" on="1"/>
        <pt x="0" y="121" on="0"/>
        <pt x="34" y="176" on="0"/>
        <pt x="72" y="176" on="1"/>
        <pt x="211" y="176" on="1"/>
        <pt x="873" y="1671" on="1"/>
        <pt x="888" y="1706" on="0"/>
        <pt x="948" y="1763" on="0"/>
        <pt x="996" y="1763" on="1"/>
        <pt x="1046" y="1763" on="0"/>
        <pt x="1099" y="1704" on="0"/>
        <pt x="1114" y="1667" on="1"/>
        <pt x="1715" y="176" on="1"/>
        <pt x="1893" y="176" on="1"/>
        <pt x="1931" y="176" on="0"/>
        <pt x="1964" y="121" on="0"/>
        <pt x="1964" y="84" on="1"/>
        <pt x="1964" y="51" on="0"/>
        <pt x="1926" y="0" on="0"/>
        <pt x="1891" y="0" on="1"/>
        <pt x="1246" y="0" on="1"/>
        <pt x="1211" y="0" on="0"/>
        <pt x="1172" y="51" on="0"/>
        <pt x="1172" y="84" on="1"/>
        <pt x="1172" y="121" on="0"/>
        <pt x="1206" y="176" on="0"/>
        <pt x="1244" y="176" on="1"/>
        <pt x="1463" y="176" on="1"/>
        <pt x="1315" y="567" on="1"/>
        <pt x="590" y="567" on="1"/>
        <pt x="433" y="176" on="1"/>
        <pt x="619" y="176" on="1"/>
        <pt x="657" y="176" on="0"/>
        <pt x="691" y="121" on="0"/>
        <pt x="691" y="84" on="1"/>
        <pt x="691" y="51" on="0"/>
        <pt x="652" y="0" on="0"/>
        <pt x="617" y="0" on="1"/>
        <pt x="74" y="0" on="1"/>
        <pt x="39" y="0" on="0"/>
        <pt x="0" y="51" on="0"/>
        <pt x="0" y="84" on="1"/>
      </contour>
      <contour>
        <pt x="652" y="721" on="1"/>
        <pt x="1258" y="721" on="1"/>
        <pt x="965" y="1499" on="1"/>
      </contour>
    </TTGlyph>
    <TTGlyph name="AE" xMin="-77" yMin="0" xMax="2694" yMax="1714">
      <contour>
        <pt x="-77" y="74" on="1"/>
        <pt x="-77" y="109" on="0"/>
        <pt x="-33" y="176" on="0"/>
        <pt x="3" y="176" on="1"/>
        <pt x="140" y="176" on="1"/>
        <pt x="1115" y="1649" on="1"/>
        <pt x="1149" y="1697" on="0"/>
        <pt x="1248" y="1714" on="0"/>
        <pt x="1326" y="1714" on="1"/>
        <pt x="1336" y="1714" on="1"/>
        <pt x="2368" y="1714" on="1"/>
        <pt x="2455" y="1714" on="0"/>
        <pt x="2551" y="1344" on="0"/>
        <pt x="2551" y="1276" on="1"/>
        <pt x="2551" y="1245" on="0"/>
        <pt x="2518" y="1206" on="0"/>
        <pt x="2485" y="1206" on="1"/>
        <pt x="2441" y="1206" on="0"/>
        <pt x="2381" y="1246" on="0"/>
        <pt x="2371" y="1282" on="1"/>
        <pt x="2303" y="1538" on="1"/>
        <pt x="1394" y="1538" on="1"/>
        <pt x="1498" y="967" on="1"/>
        <pt x="1818" y="967" on="1"/>
        <pt x="1836" y="1153" on="1"/>
        <pt x="1840" y="1182" on="0"/>
        <pt x="1874" y="1221" on="0"/>
        <pt x="1904" y="1221" on="1"/>
        <pt x="1940" y="1221" on="0"/>
        <pt x="1983" y="1174" on="0"/>
        <pt x="1990" y="1141" on="1"/>
        <pt x="2016" y="899" on="1"/>
        <pt x="2076" y="649" on="1"/>
        <pt x="2076" y="635" on="1"/>
        <pt x="2076" y="602" on="0"/>
        <pt x="2046" y="569" on="0"/>
        <pt x="2016" y="569" on="1"/>
        <pt x="1983" y="569" on="0"/>
        <pt x="1941" y="611" on="0"/>
        <pt x="1928" y="637" on="1"/>
        <pt x="1844" y="823" on="1"/>
        <pt x="1525" y="823" on="1"/>
        <pt x="1643" y="176" on="1"/>
        <pt x="2452" y="176" on="1"/>
        <pt x="2516" y="506" on="1"/>
        <pt x="2524" y="539" on="0"/>
        <pt x="2566" y="582" on="0"/>
        <pt x="2602" y="582" on="1"/>
        <pt x="2637" y="582" on="0"/>
        <pt x="2685" y="540" on="0"/>
        <pt x="2690" y="508" on="1"/>
        <pt x="2690" y="488" on="1"/>
        <pt x="2690" y="484" on="0"/>
        <pt x="2692" y="474" on="0"/>
        <pt x="2694" y="469" on="1"/>
        <pt x="2694" y="78" on="1"/>
        <pt x="2691" y="40" on="0"/>
        <pt x="2661" y="0" on="0"/>
        <pt x="2627" y="0" on="1"/>
        <pt x="1156" y="0" on="1"/>
        <pt x="1122" y="0" on="0"/>
        <pt x="1091" y="46" on="0"/>
        <pt x="1091" y="78" on="1"/>
        <pt x="1091" y="115" on="0"/>
        <pt x="1133" y="176" on="0"/>
        <pt x="1172" y="176" on="1"/>
        <pt x="1398" y="176" on="1"/>
        <pt x="1334" y="567" on="1"/>
        <pt x="605" y="567" on="1"/>
        <pt x="361" y="176" on="1"/>
        <pt x="548" y="176" on="1"/>
        <pt x="585" y="176" on="0"/>
        <pt x="630" y="130" on="0"/>
        <pt x="630" y="96" on="1"/>
        <pt x="630" y="55" on="0"/>
        <pt x="572" y="0" on="0"/>
        <pt x="527" y="0" on="1"/>
        <pt x="-13" y="0" on="1"/>
        <pt x="-44" y="0" on="0"/>
        <pt x="-77" y="44" on="0"/>
        <pt x="-77" y="74" on="1"/>
      </contour>
      <contour>
        <pt x="699" y="721" on="1"/>
        <pt x="1310" y="721" on="1"/>
        <pt x="1185" y="1499" on="1"/>
      </contour>
    </TTGlyph>
    <TTGlyph name="Aacute" xMin="0" yMin="0" xMax="1964" yMax="2308">
      <component glyphName="glyph00367" x="0" y="0" flags="0x0"/>
      <component glyphName="A" x="0" y="0" flags="0x1204"/>
      <component glyphName="acute" x="691" y="438" flags="0x1004"/>
    </TTGlyph>
    <TTGlyph name="Abreve" xMin="0" yMin="0" xMax="1964" yMax="2229">
      <component glyphName="glyph00367" x="0" y="0" flags="0x0"/>
      <component glyphName="A" x="0" y="0" flags="0x1204"/>
      <component glyphName="breve" x="700" y="329" flags="0x1004"/>
    </TTGlyph>
    <TTGlyph name="Acircumflex" xMin="0" yMin="0" xMax="1964" yMax="2364">
      <component glyphName="glyph00367" x="0" y="0" flags="0x0"/>
      <component glyphName="A" x="0" y="0" flags="0x1204"/>
      <component glyphName="circumflex" x="700" y="432" flags="0x1004"/>
    </TTGlyph>
    <TTGlyph name="Adieresis" xMin="0" yMin="0" xMax="1964" yMax="2131">
      <component glyphName="glyph00367" x="0" y="0" flags="0x0"/>
      <component glyphName="A" x="0" y="0" flags="0x1204"/>
      <component glyphName="dieresis" x="552" y="433" flags="0x1004"/>
    </TTGlyph>
    <TTGlyph name="Agrave" xMin="0" yMin="0" xMax="1964" yMax="2308">
      <component glyphName="glyph00367" x="0" y="0" flags="0x0"/>
      <component glyphName="A" x="0" y="0" flags="0x1204"/>
      <component glyphName="grave" x="691" y="438" flags="0x1004"/>
    </TTGlyph>
    <TTGlyph name="Amacron" xMin="0" yMin="0" xMax="1964" yMax="2021">
      <component glyphName="glyph00367" x="0" y="0" flags="0x0"/>
      <component glyphName="A" x="0" y="0" flags="0x1204"/>
      <component glyphName="macron" x="483" y="899" flags="0x1004"/>
    </TTGlyph>
    <TTGlyph name="Aogonek" xMin="0" yMin="-528" xMax="1964" yMax="1763">
      <component glyphName="glyph00367" x="0" y="0" flags="0x0"/>
      <component glyphName="A" x="0" y="0" flags="0x1204"/>
      <component glyphName="ogonek" x="1411" y="-12" flags="0x1004"/>
    </TTGlyph>
    <TTGlyph name="Aring" xMin="0" yMin="0" xMax="1964" yMax="2213">
      <component glyphName="glyph00367" x="0" y="0" flags="0x0"/>
      <component glyphName="A" x="0" y="0" flags="0x1204"/>
      <component glyphName="ring" x="831" y="925" flags="0x1004"/>
    </TTGlyph>
    <TTGlyph name="Atilde" xMin="0" yMin="0" xMax="1964" yMax="2183">
      <component glyphName="glyph00367" x="0" y="0" flags="0x0"/>
      <component glyphName="A" x="0" y="0" flags="0x1204"/>
      <component glyphName="tilde" x="489" y="853" flags="0x1004"/>
    </TTGlyph>
    <TTGlyph name="B" xMin="36" yMin="0" xMax="1751" yMax="1714">
      <contour>
        <pt x="1751" y="510" on="1"/>
        <pt x="1751" y="238" on="0"/>
        <pt x="1290" y="0" on="0"/>
        <pt x="1017" y="0" on="1"/>
        <pt x="110" y="0" on="1"/>
        <pt x="75" y="0" on="0"/>
        <pt x="36" y="51" on="0"/>
        <pt x="36" y="84" on="1"/>
        <pt x="36" y="121" on="0"/>
        <pt x="70" y="176" on="0"/>
        <pt x="108" y="176" on="1"/>
        <pt x="372" y="176" on="1"/>
        <pt x="372" y="1538" on="1"/>
        <pt x="159" y="1538" on="1"/>
        <pt x="124" y="1538" on="0"/>
        <pt x="86" y="1589" on="0"/>
        <pt x="86" y="1622" on="1"/>
        <pt x="86" y="1659" on="0"/>
        <pt x="119" y="1714" on="0"/>
        <pt x="157" y="1714" on="1"/>
        <pt x="974" y="1714" on="1"/>
        <pt x="1220" y="1714" on="0"/>
        <pt x="1582" y="1530" on="0"/>
        <pt x="1582" y="1279" on="1"/>
        <pt x="1582" y="1154" on="0"/>
        <pt x="1439" y="993" on="0"/>
        <pt x="1341" y="967" on="1"/>
        <pt x="1507" y="944" on="0"/>
        <pt x="1751" y="729" on="0"/>
        <pt x="1751" y="510" on="1"/>
      </contour>
      <contour>
        <pt x="1501" y="532" on="1"/>
        <pt x="1501" y="758" on="0"/>
        <pt x="1228" y="866" on="0"/>
        <pt x="1056" y="866" on="1"/>
        <pt x="606" y="866" on="1"/>
        <pt x="606" y="176" on="1"/>
        <pt x="1020" y="176" on="1"/>
        <pt x="1230" y="176" on="0"/>
        <pt x="1501" y="331" on="0"/>
        <pt x="1501" y="532" on="1"/>
      </contour>
      <contour>
        <pt x="1381" y="1267" on="1"/>
        <pt x="1381" y="1420" on="0"/>
        <pt x="1166" y="1538" on="0"/>
        <pt x="993" y="1538" on="1"/>
        <pt x="606" y="1538" on="1"/>
        <pt x="606" y="995" on="1"/>
        <pt x="1056" y="995" on="1"/>
        <pt x="1177" y="995" on="0"/>
        <pt x="1381" y="1123" on="0"/>
        <pt x="1381" y="1267" on="1"/>
      </contour>
    </TTGlyph>
    <TTGlyph name="C" xMin="77" yMin="-25" xMax="1694" yMax="1739">
      <contour>
        <pt x="1694" y="571" on="1"/>
        <pt x="1694" y="331" on="0"/>
        <pt x="1292" y="-25" on="0"/>
        <pt x="957" y="-25" on="1"/>
        <pt x="580" y="-25" on="0"/>
        <pt x="77" y="472" on="0"/>
        <pt x="77" y="889" on="1"/>
        <pt x="77" y="1270" on="0"/>
        <pt x="590" y="1739" on="0"/>
        <pt x="976" y="1739" on="1"/>
        <pt x="1139" y="1739" on="0"/>
        <pt x="1373" y="1630" on="0"/>
        <pt x="1463" y="1538" on="1"/>
        <pt x="1463" y="1642" on="1"/>
        <pt x="1463" y="1680" on="0"/>
        <pt x="1518" y="1714" on="0"/>
        <pt x="1555" y="1714" on="1"/>
        <pt x="1588" y="1714" on="0"/>
        <pt x="1639" y="1675" on="0"/>
        <pt x="1639" y="1640" on="1"/>
        <pt x="1639" y="1266" on="1"/>
        <pt x="1639" y="1231" on="0"/>
        <pt x="1588" y="1192" on="0"/>
        <pt x="1555" y="1192" on="1"/>
        <pt x="1521" y="1192" on="0"/>
        <pt x="1489" y="1245" on="0"/>
        <pt x="1471" y="1270" on="1"/>
        <pt x="1398" y="1390" on="0"/>
        <pt x="1163" y="1550" on="0"/>
        <pt x="976" y="1550" on="1"/>
        <pt x="680" y="1550" on="0"/>
        <pt x="340" y="1169" on="0"/>
        <pt x="340" y="878" on="1"/>
        <pt x="340" y="550" on="0"/>
        <pt x="672" y="171" on="0"/>
        <pt x="976" y="171" on="1"/>
        <pt x="1187" y="171" on="0"/>
        <pt x="1449" y="400" on="0"/>
        <pt x="1486" y="590" on="1"/>
        <pt x="1493" y="626" on="0"/>
        <pt x="1554" y="661" on="0"/>
        <pt x="1588" y="661" on="1"/>
        <pt x="1627" y="661" on="0"/>
        <pt x="1694" y="615" on="0"/>
        <pt x="1694" y="571" on="1"/>
      </contour>
    </TTGlyph>
    <TTGlyph name="Cacute" xMin="77" yMin="-25" xMax="1694" yMax="2284">
      <component glyphName="glyph00367" x="77" y="0" flags="0x0"/>
      <component glyphName="C" x="0" y="0" flags="0x1204"/>
      <component glyphName="acute" x="671" y="414" flags="0x1004"/>
    </TTGlyph>
    <TTGlyph name="Ccaron" xMin="77" yMin="-25" xMax="1694" yMax="2340">
      <component glyphName="glyph00367" x="77" y="0" flags="0x0"/>
      <component glyphName="C" x="0" y="0" flags="0x1204"/>
      <component glyphName="caron" x="680" y="408" flags="0x1004"/>
    </TTGlyph>
    <TTGlyph name="Ccedilla" xMin="77" yMin="-677" xMax="1694" yMax="1739">
      <component glyphName="glyph00367" x="77" y="0" flags="0x0"/>
      <component glyphName="C" x="0" y="0" flags="0x1204"/>
      <component glyphName="cedilla" x="757" y="-2" flags="0x1004"/>
    </TTGlyph>
    <TTGlyph name="Ccircumflex" xMin="77" yMin="-25" xMax="1694" yMax="2340">
      <component glyphName="glyph00367" x="77" y="0" flags="0x0"/>
      <component glyphName="C" x="0" y="0" flags="0x1204"/>
      <component glyphName="circumflex" x="680" y="408" flags="0x1004"/>
    </TTGlyph>
    <TTGlyph name="Cdotaccent" xMin="77" yMin="-25" xMax="1694" yMax="2142">
      <component glyphName="glyph00367" x="77" y="0" flags="0x0"/>
      <component glyphName="C" x="0" y="0" flags="0x1204"/>
      <component glyphName="dotaccent" x="812" y="1791" flags="0x1004"/>
    </TTGlyph>
    <TTGlyph name="D" xMin="36" yMin="0" xMax="1847" yMax="1714">
      <contour>
        <pt x="1605" y="866" on="1"/>
        <pt x="1605" y="1188" on="0"/>
        <pt x="1220" y="1538" on="0"/>
        <pt x="896" y="1538" on="1"/>
        <pt x="610" y="1538" on="1"/>
        <pt x="610" y="176" on="1"/>
        <pt x="645" y="174" on="0"/>
        <pt x="713" y="172" on="0"/>
        <pt x="747" y="172" on="1"/>
        <pt x="1126" y="172" on="0"/>
        <pt x="1605" y="478" on="0"/>
        <pt x="1605" y="866" on="1"/>
      </contour>
      <contour>
        <pt x="1847" y="866" on="1"/>
        <pt x="1847" y="444" on="0"/>
        <pt x="1291" y="0" on="0"/>
        <pt x="868" y="0" on="1"/>
        <pt x="110" y="0" on="1"/>
        <pt x="75" y="0" on="0"/>
        <pt x="36" y="51" on="0"/>
        <pt x="36" y="84" on="1"/>
        <pt x="36" y="121" on="0"/>
        <pt x="70" y="176" on="0"/>
        <pt x="108" y="176" on="1"/>
        <pt x="376" y="176" on="1"/>
        <pt x="376" y="1538" on="1"/>
        <pt x="173" y="1538" on="1"/>
        <pt x="135" y="1538" on="0"/>
        <pt x="102" y="1593" on="0"/>
        <pt x="102" y="1630" on="1"/>
        <pt x="102" y="1663" on="0"/>
        <pt x="141" y="1714" on="0"/>
        <pt x="176" y="1714" on="1"/>
        <pt x="868" y="1714" on="1"/>
        <pt x="1300" y="1714" on="0"/>
        <pt x="1847" y="1293" on="0"/>
        <pt x="1847" y="866" on="1"/>
      </contour>
    </TTGlyph>
    <TTGlyph name="Dcaron" xMin="36" yMin="0" xMax="1847" yMax="2340">
      <component glyphName="glyph00367" x="36" y="0" flags="0x0"/>
      <component glyphName="D" x="0" y="0" flags="0x1204"/>
      <component glyphName="caron" x="645" y="408" flags="0x1004"/>
    </TTGlyph>
    <TTGlyph name="Dcroat" xMin="61" yMin="0" xMax="1872" yMax="1714">
      <contour>
        <pt x="1872" y="866" on="1"/>
        <pt x="1872" y="444" on="0"/>
        <pt x="1316" y="0" on="0"/>
        <pt x="893" y="0" on="1"/>
        <pt x="135" y="0" on="1"/>
        <pt x="100" y="0" on="0"/>
        <pt x="61" y="51" on="0"/>
        <pt x="61" y="84" on="1"/>
        <pt x="61" y="121" on="0"/>
        <pt x="95" y="176" on="0"/>
        <pt x="133" y="176" on="1"/>
        <pt x="401" y="176" on="1"/>
        <pt x="401" y="809" on="1"/>
        <pt x="252" y="809" on="1"/>
        <pt x="211" y="809" on="0"/>
        <pt x="170" y="859" on="0"/>
        <pt x="170" y="888" on="1"/>
        <pt x="170" y="917" on="0"/>
        <pt x="209" y="965" on="0"/>
        <pt x="246" y="965" on="1"/>
        <pt x="401" y="965" on="1"/>
        <pt x="401" y="1538" on="1"/>
        <pt x="198" y="1538" on="1"/>
        <pt x="160" y="1538" on="0"/>
        <pt x="127" y="1593" on="0"/>
        <pt x="127" y="1630" on="1"/>
        <pt x="127" y="1663" on="0"/>
        <pt x="166" y="1714" on="0"/>
        <pt x="201" y="1714" on="1"/>
        <pt x="893" y="1714" on="1"/>
        <pt x="1325" y="1714" on="0"/>
        <pt x="1872" y="1293" on="0"/>
        <pt x="1872" y="866" on="1"/>
      </contour>
      <contour>
        <pt x="1630" y="866" on="1"/>
        <pt x="1630" y="1188" on="0"/>
        <pt x="1245" y="1538" on="0"/>
        <pt x="921" y="1538" on="1"/>
        <pt x="635" y="1538" on="1"/>
        <pt x="635" y="965" on="1"/>
        <pt x="888" y="965" on="1"/>
        <pt x="924" y="965" on="0"/>
        <pt x="960" y="917" on="0"/>
        <pt x="960" y="888" on="1"/>
        <pt x="960" y="859" on="0"/>
        <pt x="923" y="809" on="0"/>
        <pt x="886" y="809" on="1"/>
        <pt x="635" y="809" on="1"/>
        <pt x="635" y="176" on="1"/>
        <pt x="670" y="174" on="0"/>
        <pt x="738" y="172" on="0"/>
        <pt x="772" y="172" on="1"/>
        <pt x="1151" y="172" on="0"/>
        <pt x="1630" y="478" on="0"/>
        <pt x="1630" y="866" on="1"/>
      </contour>
    </TTGlyph>
    <TTGlyph name="E" xMin="36" yMin="0" xMax="1801" yMax="1714">
      <contour>
        <pt x="1161" y="649" on="1"/>
        <pt x="1161" y="614" on="0"/>
        <pt x="1125" y="569" on="0"/>
        <pt x="1091" y="569" on="1"/>
        <pt x="1060" y="569" on="0"/>
        <pt x="1019" y="609" on="0"/>
        <pt x="1011" y="637" on="1"/>
        <pt x="960" y="823" on="1"/>
        <pt x="626" y="823" on="1"/>
        <pt x="626" y="176" on="1"/>
        <pt x="1509" y="176" on="1"/>
        <pt x="1625" y="506" on="1"/>
        <pt x="1639" y="537" on="0"/>
        <pt x="1689" y="582" on="0"/>
        <pt x="1728" y="582" on="1"/>
        <pt x="1761" y="582" on="0"/>
        <pt x="1801" y="542" on="0"/>
        <pt x="1801" y="508" on="1"/>
        <pt x="1801" y="498" on="0"/>
        <pt x="1798" y="478" on="0"/>
        <pt x="1795" y="469" on="1"/>
        <pt x="1732" y="78" on="1"/>
        <pt x="1722" y="42" on="0"/>
        <pt x="1686" y="0" on="0"/>
        <pt x="1650" y="0" on="1"/>
        <pt x="110" y="0" on="1"/>
        <pt x="75" y="0" on="0"/>
        <pt x="36" y="51" on="0"/>
        <pt x="36" y="84" on="1"/>
        <pt x="36" y="121" on="0"/>
        <pt x="70" y="176" on="0"/>
        <pt x="108" y="176" on="1"/>
        <pt x="393" y="176" on="1"/>
        <pt x="393" y="1538" on="1"/>
        <pt x="210" y="1538" on="1"/>
        <pt x="172" y="1538" on="0"/>
        <pt x="139" y="1593" on="0"/>
        <pt x="139" y="1630" on="1"/>
        <pt x="139" y="1663" on="0"/>
        <pt x="177" y="1714" on="0"/>
        <pt x="212" y="1714" on="1"/>
        <pt x="1609" y="1714" on="1"/>
        <pt x="1645" y="1714" on="0"/>
        <pt x="1679" y="1671" on="0"/>
        <pt x="1691" y="1636" on="1"/>
        <pt x="1787" y="1319" on="1"/>
        <pt x="1790" y="1308" on="0"/>
        <pt x="1793" y="1288" on="0"/>
        <pt x="1793" y="1280" on="1"/>
        <pt x="1793" y="1247" on="0"/>
        <pt x="1752" y="1206" on="0"/>
        <pt x="1720" y="1206" on="1"/>
        <pt x="1683" y="1206" on="0"/>
        <pt x="1630" y="1251" on="0"/>
        <pt x="1617" y="1282" on="1"/>
        <pt x="1509" y="1538" on="1"/>
        <pt x="626" y="1538" on="1"/>
        <pt x="626" y="967" on="1"/>
        <pt x="960" y="967" on="1"/>
        <pt x="1011" y="1153" on="1"/>
        <pt x="1019" y="1181" on="0"/>
        <pt x="1060" y="1221" on="0"/>
        <pt x="1091" y="1221" on="1"/>
        <pt x="1125" y="1221" on="0"/>
        <pt x="1161" y="1176" on="0"/>
        <pt x="1161" y="1141" on="1"/>
        <pt x="1146" y="899" on="1"/>
      </contour>
    </TTGlyph>
    <TTGlyph name="Eacute" xMin="36" yMin="0" xMax="1801" yMax="2284">
      <component glyphName="glyph00367" x="36" y="0" flags="0x0"/>
      <component glyphName="E" x="0" y="0" flags="0x1204"/>
      <component glyphName="acute" x="605" y="414" flags="0x1004"/>
    </TTGlyph>
    <TTGlyph name="Ecaron" xMin="36" yMin="0" xMax="1801" yMax="2340">
      <component glyphName="glyph00367" x="36" y="0" flags="0x0"/>
      <component glyphName="E" x="0" y="0" flags="0x1204"/>
      <component glyphName="caron" x="614" y="408" flags="0x1004"/>
    </TTGlyph>
    <TTGlyph name="Ecircumflex" xMin="36" yMin="0" xMax="1801" yMax="2340">
      <component glyphName="glyph00367" x="36" y="0" flags="0x0"/>
      <component glyphName="E" x="0" y="0" flags="0x1204"/>
      <component glyphName="circumflex" x="614" y="408" flags="0x1004"/>
    </TTGlyph>
    <TTGlyph name="Edieresis" xMin="36" yMin="0" xMax="1801" yMax="2107">
      <component glyphName="glyph00367" x="36" y="0" flags="0x0"/>
      <component glyphName="E" x="0" y="0" flags="0x1204"/>
      <component glyphName="dieresis" x="466" y="409" flags="0x1004"/>
    </TTGlyph>
    <TTGlyph name="Edotaccent" xMin="36" yMin="0" xMax="1801" yMax="2142">
      <component glyphName="glyph00367" x="36" y="0" flags="0x0"/>
      <component glyphName="E" x="0" y="0" flags="0x1204"/>
      <component glyphName="dotaccent" x="760" y="1791" flags="0x1004"/>
    </TTGlyph>
    <TTGlyph name="Egrave" xMin="36" yMin="0" xMax="1801" yMax="2284">
      <component glyphName="glyph00367" x="36" y="0" flags="0x0"/>
      <component glyphName="E" x="0" y="0" flags="0x1204"/>
      <component glyphName="grave" x="605" y="414" flags="0x1004"/>
    </TTGlyph>
    <TTGlyph name="Emacron" xMin="36" yMin="0" xMax="1801" yMax="1997">
      <component glyphName="glyph00367" x="36" y="0" flags="0x0"/>
      <component glyphName="E" x="0" y="0" flags="0x1204"/>
      <component glyphName="macron" x="397" y="875" flags="0x1004"/>
    </TTGlyph>
    <TTGlyph name="Eng" xMin="68" yMin="-587" xMax="2020" yMax="1714">
      <contour>
        <pt x="68" y="1630" on="1"/>
        <pt x="68" y="1663" on="0"/>
        <pt x="107" y="1714" on="0"/>
        <pt x="142" y="1714" on="1"/>
        <pt x="605" y="1714" on="1"/>
        <pt x="629" y="1714" on="0"/>
        <pt x="655" y="1698" on="0"/>
        <pt x="664" y="1679" on="1"/>
        <pt x="1543" y="426" on="1"/>
        <pt x="1543" y="1538" on="1"/>
        <pt x="1363" y="1538" on="1"/>
        <pt x="1325" y="1538" on="0"/>
        <pt x="1291" y="1593" on="0"/>
        <pt x="1291" y="1630" on="1"/>
        <pt x="1291" y="1663" on="0"/>
        <pt x="1330" y="1714" on="0"/>
        <pt x="1365" y="1714" on="1"/>
        <pt x="1947" y="1714" on="1"/>
        <pt x="1982" y="1714" on="0"/>
        <pt x="2020" y="1663" on="0"/>
        <pt x="2020" y="1630" on="1"/>
        <pt x="2020" y="1593" on="0"/>
        <pt x="1987" y="1538" on="0"/>
        <pt x="1949" y="1538" on="1"/>
        <pt x="1750" y="1538" on="1"/>
        <pt x="1750" y="-52" on="1"/>
        <pt x="1750" y="-330" on="0"/>
        <pt x="1491" y="-587" on="0"/>
        <pt x="1302" y="-587" on="1"/>
        <pt x="1167" y="-587" on="0"/>
        <pt x="967" y="-457" on="0"/>
        <pt x="967" y="-364" on="1"/>
        <pt x="967" y="-245" on="1"/>
        <pt x="967" y="-194" on="0"/>
        <pt x="1016" y="-141" on="0"/>
        <pt x="1071" y="-141" on="1"/>
        <pt x="1114" y="-141" on="0"/>
        <pt x="1179" y="-184" on="0"/>
        <pt x="1179" y="-225" on="1"/>
        <pt x="1179" y="-338" on="1"/>
        <pt x="1180" y="-370" on="0"/>
        <pt x="1261" y="-419" on="0"/>
        <pt x="1315" y="-419" on="1"/>
        <pt x="1392" y="-419" on="0"/>
        <pt x="1543" y="-270" on="0"/>
        <pt x="1543" y="-75" on="1"/>
        <pt x="1543" y="51" on="1"/>
        <pt x="550" y="1456" on="1"/>
        <pt x="550" y="176" on="1"/>
        <pt x="726" y="176" on="1"/>
        <pt x="764" y="176" on="0"/>
        <pt x="798" y="121" on="0"/>
        <pt x="798" y="84" on="1"/>
        <pt x="798" y="51" on="0"/>
        <pt x="759" y="0" on="0"/>
        <pt x="724" y="0" on="1"/>
        <pt x="142" y="0" on="1"/>
        <pt x="107" y="0" on="0"/>
        <pt x="68" y="51" on="0"/>
        <pt x="68" y="84" on="1"/>
        <pt x="68" y="121" on="0"/>
        <pt x="102" y="176" on="0"/>
        <pt x="140" y="176" on="1"/>
        <pt x="339" y="176" on="1"/>
        <pt x="339" y="1538" on="1"/>
        <pt x="140" y="1538" on="1"/>
        <pt x="102" y="1538" on="0"/>
        <pt x="68" y="1593" on="0"/>
        <pt x="68" y="1630" on="1"/>
      </contour>
    </TTGlyph>
    <TTGlyph name="Eogonek" xMin="36" yMin="-527" xMax="1801" yMax="1714">
      <component glyphName="glyph00367" x="36" y="0" flags="0x0"/>
      <component glyphName="E" x="0" y="0" flags="0x1204"/>
      <component glyphName="ogonek" x="889" y="-11" flags="0x1004"/>
    </TTGlyph>
    <TTGlyph name="Eth" xMin="61" yMin="0" xMax="1872" yMax="1714">
      <contour>
        <pt x="1872" y="866" on="1"/>
        <pt x="1872" y="444" on="0"/>
        <pt x="1316" y="0" on="0"/>
        <pt x="893" y="0" on="1"/>
        <pt x="135" y="0" on="1"/>
        <pt x="100" y="0" on="0"/>
        <pt x="61" y="51" on="0"/>
        <pt x="61" y="84" on="1"/>
        <pt x="61" y="121" on="0"/>
        <pt x="95" y="176" on="0"/>
        <pt x="133" y="176" on="1"/>
        <pt x="401" y="176" on="1"/>
        <pt x="401" y="809" on="1"/>
        <pt x="252" y="809" on="1"/>
        <pt x="211" y="809" on="0"/>
        <pt x="170" y="859" on="0"/>
        <pt x="170" y="888" on="1"/>
        <pt x="170" y="917" on="0"/>
        <pt x="209" y="965" on="0"/>
        <pt x="246" y="965" on="1"/>
        <pt x="401" y="965" on="1"/>
        <pt x="401" y="1538" on="1"/>
        <pt x="198" y="1538" on="1"/>
        <pt x="160" y="1538" on="0"/>
        <pt x="127" y="1593" on="0"/>
        <pt x="127" y="1630" on="1"/>
        <pt x="127" y="1663" on="0"/>
        <pt x="166" y="1714" on="0"/>
        <pt x="201" y="1714" on="1"/>
        <pt x="893" y="1714" on="1"/>
        <pt x="1325" y="1714" on="0"/>
        <pt x="1872" y="1293" on="0"/>
        <pt x="1872" y="866" on="1"/>
      </contour>
      <contour>
        <pt x="1630" y="866" on="1"/>
        <pt x="1630" y="1188" on="0"/>
        <pt x="1245" y="1538" on="0"/>
        <pt x="921" y="1538" on="1"/>
        <pt x="635" y="1538" on="1"/>
        <pt x="635" y="965" on="1"/>
        <pt x="888" y="965" on="1"/>
        <pt x="924" y="965" on="0"/>
        <pt x="960" y="917" on="0"/>
        <pt x="960" y="888" on="1"/>
        <pt x="960" y="859" on="0"/>
        <pt x="923" y="809" on="0"/>
        <pt x="886" y="809" on="1"/>
        <pt x="635" y="809" on="1"/>
        <pt x="635" y="176" on="1"/>
        <pt x="670" y="174" on="0"/>
        <pt x="738" y="172" on="0"/>
        <pt x="772" y="172" on="1"/>
        <pt x="1151" y="172" on="0"/>
        <pt x="1630" y="478" on="0"/>
        <pt x="1630" y="866" on="1"/>
      </contour>
    </TTGlyph>
    <TTGlyph name="Euro" xMin="144" yMin="-25" xMax="1952" yMax="1739">
      <contour>
        <pt x="1952" y="539" on="1"/>
        <pt x="1952" y="546" on="1"/>
        <pt x="1952" y="587" on="0"/>
        <pt x="1894" y="630" on="0"/>
        <pt x="1859" y="630" on="1"/>
        <pt x="1828" y="630" on="0"/>
        <pt x="1772" y="595" on="0"/>
        <pt x="1764" y="560" on="1"/>
        <pt x="1720" y="385" on="0"/>
        <pt x="1465" y="171" on="0"/>
        <pt x="1254" y="171" on="1"/>
        <pt x="1021" y="171" on="0"/>
        <pt x="702" y="398" on="0"/>
        <pt x="639" y="600" on="1"/>
        <pt x="997" y="600" on="1"/>
        <pt x="1040" y="600" on="0"/>
        <pt x="1084" y="646" on="0"/>
        <pt x="1084" y="674" on="1"/>
        <pt x="1084" y="702" on="0"/>
        <pt x="1040" y="748" on="0"/>
        <pt x="997" y="748" on="1"/>
        <pt x="608" y="748" on="1"/>
        <pt x="604" y="779" on="0"/>
        <pt x="600" y="844" on="0"/>
        <pt x="600" y="878" on="1"/>
        <pt x="600" y="896" on="0"/>
        <pt x="602" y="932" on="0"/>
        <pt x="603" y="950" on="1"/>
        <pt x="997" y="950" on="1"/>
        <pt x="1040" y="950" on="0"/>
        <pt x="1084" y="997" on="0"/>
        <pt x="1084" y="1025" on="1"/>
        <pt x="1084" y="1053" on="0"/>
        <pt x="1040" y="1100" on="0"/>
        <pt x="997" y="1100" on="1"/>
        <pt x="631" y="1100" on="1"/>
        <pt x="690" y="1302" on="0"/>
        <pt x="1018" y="1550" on="0"/>
        <pt x="1254" y="1550" on="1"/>
        <pt x="1441" y="1550" on="0"/>
        <pt x="1676" y="1390" on="0"/>
        <pt x="1749" y="1270" on="1"/>
        <pt x="1767" y="1245" on="0"/>
        <pt x="1799" y="1192" on="0"/>
        <pt x="1833" y="1192" on="1"/>
        <pt x="1866" y="1192" on="0"/>
        <pt x="1917" y="1231" on="0"/>
        <pt x="1917" y="1266" on="1"/>
        <pt x="1917" y="1640" on="1"/>
        <pt x="1917" y="1675" on="0"/>
        <pt x="1866" y="1714" on="0"/>
        <pt x="1833" y="1714" on="1"/>
        <pt x="1796" y="1714" on="0"/>
        <pt x="1741" y="1680" on="0"/>
        <pt x="1741" y="1642" on="1"/>
        <pt x="1741" y="1538" on="1"/>
        <pt x="1651" y="1630" on="0"/>
        <pt x="1417" y="1739" on="0"/>
        <pt x="1254" y="1739" on="1"/>
        <pt x="929" y="1739" on="0"/>
        <pt x="486" y="1387" on="0"/>
        <pt x="420" y="1100" on="1"/>
        <pt x="233" y="1100" on="1"/>
        <pt x="189" y="1100" on="0"/>
        <pt x="144" y="1053" on="0"/>
        <pt x="144" y="1025" on="1"/>
        <pt x="144" y="997" on="0"/>
        <pt x="189" y="950" on="0"/>
        <pt x="233" y="950" on="1"/>
        <pt x="398" y="950" on="1"/>
        <pt x="397" y="930" on="0"/>
        <pt x="395" y="889" on="0"/>
        <pt x="395" y="869" on="1"/>
        <pt x="395" y="838" on="0"/>
        <pt x="398" y="777" on="0"/>
        <pt x="400" y="748" on="1"/>
        <pt x="233" y="748" on="1"/>
        <pt x="189" y="748" on="0"/>
        <pt x="144" y="702" on="0"/>
        <pt x="144" y="674" on="1"/>
        <pt x="144" y="646" on="0"/>
        <pt x="189" y="600" on="0"/>
        <pt x="233" y="600" on="1"/>
        <pt x="424" y="600" on="1"/>
        <pt x="493" y="304" on="0"/>
        <pt x="923" y="-25" on="0"/>
        <pt x="1235" y="-25" on="1"/>
        <pt x="1570" y="-25" on="0"/>
        <pt x="1937" y="329" on="0"/>
        <pt x="1952" y="539" on="1"/>
      </contour>
    </TTGlyph>
    <TTGlyph name="F" xMin="36" yMin="0" xMax="1806" yMax="1714">
      <contour>
        <pt x="970" y="0" on="1"/>
        <pt x="1005" y="0" on="0"/>
        <pt x="1044" y="51" on="0"/>
        <pt x="1044" y="84" on="1"/>
        <pt x="1044" y="121" on="0"/>
        <pt x="1010" y="176" on="0"/>
        <pt x="972" y="176" on="1"/>
        <pt x="667" y="176" on="1"/>
        <pt x="667" y="784" on="1"/>
        <pt x="1007" y="784" on="1"/>
        <pt x="1058" y="598" on="1"/>
        <pt x="1066" y="570" on="0"/>
        <pt x="1107" y="530" on="0"/>
        <pt x="1138" y="530" on="1"/>
        <pt x="1172" y="530" on="0"/>
        <pt x="1208" y="575" on="0"/>
        <pt x="1208" y="610" on="1"/>
        <pt x="1194" y="860" on="1"/>
        <pt x="1208" y="1102" on="1"/>
        <pt x="1208" y="1137" on="0"/>
        <pt x="1172" y="1182" on="0"/>
        <pt x="1138" y="1182" on="1"/>
        <pt x="1107" y="1182" on="0"/>
        <pt x="1066" y="1142" on="0"/>
        <pt x="1058" y="1114" on="1"/>
        <pt x="1007" y="928" on="1"/>
        <pt x="667" y="928" on="1"/>
        <pt x="667" y="1538" on="1"/>
        <pt x="1542" y="1538" on="1"/>
        <pt x="1630" y="1282" on="1"/>
        <pt x="1643" y="1251" on="0"/>
        <pt x="1695" y="1206" on="0"/>
        <pt x="1732" y="1206" on="1"/>
        <pt x="1764" y="1206" on="0"/>
        <pt x="1806" y="1247" on="0"/>
        <pt x="1806" y="1280" on="1"/>
        <pt x="1806" y="1288" on="0"/>
        <pt x="1803" y="1308" on="0"/>
        <pt x="1800" y="1319" on="1"/>
        <pt x="1724" y="1636" on="1"/>
        <pt x="1712" y="1671" on="0"/>
        <pt x="1678" y="1714" on="0"/>
        <pt x="1642" y="1714" on="1"/>
        <pt x="192" y="1714" on="1"/>
        <pt x="157" y="1714" on="0"/>
        <pt x="118" y="1663" on="0"/>
        <pt x="118" y="1630" on="1"/>
        <pt x="118" y="1593" on="0"/>
        <pt x="152" y="1538" on="0"/>
        <pt x="190" y="1538" on="1"/>
        <pt x="434" y="1538" on="1"/>
        <pt x="434" y="176" on="1"/>
        <pt x="108" y="176" on="1"/>
        <pt x="70" y="176" on="0"/>
        <pt x="36" y="121" on="0"/>
        <pt x="36" y="84" on="1"/>
        <pt x="36" y="51" on="0"/>
        <pt x="75" y="0" on="0"/>
        <pt x="110" y="0" on="1"/>
      </contour>
    </TTGlyph>
    <TTGlyph name="G" xMin="77" yMin="-25" xMax="1912" yMax="1739">
      <contour>
        <pt x="974" y="164" on="1"/>
        <pt x="1208" y="164" on="0"/>
        <pt x="1578" y="332" on="0"/>
        <pt x="1578" y="569" on="1"/>
        <pt x="1578" y="696" on="1"/>
        <pt x="1426" y="696" on="1"/>
        <pt x="1391" y="696" on="0"/>
        <pt x="1353" y="747" on="0"/>
        <pt x="1353" y="780" on="1"/>
        <pt x="1353" y="817" on="0"/>
        <pt x="1386" y="872" on="0"/>
        <pt x="1424" y="872" on="1"/>
        <pt x="1840" y="872" on="1"/>
        <pt x="1878" y="872" on="0"/>
        <pt x="1912" y="817" on="0"/>
        <pt x="1912" y="780" on="1"/>
        <pt x="1912" y="747" on="0"/>
        <pt x="1873" y="696" on="0"/>
        <pt x="1838" y="696" on="1"/>
        <pt x="1754" y="696" on="1"/>
        <pt x="1754" y="72" on="1"/>
        <pt x="1754" y="34" on="0"/>
        <pt x="1699" y="0" on="0"/>
        <pt x="1662" y="0" on="1"/>
        <pt x="1629" y="0" on="0"/>
        <pt x="1578" y="39" on="0"/>
        <pt x="1578" y="74" on="1"/>
        <pt x="1578" y="197" on="1"/>
        <pt x="1491" y="78" on="0"/>
        <pt x="1176" y="-25" on="0"/>
        <pt x="974" y="-25" on="1"/>
        <pt x="579" y="-25" on="0"/>
        <pt x="77" y="454" on="0"/>
        <pt x="77" y="850" on="1"/>
        <pt x="77" y="1251" on="0"/>
        <pt x="594" y="1739" on="0"/>
        <pt x="994" y="1739" on="1"/>
        <pt x="1175" y="1739" on="0"/>
        <pt x="1439" y="1632" on="0"/>
        <pt x="1543" y="1538" on="1"/>
        <pt x="1543" y="1642" on="1"/>
        <pt x="1543" y="1680" on="0"/>
        <pt x="1598" y="1714" on="0"/>
        <pt x="1635" y="1714" on="1"/>
        <pt x="1668" y="1714" on="0"/>
        <pt x="1719" y="1675" on="0"/>
        <pt x="1719" y="1640" on="1"/>
        <pt x="1719" y="1266" on="1"/>
        <pt x="1719" y="1231" on="0"/>
        <pt x="1668" y="1192" on="0"/>
        <pt x="1635" y="1192" on="1"/>
        <pt x="1601" y="1192" on="0"/>
        <pt x="1567" y="1245" on="0"/>
        <pt x="1551" y="1270" on="1"/>
        <pt x="1459" y="1399" on="0"/>
        <pt x="1190" y="1550" on="0"/>
        <pt x="994" y="1550" on="1"/>
        <pt x="687" y="1550" on="0"/>
        <pt x="339" y="1157" on="0"/>
        <pt x="339" y="850" on="1"/>
        <pt x="339" y="547" on="0"/>
        <pt x="674" y="164" on="0"/>
        <pt x="974" y="164" on="1"/>
      </contour>
    </TTGlyph>
    <TTGlyph name="Gbreve" xMin="77" yMin="-25" xMax="1912" yMax="2205">
      <component glyphName="glyph00367" x="77" y="0" flags="0x0"/>
      <component glyphName="G" x="0" y="0" flags="0x1204"/>
      <component glyphName="breve" x="698" y="305" flags="0x1004"/>
    </TTGlyph>
    <TTGlyph name="Gcommaaccent" xMin="77" yMin="-783" xMax="1912" yMax="1739">
      <component glyphName="glyph00367" x="77" y="0" flags="0x0"/>
      <component glyphName="G" x="0" y="0" flags="0x1204"/>
      <component glyphName="comma" x="614" y="-407" flags="0x1004"/>
    </TTGlyph>
    <TTGlyph name="Gdotaccent" xMin="77" yMin="-25" xMax="1912" yMax="2142">
      <component glyphName="glyph00367" x="77" y="0" flags="0x0"/>
      <component glyphName="G" x="0" y="0" flags="0x1204"/>
      <component glyphName="dotaccent" x="843" y="1791" flags="0x1004"/>
    </TTGlyph>
    <TTGlyph name="H" xMin="36" yMin="0" xMax="1984" yMax="1714">
      <contour>
        <pt x="36" y="84" on="1"/>
        <pt x="36" y="121" on="0"/>
        <pt x="70" y="176" on="0"/>
        <pt x="108" y="176" on="1"/>
        <pt x="331" y="176" on="1"/>
        <pt x="331" y="1538" on="1"/>
        <pt x="129" y="1538" on="1"/>
        <pt x="91" y="1538" on="0"/>
        <pt x="57" y="1593" on="0"/>
        <pt x="57" y="1630" on="1"/>
        <pt x="57" y="1663" on="0"/>
        <pt x="96" y="1714" on="0"/>
        <pt x="131" y="1714" on="1"/>
        <pt x="766" y="1714" on="1"/>
        <pt x="801" y="1714" on="0"/>
        <pt x="839" y="1663" on="0"/>
        <pt x="839" y="1630" on="1"/>
        <pt x="839" y="1593" on="0"/>
        <pt x="806" y="1538" on="0"/>
        <pt x="768" y="1538" on="1"/>
        <pt x="565" y="1538" on="1"/>
        <pt x="565" y="963" on="1"/>
        <pt x="1497" y="963" on="1"/>
        <pt x="1497" y="1538" on="1"/>
        <pt x="1294" y="1538" on="1"/>
        <pt x="1256" y="1538" on="0"/>
        <pt x="1222" y="1593" on="0"/>
        <pt x="1222" y="1630" on="1"/>
        <pt x="1222" y="1663" on="0"/>
        <pt x="1261" y="1714" on="0"/>
        <pt x="1296" y="1714" on="1"/>
        <pt x="1910" y="1714" on="1"/>
        <pt x="1945" y="1714" on="0"/>
        <pt x="1984" y="1663" on="0"/>
        <pt x="1984" y="1630" on="1"/>
        <pt x="1984" y="1593" on="0"/>
        <pt x="1950" y="1538" on="0"/>
        <pt x="1912" y="1538" on="1"/>
        <pt x="1730" y="1538" on="1"/>
        <pt x="1730" y="176" on="1"/>
        <pt x="1912" y="176" on="1"/>
        <pt x="1950" y="176" on="0"/>
        <pt x="1984" y="121" on="0"/>
        <pt x="1984" y="84" on="1"/>
        <pt x="1984" y="51" on="0"/>
        <pt x="1945" y="0" on="0"/>
        <pt x="1910" y="0" on="1"/>
        <pt x="1296" y="0" on="1"/>
        <pt x="1261" y="0" on="0"/>
        <pt x="1222" y="51" on="0"/>
        <pt x="1222" y="84" on="1"/>
        <pt x="1222" y="121" on="0"/>
        <pt x="1256" y="176" on="0"/>
        <pt x="1294" y="176" on="1"/>
        <pt x="1497" y="176" on="1"/>
        <pt x="1497" y="788" on="1"/>
        <pt x="565" y="788" on="1"/>
        <pt x="565" y="176" on="1"/>
        <pt x="768" y="176" on="1"/>
        <pt x="806" y="176" on="0"/>
        <pt x="839" y="121" on="0"/>
        <pt x="839" y="84" on="1"/>
        <pt x="839" y="51" on="0"/>
        <pt x="801" y="0" on="0"/>
        <pt x="766" y="0" on="1"/>
        <pt x="110" y="0" on="1"/>
        <pt x="75" y="0" on="0"/>
        <pt x="36" y="51" on="0"/>
        <pt x="36" y="84" on="1"/>
      </contour>
    </TTGlyph>
    <TTGlyph name="I" xMin="74" yMin="0" xMax="938" yMax="1714">
      <contour>
        <pt x="74" y="84" on="1"/>
        <pt x="74" y="121" on="0"/>
        <pt x="107" y="176" on="0"/>
        <pt x="145" y="176" on="1"/>
        <pt x="389" y="176" on="1"/>
        <pt x="389" y="1538" on="1"/>
        <pt x="145" y="1538" on="1"/>
        <pt x="107" y="1538" on="0"/>
        <pt x="74" y="1593" on="0"/>
        <pt x="74" y="1630" on="1"/>
        <pt x="74" y="1663" on="0"/>
        <pt x="112" y="1714" on="0"/>
        <pt x="147" y="1714" on="1"/>
        <pt x="864" y="1714" on="1"/>
        <pt x="899" y="1714" on="0"/>
        <pt x="938" y="1663" on="0"/>
        <pt x="938" y="1630" on="1"/>
        <pt x="938" y="1593" on="0"/>
        <pt x="904" y="1538" on="0"/>
        <pt x="866" y="1538" on="1"/>
        <pt x="623" y="1538" on="1"/>
        <pt x="623" y="176" on="1"/>
        <pt x="866" y="176" on="1"/>
        <pt x="904" y="176" on="0"/>
        <pt x="938" y="121" on="0"/>
        <pt x="938" y="84" on="1"/>
        <pt x="938" y="51" on="0"/>
        <pt x="899" y="0" on="0"/>
        <pt x="864" y="0" on="1"/>
        <pt x="147" y="0" on="1"/>
        <pt x="112" y="0" on="0"/>
        <pt x="74" y="51" on="0"/>
        <pt x="74" y="84" on="1"/>
      </contour>
    </TTGlyph>
    <TTGlyph name="IJ" xMin="74" yMin="-158" xMax="2309" yMax="1714">
      <component glyphName="glyph00367" x="74" y="0" flags="0x0"/>
      <component glyphName="I" x="0" y="0" flags="0x1204"/>
      <component glyphName="J" x="1008" y="0" flags="0x1004"/>
    </TTGlyph>
    <TTGlyph name="Iacute" xMin="74" yMin="0" xMax="938" yMax="2284">
      <component glyphName="glyph00367" x="74" y="0" flags="0x0"/>
      <component glyphName="I" x="0" y="0" flags="0x1204"/>
      <component glyphName="acute" x="200" y="414" flags="0x1004"/>
    </TTGlyph>
    <TTGlyph name="Ibreve" xMin="74" yMin="0" xMax="938" yMax="2205">
      <component glyphName="glyph00367" x="74" y="0" flags="0x0"/>
      <component glyphName="I" x="0" y="0" flags="0x1204"/>
      <component glyphName="breve" x="209" y="305" flags="0x1004"/>
    </TTGlyph>
    <TTGlyph name="Icircumflex" xMin="74" yMin="0" xMax="938" yMax="2340">
      <component glyphName="glyph00367" x="74" y="0" flags="0x0"/>
      <component glyphName="I" x="0" y="0" flags="0x1204"/>
      <component glyphName="circumflex" x="209" y="408" flags="0x1004"/>
    </TTGlyph>
    <TTGlyph name="Idieresis" xMin="74" yMin="0" xMax="938" yMax="2107">
      <component glyphName="glyph00367" x="74" y="0" flags="0x0"/>
      <component glyphName="I" x="0" y="0" flags="0x1204"/>
      <component glyphName="dieresis" x="61" y="409" flags="0x1004"/>
    </TTGlyph>
    <TTGlyph name="Idotaccent" xMin="74" yMin="0" xMax="938" yMax="2142">
      <component glyphName="glyph00367" x="74" y="0" flags="0x0"/>
      <component glyphName="I" x="0" y="0" flags="0x1204"/>
      <component glyphName="dotaccent" x="355" y="1791" flags="0x1004"/>
    </TTGlyph>
    <TTGlyph name="Igrave" xMin="74" yMin="0" xMax="938" yMax="2284">
      <component glyphName="glyph00367" x="74" y="0" flags="0x0"/>
      <component glyphName="I" x="0" y="0" flags="0x1204"/>
      <component glyphName="grave" x="200" y="414" flags="0x1004"/>
    </TTGlyph>
    <TTGlyph name="Imacron" xMin="74" yMin="0" xMax="938" yMax="1997">
      <component glyphName="glyph00367" x="74" y="0" flags="0x0"/>
      <component glyphName="I" x="0" y="0" flags="0x1204"/>
      <component glyphName="macron" x="-7" y="875" flags="0x1004"/>
    </TTGlyph>
    <TTGlyph name="Iogonek" xMin="74" yMin="-527" xMax="938" yMax="1714">
      <component glyphName="glyph00367" x="74" y="0" flags="0x0"/>
      <component glyphName="I" x="0" y="0" flags="0x1204"/>
      <component glyphName="ogonek" x="281" y="-11" flags="0x1004"/>
    </TTGlyph>
    <TTGlyph name="Itilde" xMin="74" yMin="0" xMax="938" yMax="2159">
      <component glyphName="glyph00367" x="74" y="0" flags="0x0"/>
      <component glyphName="I" x="0" y="0" flags="0x1204"/>
      <component glyphName="tilde" x="-1" y="829" flags="0x1004"/>
    </TTGlyph>
    <TTGlyph name="J" xMin="85" yMin="-158" xMax="1301" yMax="1714">
      <contour>
        <pt x="965" y="443" on="1"/>
        <pt x="965" y="130" on="0"/>
        <pt x="673" y="-158" on="0"/>
        <pt x="461" y="-158" on="1"/>
        <pt x="309" y="-158" on="0"/>
        <pt x="85" y="-11" on="0"/>
        <pt x="85" y="93" on="1"/>
        <pt x="85" y="226" on="1"/>
        <pt x="85" y="283" on="0"/>
        <pt x="139" y="343" on="0"/>
        <pt x="202" y="343" on="1"/>
        <pt x="250" y="343" on="0"/>
        <pt x="323" y="295" on="0"/>
        <pt x="323" y="249" on="1"/>
        <pt x="323" y="122" on="1"/>
        <pt x="324" y="85" on="0"/>
        <pt x="415" y="31" on="0"/>
        <pt x="476" y="31" on="1"/>
        <pt x="563" y="31" on="0"/>
        <pt x="732" y="198" on="0"/>
        <pt x="732" y="417" on="1"/>
        <pt x="732" y="1538" on="1"/>
        <pt x="410" y="1538" on="1"/>
        <pt x="372" y="1538" on="0"/>
        <pt x="339" y="1593" on="0"/>
        <pt x="339" y="1630" on="1"/>
        <pt x="339" y="1663" on="0"/>
        <pt x="377" y="1714" on="0"/>
        <pt x="412" y="1714" on="1"/>
        <pt x="1228" y="1714" on="1"/>
        <pt x="1263" y="1714" on="0"/>
        <pt x="1301" y="1663" on="0"/>
        <pt x="1301" y="1630" on="1"/>
        <pt x="1301" y="1593" on="0"/>
        <pt x="1268" y="1538" on="0"/>
        <pt x="1230" y="1538" on="1"/>
        <pt x="965" y="1538" on="1"/>
      </contour>
    </TTGlyph>
    <TTGlyph name="Jcircumflex" xMin="85" yMin="-158" xMax="1301" yMax="2340">
      <component glyphName="glyph00367" x="85" y="0" flags="0x0"/>
      <component glyphName="J" x="0" y="0" flags="0x1204"/>
      <component glyphName="circumflex" x="524" y="408" flags="0x1004"/>
    </TTGlyph>
    <TTGlyph name="K" xMin="36" yMin="0" xMax="2033" yMax="1714">
      <contour>
        <pt x="36" y="84" on="1"/>
        <pt x="36" y="121" on="0"/>
        <pt x="70" y="176" on="0"/>
        <pt x="108" y="176" on="1"/>
        <pt x="327" y="176" on="1"/>
        <pt x="327" y="1538" on="1"/>
        <pt x="108" y="1538" on="1"/>
        <pt x="70" y="1538" on="0"/>
        <pt x="36" y="1593" on="0"/>
        <pt x="36" y="1630" on="1"/>
        <pt x="36" y="1663" on="0"/>
        <pt x="75" y="1714" on="0"/>
        <pt x="110" y="1714" on="1"/>
        <pt x="761" y="1714" on="1"/>
        <pt x="796" y="1714" on="0"/>
        <pt x="835" y="1663" on="0"/>
        <pt x="835" y="1630" on="1"/>
        <pt x="835" y="1593" on="0"/>
        <pt x="802" y="1538" on="0"/>
        <pt x="764" y="1538" on="1"/>
        <pt x="561" y="1538" on="1"/>
        <pt x="561" y="842" on="1"/>
        <pt x="1353" y="1499" on="1"/>
        <pt x="1357" y="1503" on="0"/>
        <pt x="1368" y="1520" on="0"/>
        <pt x="1368" y="1530" on="1"/>
        <pt x="1368" y="1541" on="0"/>
        <pt x="1351" y="1552" on="0"/>
        <pt x="1335" y="1552" on="1"/>
        <pt x="1265" y="1552" on="1"/>
        <pt x="1229" y="1552" on="0"/>
        <pt x="1194" y="1591" on="0"/>
        <pt x="1194" y="1630" on="1"/>
        <pt x="1194" y="1663" on="0"/>
        <pt x="1232" y="1714" on="0"/>
        <pt x="1267" y="1714" on="1"/>
        <pt x="1796" y="1714" on="1"/>
        <pt x="1831" y="1714" on="0"/>
        <pt x="1869" y="1663" on="0"/>
        <pt x="1869" y="1630" on="1"/>
        <pt x="1869" y="1593" on="0"/>
        <pt x="1836" y="1538" on="0"/>
        <pt x="1798" y="1538" on="1"/>
        <pt x="1640" y="1538" on="1"/>
        <pt x="1034" y="1016" on="1"/>
        <pt x="1820" y="176" on="1"/>
        <pt x="1962" y="176" on="1"/>
        <pt x="2000" y="176" on="0"/>
        <pt x="2033" y="121" on="0"/>
        <pt x="2033" y="84" on="1"/>
        <pt x="2033" y="51" on="0"/>
        <pt x="1995" y="0" on="0"/>
        <pt x="1960" y="0" on="1"/>
        <pt x="1349" y="0" on="1"/>
        <pt x="1314" y="0" on="0"/>
        <pt x="1276" y="51" on="0"/>
        <pt x="1276" y="84" on="1"/>
        <pt x="1276" y="121" on="0"/>
        <pt x="1309" y="176" on="0"/>
        <pt x="1347" y="176" on="1"/>
        <pt x="1546" y="176" on="1"/>
        <pt x="884" y="911" on="1"/>
        <pt x="561" y="662" on="1"/>
        <pt x="561" y="176" on="1"/>
        <pt x="845" y="176" on="1"/>
        <pt x="883" y="176" on="0"/>
        <pt x="917" y="121" on="0"/>
        <pt x="917" y="84" on="1"/>
        <pt x="917" y="51" on="0"/>
        <pt x="878" y="0" on="0"/>
        <pt x="843" y="0" on="1"/>
        <pt x="110" y="0" on="1"/>
        <pt x="75" y="0" on="0"/>
        <pt x="36" y="51" on="0"/>
        <pt x="36" y="84" on="1"/>
      </contour>
    </TTGlyph>
    <TTGlyph name="Kcommaaccent" xMin="36" yMin="-758" xMax="2033" yMax="1714">
      <component glyphName="glyph00367" x="36" y="0" flags="0x0"/>
      <component glyphName="K" x="0" y="0" flags="0x1204"/>
      <component glyphName="comma" x="675" y="-382" flags="0x1004"/>
    </TTGlyph>
    <TTGlyph name="L" xMin="36" yMin="0" xMax="1765" yMax="1714">
      <contour>
        <pt x="938" y="1630" on="1"/>
        <pt x="938" y="1593" on="0"/>
        <pt x="904" y="1538" on="0"/>
        <pt x="866" y="1538" on="1"/>
        <pt x="643" y="1538" on="1"/>
        <pt x="643" y="176" on="1"/>
        <pt x="1347" y="176" on="1"/>
        <pt x="1432" y="176" on="0"/>
        <pt x="1555" y="224" on="0"/>
        <pt x="1562" y="303" on="1"/>
        <pt x="1591" y="584" on="1"/>
        <pt x="1595" y="617" on="0"/>
        <pt x="1638" y="647" on="0"/>
        <pt x="1673" y="647" on="1"/>
        <pt x="1710" y="647" on="0"/>
        <pt x="1765" y="607" on="0"/>
        <pt x="1765" y="567" on="1"/>
        <pt x="1720" y="68" on="1"/>
        <pt x="1717" y="40" on="0"/>
        <pt x="1687" y="0" on="0"/>
        <pt x="1659" y="0" on="1"/>
        <pt x="110" y="0" on="1"/>
        <pt x="75" y="0" on="0"/>
        <pt x="36" y="51" on="0"/>
        <pt x="36" y="84" on="1"/>
        <pt x="36" y="121" on="0"/>
        <pt x="70" y="176" on="0"/>
        <pt x="108" y="176" on="1"/>
        <pt x="409" y="176" on="1"/>
        <pt x="409" y="1538" on="1"/>
        <pt x="170" y="1538" on="1"/>
        <pt x="132" y="1538" on="0"/>
        <pt x="98" y="1593" on="0"/>
        <pt x="98" y="1630" on="1"/>
        <pt x="98" y="1663" on="0"/>
        <pt x="137" y="1714" on="0"/>
        <pt x="172" y="1714" on="1"/>
        <pt x="864" y="1714" on="1"/>
        <pt x="899" y="1714" on="0"/>
        <pt x="938" y="1663" on="0"/>
        <pt x="938" y="1630" on="1"/>
      </contour>
    </TTGlyph>
    <TTGlyph name="Lacute" xMin="36" yMin="0" xMax="1765" yMax="2284">
      <component glyphName="glyph00367" x="36" y="0" flags="0x0"/>
      <component glyphName="L" x="0" y="0" flags="0x1204"/>
      <component glyphName="acute" x="253" y="414" flags="0x1004"/>
    </TTGlyph>
    <TTGlyph name="Lcaron" xMin="36" yMin="0" xMax="1765" yMax="1739">
      <component glyphName="glyph00367" x="36" y="0" flags="0x0"/>
      <component glyphName="L" x="0" y="0" flags="0x1204"/>
      <component glyphName="comma" x="1057" y="1459" flags="0x1004"/>
    </TTGlyph>
    <TTGlyph name="Lcommaaccent" xMin="36" yMin="-758" xMax="1765" yMax="1714">
      <component glyphName="glyph00367" x="36" y="0" flags="0x0"/>
      <component glyphName="L" x="0" y="0" flags="0x1204"/>
      <component glyphName="comma" x="524" y="-382" flags="0x1004"/>
    </TTGlyph>
    <TTGlyph name="Ldot" xMin="36" yMin="0" xMax="1765" yMax="1714">
      <component glyphName="glyph00367" x="36" y="0" flags="0x0"/>
      <component glyphName="L" x="0" y="0" flags="0x1204"/>
      <component glyphName="periodcentered" x="943" y="-53" flags="0x1004"/>
    </TTGlyph>
    <TTGlyph name="Lslash" xMin="68" yMin="0" xMax="1797" yMax="1714">
      <contour>
        <pt x="970" y="1630" on="1"/>
        <pt x="970" y="1593" on="0"/>
        <pt x="936" y="1538" on="0"/>
        <pt x="898" y="1538" on="1"/>
        <pt x="675" y="1538" on="1"/>
        <pt x="675" y="1149" on="1"/>
        <pt x="937" y="1250" on="1"/>
        <pt x="953" y="1254" on="0"/>
        <pt x="980" y="1259" on="0"/>
        <pt x="992" y="1259" on="1"/>
        <pt x="1029" y="1259" on="0"/>
        <pt x="1060" y="1220" on="0"/>
        <pt x="1060" y="1195" on="1"/>
        <pt x="1060" y="1169" on="0"/>
        <pt x="1034" y="1120" on="0"/>
        <pt x="1016" y="1115" on="1"/>
        <pt x="675" y="984" on="1"/>
        <pt x="675" y="176" on="1"/>
        <pt x="1379" y="176" on="1"/>
        <pt x="1464" y="176" on="0"/>
        <pt x="1587" y="224" on="0"/>
        <pt x="1594" y="303" on="1"/>
        <pt x="1623" y="584" on="1"/>
        <pt x="1627" y="617" on="0"/>
        <pt x="1670" y="647" on="0"/>
        <pt x="1705" y="647" on="1"/>
        <pt x="1742" y="647" on="0"/>
        <pt x="1797" y="607" on="0"/>
        <pt x="1797" y="567" on="1"/>
        <pt x="1752" y="68" on="1"/>
        <pt x="1749" y="40" on="0"/>
        <pt x="1719" y="0" on="0"/>
        <pt x="1691" y="0" on="1"/>
        <pt x="142" y="0" on="1"/>
        <pt x="107" y="0" on="0"/>
        <pt x="68" y="51" on="0"/>
        <pt x="68" y="84" on="1"/>
        <pt x="68" y="121" on="0"/>
        <pt x="102" y="176" on="0"/>
        <pt x="140" y="176" on="1"/>
        <pt x="441" y="176" on="1"/>
        <pt x="441" y="893" on="1"/>
        <pt x="310" y="843" on="1"/>
        <pt x="292" y="838" on="0"/>
        <pt x="262" y="833" on="0"/>
        <pt x="249" y="833" on="1"/>
        <pt x="210" y="833" on="0"/>
        <pt x="178" y="872" on="0"/>
        <pt x="178" y="897" on="1"/>
        <pt x="178" y="922" on="0"/>
        <pt x="204" y="969" on="0"/>
        <pt x="223" y="975" on="1"/>
        <pt x="441" y="1059" on="1"/>
        <pt x="441" y="1538" on="1"/>
        <pt x="202" y="1538" on="1"/>
        <pt x="164" y="1538" on="0"/>
        <pt x="130" y="1593" on="0"/>
        <pt x="130" y="1630" on="1"/>
        <pt x="130" y="1663" on="0"/>
        <pt x="169" y="1714" on="0"/>
        <pt x="204" y="1714" on="1"/>
        <pt x="896" y="1714" on="1"/>
        <pt x="931" y="1714" on="0"/>
        <pt x="970" y="1663" on="0"/>
        <pt x="970" y="1630" on="1"/>
      </contour>
    </TTGlyph>
    <TTGlyph name="M" xMin="36" yMin="0" xMax="2381" yMax="1714">
      <contour>
        <pt x="1640" y="84" on="1"/>
        <pt x="1640" y="121" on="0"/>
        <pt x="1674" y="176" on="0"/>
        <pt x="1712" y="176" on="1"/>
        <pt x="1894" y="176" on="1"/>
        <pt x="1894" y="1235" on="1"/>
        <pt x="1290" y="102" on="1"/>
        <pt x="1280" y="76" on="0"/>
        <pt x="1230" y="37" on="0"/>
        <pt x="1196" y="37" on="1"/>
        <pt x="1165" y="37" on="0"/>
        <pt x="1116" y="70" on="0"/>
        <pt x="1106" y="92" on="1"/>
        <pt x="540" y="1249" on="1"/>
        <pt x="540" y="176" on="1"/>
        <pt x="743" y="176" on="1"/>
        <pt x="781" y="176" on="0"/>
        <pt x="815" y="121" on="0"/>
        <pt x="815" y="84" on="1"/>
        <pt x="815" y="51" on="0"/>
        <pt x="776" y="0" on="0"/>
        <pt x="741" y="0" on="1"/>
        <pt x="110" y="0" on="1"/>
        <pt x="75" y="0" on="0"/>
        <pt x="36" y="51" on="0"/>
        <pt x="36" y="84" on="1"/>
        <pt x="36" y="121" on="0"/>
        <pt x="70" y="176" on="0"/>
        <pt x="108" y="176" on="1"/>
        <pt x="331" y="176" on="1"/>
        <pt x="331" y="1538" on="1"/>
        <pt x="129" y="1538" on="1"/>
        <pt x="91" y="1538" on="0"/>
        <pt x="57" y="1593" on="0"/>
        <pt x="57" y="1630" on="1"/>
        <pt x="57" y="1663" on="0"/>
        <pt x="96" y="1714" on="0"/>
        <pt x="131" y="1714" on="1"/>
        <pt x="467" y="1714" on="1"/>
        <pt x="494" y="1714" on="0"/>
        <pt x="525" y="1682" on="0"/>
        <pt x="534" y="1663" on="1"/>
        <pt x="1196" y="328" on="1"/>
        <pt x="1902" y="1671" on="1"/>
        <pt x="1911" y="1688" on="0"/>
        <pt x="1943" y="1714" on="0"/>
        <pt x="1968" y="1714" on="1"/>
        <pt x="2287" y="1714" on="1"/>
        <pt x="2322" y="1714" on="0"/>
        <pt x="2361" y="1663" on="0"/>
        <pt x="2361" y="1630" on="1"/>
        <pt x="2361" y="1593" on="0"/>
        <pt x="2327" y="1538" on="0"/>
        <pt x="2289" y="1538" on="1"/>
        <pt x="2107" y="1538" on="1"/>
        <pt x="2107" y="176" on="1"/>
        <pt x="2310" y="176" on="1"/>
        <pt x="2348" y="176" on="0"/>
        <pt x="2381" y="121" on="0"/>
        <pt x="2381" y="84" on="1"/>
        <pt x="2381" y="51" on="0"/>
        <pt x="2343" y="0" on="0"/>
        <pt x="2308" y="0" on="1"/>
        <pt x="1714" y="0" on="1"/>
        <pt x="1679" y="0" on="0"/>
        <pt x="1640" y="51" on="0"/>
        <pt x="1640" y="84" on="1"/>
      </contour>
    </TTGlyph>
    <TTGlyph name="N" xMin="36" yMin="-37" xMax="1988" yMax="1714">
      <contour>
        <pt x="36" y="1630" on="1"/>
        <pt x="36" y="1663" on="0"/>
        <pt x="75" y="1714" on="0"/>
        <pt x="110" y="1714" on="1"/>
        <pt x="573" y="1714" on="1"/>
        <pt x="597" y="1714" on="0"/>
        <pt x="623" y="1698" on="0"/>
        <pt x="632" y="1679" on="1"/>
        <pt x="1511" y="426" on="1"/>
        <pt x="1511" y="1538" on="1"/>
        <pt x="1331" y="1538" on="1"/>
        <pt x="1293" y="1538" on="0"/>
        <pt x="1259" y="1593" on="0"/>
        <pt x="1259" y="1630" on="1"/>
        <pt x="1259" y="1663" on="0"/>
        <pt x="1298" y="1714" on="0"/>
        <pt x="1333" y="1714" on="1"/>
        <pt x="1915" y="1714" on="1"/>
        <pt x="1950" y="1714" on="0"/>
        <pt x="1988" y="1663" on="0"/>
        <pt x="1988" y="1630" on="1"/>
        <pt x="1988" y="1593" on="0"/>
        <pt x="1955" y="1538" on="0"/>
        <pt x="1917" y="1538" on="1"/>
        <pt x="1718" y="1538" on="1"/>
        <pt x="1718" y="53" on="1"/>
        <pt x="1718" y="15" on="0"/>
        <pt x="1665" y="-37" on="0"/>
        <pt x="1628" y="-37" on="1"/>
        <pt x="1596" y="-37" on="0"/>
        <pt x="1551" y="-6" on="0"/>
        <pt x="1536" y="16" on="1"/>
        <pt x="518" y="1456" on="1"/>
        <pt x="518" y="176" on="1"/>
        <pt x="694" y="176" on="1"/>
        <pt x="732" y="176" on="0"/>
        <pt x="766" y="121" on="0"/>
        <pt x="766" y="84" on="1"/>
        <pt x="766" y="51" on="0"/>
        <pt x="727" y="0" on="0"/>
        <pt x="692" y="0" on="1"/>
        <pt x="110" y="0" on="1"/>
        <pt x="75" y="0" on="0"/>
        <pt x="36" y="51" on="0"/>
        <pt x="36" y="84" on="1"/>
        <pt x="36" y="121" on="0"/>
        <pt x="70" y="176" on="0"/>
        <pt x="108" y="176" on="1"/>
        <pt x="307" y="176" on="1"/>
        <pt x="307" y="1538" on="1"/>
        <pt x="108" y="1538" on="1"/>
        <pt x="70" y="1538" on="0"/>
        <pt x="36" y="1593" on="0"/>
        <pt x="36" y="1630" on="1"/>
      </contour>
    </TTGlyph>
    <TTGlyph name="Nacute" xMin="36" yMin="-37" xMax="1988" yMax="2284">
      <component glyphName="glyph00367" x="36" y="0" flags="0x0"/>
      <component glyphName="N" x="0" y="0" flags="0x1204"/>
      <component glyphName="acute" x="707" y="414" flags="0x1004"/>
    </TTGlyph>
    <TTGlyph name="Ncaron" xMin="36" yMin="-37" xMax="1988" yMax="2340">
      <component glyphName="glyph00367" x="36" y="0" flags="0x0"/>
      <component glyphName="N" x="0" y="0" flags="0x1204"/>
      <component glyphName="caron" x="716" y="408" flags="0x1004"/>
    </TTGlyph>
    <TTGlyph name="Ncommaaccent" xMin="36" yMin="-736" xMax="1988" yMax="1714">
      <component glyphName="glyph00367" x="36" y="0" flags="0x0"/>
      <component glyphName="N" x="0" y="0" flags="0x1204"/>
      <component glyphName="comma" x="681" y="-360" flags="0x1004"/>
    </TTGlyph>
    <TTGlyph name="Ntilde" xMin="36" yMin="-37" xMax="1988" yMax="2159">
      <component glyphName="glyph00367" x="36" y="0" flags="0x0"/>
      <component glyphName="N" x="0" y="0" flags="0x1204"/>
      <component glyphName="tilde" x="506" y="829" flags="0x1004"/>
    </TTGlyph>
    <TTGlyph name="O" xMin="77" yMin="-25" xMax="1863" yMax="1739">
      <contour>
        <pt x="966" y="-25" on="1"/>
        <pt x="575" y="-25" on="0"/>
        <pt x="77" y="454" on="0"/>
        <pt x="77" y="850" on="1"/>
        <pt x="77" y="1247" on="0"/>
        <pt x="575" y="1739" on="0"/>
        <pt x="966" y="1739" on="1"/>
        <pt x="1362" y="1739" on="0"/>
        <pt x="1863" y="1247" on="0"/>
        <pt x="1863" y="850" on="1"/>
        <pt x="1863" y="454" on="0"/>
        <pt x="1360" y="-25" on="0"/>
        <pt x="966" y="-25" on="1"/>
      </contour>
      <contour>
        <pt x="957" y="1550" on="1"/>
        <pt x="659" y="1550" on="0"/>
        <pt x="327" y="1153" on="0"/>
        <pt x="327" y="850" on="1"/>
        <pt x="327" y="547" on="0"/>
        <pt x="668" y="164" on="0"/>
        <pt x="974" y="164" on="1"/>
        <pt x="1273" y="164" on="0"/>
        <pt x="1615" y="542" on="0"/>
        <pt x="1615" y="848" on="1"/>
        <pt x="1615" y="1157" on="0"/>
        <pt x="1264" y="1550" on="0"/>
        <pt x="957" y="1550" on="1"/>
      </contour>
    </TTGlyph>
    <TTGlyph name="OE" xMin="74" yMin="-25" xMax="2978" yMax="1739">
      <contour>
        <pt x="950" y="-25" on="1"/>
        <pt x="565" y="-25" on="0"/>
        <pt x="74" y="454" on="0"/>
        <pt x="74" y="850" on="1"/>
        <pt x="74" y="1247" on="0"/>
        <pt x="565" y="1739" on="0"/>
        <pt x="950" y="1739" on="1"/>
        <pt x="1153" y="1739" on="0"/>
        <pt x="1511" y="1553" on="0"/>
        <pt x="1589" y="1387" on="1"/>
        <pt x="1589" y="1714" on="1"/>
        <pt x="2786" y="1714" on="1"/>
        <pt x="2822" y="1714" on="0"/>
        <pt x="2856" y="1671" on="0"/>
        <pt x="2868" y="1636" on="1"/>
        <pt x="2964" y="1319" on="1"/>
        <pt x="2967" y="1308" on="0"/>
        <pt x="2970" y="1288" on="0"/>
        <pt x="2970" y="1280" on="1"/>
        <pt x="2970" y="1247" on="0"/>
        <pt x="2929" y="1206" on="0"/>
        <pt x="2897" y="1206" on="1"/>
        <pt x="2860" y="1206" on="0"/>
        <pt x="2807" y="1251" on="0"/>
        <pt x="2794" y="1282" on="1"/>
        <pt x="2686" y="1538" on="1"/>
        <pt x="1822" y="1538" on="1"/>
        <pt x="1822" y="967" on="1"/>
        <pt x="2156" y="967" on="1"/>
        <pt x="2207" y="1153" on="1"/>
        <pt x="2215" y="1181" on="0"/>
        <pt x="2256" y="1221" on="0"/>
        <pt x="2287" y="1221" on="1"/>
        <pt x="2321" y="1221" on="0"/>
        <pt x="2357" y="1176" on="0"/>
        <pt x="2357" y="1141" on="1"/>
        <pt x="2342" y="899" on="1"/>
        <pt x="2357" y="649" on="1"/>
        <pt x="2357" y="614" on="0"/>
        <pt x="2321" y="569" on="0"/>
        <pt x="2287" y="569" on="1"/>
        <pt x="2256" y="569" on="0"/>
        <pt x="2215" y="609" on="0"/>
        <pt x="2207" y="637" on="1"/>
        <pt x="2156" y="823" on="1"/>
        <pt x="1822" y="823" on="1"/>
        <pt x="1822" y="176" on="1"/>
        <pt x="2686" y="176" on="1"/>
        <pt x="2802" y="506" on="1"/>
        <pt x="2816" y="537" on="0"/>
        <pt x="2866" y="582" on="0"/>
        <pt x="2905" y="582" on="1"/>
        <pt x="2938" y="582" on="0"/>
        <pt x="2978" y="542" on="0"/>
        <pt x="2978" y="508" on="1"/>
        <pt x="2978" y="498" on="0"/>
        <pt x="2975" y="478" on="0"/>
        <pt x="2972" y="469" on="1"/>
        <pt x="2909" y="78" on="1"/>
        <pt x="2899" y="42" on="0"/>
        <pt x="2863" y="0" on="0"/>
        <pt x="2827" y="0" on="1"/>
        <pt x="1589" y="0" on="1"/>
        <pt x="1589" y="311" on="1"/>
        <pt x="1526" y="160" on="0"/>
        <pt x="1152" y="-25" on="0"/>
        <pt x="950" y="-25" on="1"/>
      </contour>
      <contour>
        <pt x="941" y="1550" on="1"/>
        <pt x="649" y="1550" on="0"/>
        <pt x="324" y="1153" on="0"/>
        <pt x="324" y="850" on="1"/>
        <pt x="324" y="547" on="0"/>
        <pt x="658" y="164" on="0"/>
        <pt x="958" y="164" on="1"/>
        <pt x="1253" y="164" on="0"/>
        <pt x="1589" y="542" on="0"/>
        <pt x="1589" y="848" on="1"/>
        <pt x="1589" y="1157" on="0"/>
        <pt x="1244" y="1550" on="0"/>
        <pt x="941" y="1550" on="1"/>
      </contour>
    </TTGlyph>
    <TTGlyph name="Oacute" xMin="77" yMin="-25" xMax="1863" yMax="2284">
      <component glyphName="glyph00367" x="77" y="0" flags="0x0"/>
      <component glyphName="O" x="0" y="0" flags="0x1204"/>
      <component glyphName="acute" x="661" y="414" flags="0x1004"/>
    </TTGlyph>
    <TTGlyph name="Obreve" xMin="77" yMin="-25" xMax="1863" yMax="2205">
      <component glyphName="glyph00367" x="77" y="0" flags="0x0"/>
      <component glyphName="O" x="0" y="0" flags="0x1204"/>
      <component glyphName="breve" x="670" y="305" flags="0x1004"/>
    </TTGlyph>
    <TTGlyph name="Ocircumflex" xMin="77" yMin="-25" xMax="1863" yMax="2340">
      <component glyphName="glyph00367" x="77" y="0" flags="0x0"/>
      <component glyphName="O" x="0" y="0" flags="0x1204"/>
      <component glyphName="circumflex" x="670" y="408" flags="0x1004"/>
    </TTGlyph>
    <TTGlyph name="Odieresis" xMin="77" yMin="-25" xMax="1863" yMax="2107">
      <component glyphName="glyph00367" x="77" y="0" flags="0x0"/>
      <component glyphName="O" x="0" y="0" flags="0x1204"/>
      <component glyphName="dieresis" x="522" y="409" flags="0x1004"/>
    </TTGlyph>
    <TTGlyph name="Ograve" xMin="77" yMin="-25" xMax="1863" yMax="2284">
      <component glyphName="glyph00367" x="77" y="0" flags="0x0"/>
      <component glyphName="O" x="0" y="0" flags="0x1204"/>
      <component glyphName="grave" x="661" y="414" flags="0x1004"/>
    </TTGlyph>
    <TTGlyph name="Ohungarumlaut" xMin="77" yMin="-25" xMax="1863" yMax="2284">
      <component glyphName="glyph00367" x="77" y="0" flags="0x0"/>
      <component glyphName="O" x="0" y="0" flags="0x1204"/>
      <component glyphName="hungarumlaut" x="473" y="414" flags="0x1004"/>
    </TTGlyph>
    <TTGlyph name="Omacron" xMin="77" yMin="-25" xMax="1863" yMax="1997">
      <component glyphName="glyph00367" x="77" y="0" flags="0x0"/>
      <component glyphName="O" x="0" y="0" flags="0x1204"/>
      <component glyphName="macron" x="453" y="875" flags="0x1004"/>
    </TTGlyph>
    <TTGlyph name="Oslash" xMin="77" yMin="-389" xMax="1863" yMax="2081">
      <contour>
        <pt x="957" y="1550" on="1"/>
        <pt x="1020" y="1550" on="0"/>
        <pt x="1138" y="1532" on="0"/>
        <pt x="1190" y="1515" on="1"/>
        <pt x="595" y="270" on="1"/>
        <pt x="466" y="357" on="0"/>
        <pt x="327" y="659" on="0"/>
        <pt x="327" y="850" on="1"/>
        <pt x="327" y="1153" on="0"/>
        <pt x="659" y="1550" on="0"/>
        <pt x="957" y="1550" on="1"/>
      </contour>
      <contour>
        <pt x="974" y="164" on="1"/>
        <pt x="914" y="164" on="0"/>
        <pt x="804" y="180" on="0"/>
        <pt x="755" y="195" on="1"/>
        <pt x="1348" y="1436" on="1"/>
        <pt x="1476" y="1346" on="0"/>
        <pt x="1615" y="1041" on="0"/>
        <pt x="1615" y="848" on="1"/>
        <pt x="1615" y="542" on="0"/>
        <pt x="1273" y="164" on="0"/>
        <pt x="974" y="164" on="1"/>
      </contour>
      <contour>
        <pt x="499" y="-341" on="1"/>
        <pt x="669" y="16" on="1"/>
        <pt x="738" y="-4" on="0"/>
        <pt x="887" y="-25" on="0"/>
        <pt x="966" y="-25" on="1"/>
        <pt x="1360" y="-25" on="0"/>
        <pt x="1863" y="454" on="0"/>
        <pt x="1863" y="850" on="1"/>
        <pt x="1863" y="1113" on="0"/>
        <pt x="1634" y="1516" on="0"/>
        <pt x="1438" y="1625" on="1"/>
        <pt x="1601" y="1967" on="1"/>
        <pt x="1604" y="1974" on="0"/>
        <pt x="1607" y="1988" on="0"/>
        <pt x="1607" y="1995" on="1"/>
        <pt x="1607" y="2032" on="0"/>
        <pt x="1539" y="2081" on="0"/>
        <pt x="1505" y="2081" on="1"/>
        <pt x="1483" y="2081" on="0"/>
        <pt x="1451" y="2061" on="0"/>
        <pt x="1443" y="2042" on="1"/>
        <pt x="1276" y="1694" on="1"/>
        <pt x="1205" y="1716" on="0"/>
        <pt x="1049" y="1739" on="0"/>
        <pt x="966" y="1739" on="1"/>
        <pt x="575" y="1739" on="0"/>
        <pt x="77" y="1247" on="0"/>
        <pt x="77" y="850" on="1"/>
        <pt x="77" y="586" on="0"/>
        <pt x="307" y="188" on="0"/>
        <pt x="505" y="83" on="1"/>
        <pt x="335" y="-272" on="1"/>
        <pt x="331" y="-279" on="0"/>
        <pt x="327" y="-295" on="0"/>
        <pt x="327" y="-303" on="1"/>
        <pt x="327" y="-339" on="0"/>
        <pt x="397" y="-389" on="0"/>
        <pt x="432" y="-389" on="1"/>
        <pt x="458" y="-389" on="0"/>
        <pt x="488" y="-363" on="0"/>
        <pt x="499" y="-341" on="1"/>
      </contour>
    </TTGlyph>
    <TTGlyph name="Otilde" xMin="77" yMin="-25" xMax="1863" yMax="2159">
      <component glyphName="glyph00367" x="77" y="0" flags="0x0"/>
      <component glyphName="O" x="0" y="0" flags="0x1204"/>
      <component glyphName="tilde" x="459" y="829" flags="0x1004"/>
    </TTGlyph>
    <TTGlyph name="P" xMin="36" yMin="0" xMax="1671" yMax="1714">
      <contour>
        <pt x="1435" y="1223" on="1"/>
        <pt x="1435" y="1458" on="0"/>
        <pt x="1023" y="1538" on="0"/>
        <pt x="813" y="1538" on="1"/>
        <pt x="606" y="1538" on="1"/>
        <pt x="606" y="889" on="1"/>
        <pt x="874" y="889" on="1"/>
        <pt x="1089" y="889" on="0"/>
        <pt x="1435" y="984" on="0"/>
        <pt x="1435" y="1223" on="1"/>
      </contour>
      <contour>
        <pt x="1671" y="1208" on="1"/>
        <pt x="1671" y="862" on="0"/>
        <pt x="1140" y="725" on="0"/>
        <pt x="821" y="725" on="1"/>
        <pt x="606" y="725" on="1"/>
        <pt x="606" y="176" on="1"/>
        <pt x="911" y="176" on="1"/>
        <pt x="949" y="176" on="0"/>
        <pt x="983" y="121" on="0"/>
        <pt x="983" y="84" on="1"/>
        <pt x="983" y="51" on="0"/>
        <pt x="944" y="0" on="0"/>
        <pt x="909" y="0" on="1"/>
        <pt x="110" y="0" on="1"/>
        <pt x="75" y="0" on="0"/>
        <pt x="36" y="51" on="0"/>
        <pt x="36" y="84" on="1"/>
        <pt x="36" y="121" on="0"/>
        <pt x="70" y="176" on="0"/>
        <pt x="108" y="176" on="1"/>
        <pt x="372" y="176" on="1"/>
        <pt x="372" y="1538" on="1"/>
        <pt x="129" y="1538" on="1"/>
        <pt x="91" y="1538" on="0"/>
        <pt x="57" y="1593" on="0"/>
        <pt x="57" y="1630" on="1"/>
        <pt x="57" y="1663" on="0"/>
        <pt x="96" y="1714" on="0"/>
        <pt x="131" y="1714" on="1"/>
        <pt x="784" y="1714" on="1"/>
        <pt x="1118" y="1714" on="0"/>
        <pt x="1671" y="1566" on="0"/>
        <pt x="1671" y="1208" on="1"/>
      </contour>
    </TTGlyph>
    <TTGlyph name="Q" xMin="77" yMin="-384" xMax="1871" yMax="1739">
      <contour>
        <pt x="974" y="1550" on="1"/>
        <pt x="673" y="1550" on="0"/>
        <pt x="339" y="1152" on="0"/>
        <pt x="339" y="850" on="1"/>
        <pt x="339" y="547" on="0"/>
        <pt x="674" y="164" on="0"/>
        <pt x="974" y="164" on="1"/>
        <pt x="1280" y="164" on="0"/>
        <pt x="1629" y="543" on="0"/>
        <pt x="1629" y="850" on="1"/>
        <pt x="1629" y="1158" on="0"/>
        <pt x="1280" y="1550" on="0"/>
        <pt x="974" y="1550" on="1"/>
      </contour>
      <contour>
        <pt x="1140" y="-13" on="1"/>
        <pt x="1368" y="-161" on="1"/>
        <pt x="1393" y="-174" on="0"/>
        <pt x="1448" y="-183" on="0"/>
        <pt x="1476" y="-183" on="1"/>
        <pt x="1521" y="-183" on="0"/>
        <pt x="1628" y="-139" on="0"/>
        <pt x="1689" y="-95" on="1"/>
        <pt x="1698" y="-89" on="0"/>
        <pt x="1719" y="-83" on="0"/>
        <pt x="1730" y="-83" on="1"/>
        <pt x="1772" y="-83" on="0"/>
        <pt x="1839" y="-150" on="0"/>
        <pt x="1839" y="-191" on="1"/>
        <pt x="1839" y="-283" on="0"/>
        <pt x="1542" y="-384" on="0"/>
        <pt x="1464" y="-384" on="1"/>
        <pt x="1265" y="-384" on="0"/>
        <pt x="1027" y="-73" on="0"/>
        <pt x="878" y="-21" on="1"/>
        <pt x="522" y="8" on="0"/>
        <pt x="77" y="478" on="0"/>
        <pt x="77" y="850" on="1"/>
        <pt x="77" y="1247" on="0"/>
        <pt x="578" y="1739" on="0"/>
        <pt x="974" y="1739" on="1"/>
        <pt x="1370" y="1739" on="0"/>
        <pt x="1871" y="1247" on="0"/>
        <pt x="1871" y="850" on="1"/>
        <pt x="1871" y="497" on="0"/>
        <pt x="1468" y="36" on="0"/>
        <pt x="1140" y="-13" on="1"/>
      </contour>
    </TTGlyph>
    <TTGlyph name="R" xMin="36" yMin="-1" xMax="1795" yMax="1714">
      <contour>
        <pt x="749" y="942" on="1"/>
        <pt x="977" y="942" on="0"/>
        <pt x="1325" y="1021" on="0"/>
        <pt x="1325" y="1239" on="1"/>
        <pt x="1325" y="1461" on="0"/>
        <pt x="934" y="1538" on="0"/>
        <pt x="712" y="1538" on="1"/>
        <pt x="565" y="1538" on="1"/>
        <pt x="565" y="942" on="1"/>
      </contour>
      <contour>
        <pt x="1568" y="1249" on="1"/>
        <pt x="1568" y="1045" on="0"/>
        <pt x="1302" y="861" on="0"/>
        <pt x="1108" y="827" on="1"/>
        <pt x="1203" y="785" on="0"/>
        <pt x="1345" y="649" on="0"/>
        <pt x="1390" y="540" on="1"/>
        <pt x="1540" y="177" on="1"/>
        <pt x="1687" y="177" on="1"/>
        <pt x="1747" y="177" on="0"/>
        <pt x="1795" y="135" on="0"/>
        <pt x="1795" y="84" on="1"/>
        <pt x="1795" y="28" on="0"/>
        <pt x="1735" y="-1" on="0"/>
        <pt x="1688" y="-1" on="1"/>
        <pt x="1254" y="0" on="1"/>
        <pt x="1219" y="0" on="0"/>
        <pt x="1180" y="51" on="0"/>
        <pt x="1180" y="84" on="1"/>
        <pt x="1180" y="121" on="0"/>
        <pt x="1214" y="177" on="0"/>
        <pt x="1252" y="177" on="1"/>
        <pt x="1301" y="177" on="1"/>
        <pt x="1189" y="460" on="1"/>
        <pt x="1144" y="573" on="0"/>
        <pt x="941" y="764" on="0"/>
        <pt x="792" y="764" on="1"/>
        <pt x="565" y="764" on="1"/>
        <pt x="565" y="177" on="1"/>
        <pt x="829" y="177" on="1"/>
        <pt x="867" y="177" on="0"/>
        <pt x="901" y="121" on="0"/>
        <pt x="901" y="84" on="1"/>
        <pt x="901" y="51" on="0"/>
        <pt x="862" y="0" on="0"/>
        <pt x="827" y="0" on="1"/>
        <pt x="110" y="0" on="1"/>
        <pt x="75" y="0" on="0"/>
        <pt x="36" y="51" on="0"/>
        <pt x="36" y="84" on="1"/>
        <pt x="36" y="121" on="0"/>
        <pt x="70" y="177" on="0"/>
        <pt x="108" y="177" on="1"/>
        <pt x="331" y="177" on="1"/>
        <pt x="331" y="1538" on="1"/>
        <pt x="149" y="1538" on="1"/>
        <pt x="111" y="1538" on="0"/>
        <pt x="77" y="1593" on="0"/>
        <pt x="77" y="1630" on="1"/>
        <pt x="77" y="1663" on="0"/>
        <pt x="116" y="1714" on="0"/>
        <pt x="151" y="1714" on="1"/>
        <pt x="743" y="1714" on="1"/>
        <pt x="1068" y="1714" on="0"/>
        <pt x="1568" y="1569" on="0"/>
        <pt x="1568" y="1249" on="1"/>
      </contour>
    </TTGlyph>
    <TTGlyph name="Racute" xMin="36" yMin="-1" xMax="1795" yMax="2284">
      <component glyphName="glyph00367" x="36" y="0" flags="0x0"/>
      <component glyphName="R" x="0" y="0" flags="0x1204"/>
      <component glyphName="acute" x="654" y="414" flags="0x1004"/>
    </TTGlyph>
    <TTGlyph name="Rcaron" xMin="36" yMin="-1" xMax="1795" yMax="2340">
      <component glyphName="glyph00367" x="36" y="0" flags="0x0"/>
      <component glyphName="R" x="0" y="0" flags="0x1204"/>
      <component glyphName="caron" x="519" y="408" flags="0x1004"/>
    </TTGlyph>
    <TTGlyph name="Rcommaaccent" xMin="36" yMin="-726" xMax="1795" yMax="1714">
      <component glyphName="glyph00367" x="36" y="0" flags="0x0"/>
      <component glyphName="R" x="0" y="0" flags="0x1204"/>
      <component glyphName="comma" x="577" y="-350" flags="0x1004"/>
    </TTGlyph>
    <TTGlyph name="S" xMin="101" yMin="-27" xMax="1410" yMax="1739">
      <contour>
        <pt x="805" y="1581" on="1"/>
        <pt x="565" y="1581" on="0"/>
        <pt x="409" y="1400" on="0"/>
        <pt x="409" y="1287" on="1"/>
        <pt x="409" y="1190" on="0"/>
        <pt x="544" y="1071" on="0"/>
        <pt x="678" y="1038" on="1"/>
        <pt x="965" y="967" on="1"/>
        <pt x="1162" y="918" on="0"/>
        <pt x="1410" y="695" on="0"/>
        <pt x="1410" y="458" on="1"/>
        <pt x="1410" y="199" on="0"/>
        <pt x="1000" y="-27" on="0"/>
        <pt x="738" y="-27" on="1"/>
        <pt x="632" y="-27" on="0"/>
        <pt x="410" y="29" on="0"/>
        <pt x="314" y="95" on="1"/>
        <pt x="310" y="61" on="0"/>
        <pt x="276" y="-25" on="0"/>
        <pt x="242" y="-25" on="1"/>
        <pt x="206" y="-25" on="0"/>
        <pt x="162" y="5" on="0"/>
        <pt x="158" y="39" on="1"/>
        <pt x="101" y="535" on="1"/>
        <pt x="101" y="575" on="0"/>
        <pt x="149" y="614" on="0"/>
        <pt x="197" y="614" on="1"/>
        <pt x="227" y="614" on="0"/>
        <pt x="273" y="579" on="0"/>
        <pt x="277" y="549" on="1"/>
        <pt x="293" y="410" on="1"/>
        <pt x="303" y="317" on="0"/>
        <pt x="559" y="150" on="0"/>
        <pt x="713" y="150" on="1"/>
        <pt x="884" y="150" on="0"/>
        <pt x="1205" y="272" on="0"/>
        <pt x="1205" y="459" on="1"/>
        <pt x="1205" y="594" on="0"/>
        <pt x="1042" y="700" on="0"/>
        <pt x="930" y="732" on="1"/>
        <pt x="602" y="825" on="1"/>
        <pt x="423" y="865" on="0"/>
        <pt x="188" y="1070" on="0"/>
        <pt x="188" y="1271" on="1"/>
        <pt x="188" y="1490" on="0"/>
        <pt x="531" y="1739" on="0"/>
        <pt x="772" y="1739" on="1"/>
        <pt x="876" y="1739" on="0"/>
        <pt x="1095" y="1687" on="0"/>
        <pt x="1167" y="1627" on="1"/>
        <pt x="1167" y="1669" on="0"/>
        <pt x="1220" y="1738" on="0"/>
        <pt x="1261" y="1738" on="1"/>
        <pt x="1291" y="1738" on="0"/>
        <pt x="1337" y="1702" on="0"/>
        <pt x="1341" y="1672" on="1"/>
        <pt x="1348" y="1275" on="1"/>
        <pt x="1348" y="1232" on="0"/>
        <pt x="1296" y="1193" on="0"/>
        <pt x="1256" y="1193" on="1"/>
        <pt x="1221" y="1193" on="0"/>
        <pt x="1176" y="1223" on="0"/>
        <pt x="1172" y="1256" on="1"/>
        <pt x="1168" y="1372" on="1"/>
        <pt x="1155" y="1485" on="0"/>
        <pt x="933" y="1581" on="0"/>
        <pt x="805" y="1581" on="1"/>
      </contour>
    </TTGlyph>
    <TTGlyph name="Sacute" xMin="101" yMin="-27" xMax="1410" yMax="2288">
      <component glyphName="glyph00367" x="101" y="0" flags="0x0"/>
      <component glyphName="S" x="0" y="0" flags="0x1204"/>
      <component glyphName="acute" x="561" y="418" flags="0x1004"/>
    </TTGlyph>
    <TTGlyph name="Scaron" xMin="101" yMin="-27" xMax="1410" yMax="2344">
      <component glyphName="glyph00367" x="101" y="0" flags="0x0"/>
      <component glyphName="S" x="0" y="0" flags="0x1204"/>
      <component glyphName="caron" x="480" y="412" flags="0x1004"/>
    </TTGlyph>
    <TTGlyph name="Scedilla" xMin="101" yMin="-679" xMax="1410" yMax="1739">
      <component glyphName="glyph00367" x="101" y="0" flags="0x0"/>
      <component glyphName="S" x="0" y="0" flags="0x1204"/>
      <component glyphName="cedilla" x="538" y="-4" flags="0x1004"/>
    </TTGlyph>
    <TTGlyph name="Scommaaccent" xMin="101" yMin="-785" xMax="1410" yMax="1739">
      <component glyphName="glyph00367" x="101" y="0" flags="0x0"/>
      <component glyphName="S" x="0" y="0" flags="0x1204"/>
      <component glyphName="comma" x="454" y="-409" flags="0x1004"/>
    </TTGlyph>
    <TTGlyph name="T" xMin="34" yMin="0" xMax="1628" yMax="1714">
      <contour>
        <pt x="102" y="1184" on="1"/>
        <pt x="69" y="1184" on="0"/>
        <pt x="34" y="1228" on="0"/>
        <pt x="34" y="1264" on="1"/>
        <pt x="49" y="1636" on="1"/>
        <pt x="50" y="1675" on="0"/>
        <pt x="76" y="1714" on="0"/>
        <pt x="110" y="1714" on="1"/>
        <pt x="1552" y="1714" on="1"/>
        <pt x="1584" y="1714" on="0"/>
        <pt x="1612" y="1674" on="0"/>
        <pt x="1613" y="1636" on="1"/>
        <pt x="1628" y="1264" on="1"/>
        <pt x="1628" y="1228" on="0"/>
        <pt x="1593" y="1184" on="0"/>
        <pt x="1560" y="1184" on="1"/>
        <pt x="1525" y="1184" on="0"/>
        <pt x="1482" y="1214" on="0"/>
        <pt x="1478" y="1251" on="1"/>
        <pt x="1447" y="1538" on="1"/>
        <pt x="937" y="1538" on="1"/>
        <pt x="937" y="176" on="1"/>
        <pt x="1202" y="176" on="1"/>
        <pt x="1240" y="176" on="0"/>
        <pt x="1273" y="121" on="0"/>
        <pt x="1273" y="84" on="1"/>
        <pt x="1273" y="51" on="0"/>
        <pt x="1235" y="0" on="0"/>
        <pt x="1200" y="0" on="1"/>
        <pt x="442" y="0" on="1"/>
        <pt x="407" y="0" on="0"/>
        <pt x="368" y="51" on="0"/>
        <pt x="368" y="84" on="1"/>
        <pt x="368" y="121" on="0"/>
        <pt x="402" y="176" on="0"/>
        <pt x="440" y="176" on="1"/>
        <pt x="704" y="176" on="1"/>
        <pt x="704" y="1538" on="1"/>
        <pt x="214" y="1538" on="1"/>
        <pt x="184" y="1251" on="1"/>
        <pt x="180" y="1213" on="0"/>
        <pt x="137" y="1184" on="0"/>
        <pt x="102" y="1184" on="1"/>
      </contour>
    </TTGlyph>
    <TTGlyph name="Tcaron" xMin="34" yMin="0" xMax="1628" yMax="2340">
      <component glyphName="glyph00367" x="34" y="0" flags="0x0"/>
      <component glyphName="T" x="0" y="0" flags="0x1204"/>
      <component glyphName="caron" x="535" y="408" flags="0x1004"/>
    </TTGlyph>
    <TTGlyph name="Thorn" xMin="68" yMin="0" xMax="1545" yMax="1712">
      <contour>
        <pt x="1545" y="907" on="1"/>
        <pt x="1545" y="582" on="0"/>
        <pt x="960" y="460" on="0"/>
        <pt x="638" y="460" on="1"/>
        <pt x="638" y="176" on="1"/>
        <pt x="943" y="176" on="1"/>
        <pt x="981" y="176" on="0"/>
        <pt x="1015" y="121" on="0"/>
        <pt x="1015" y="84" on="1"/>
        <pt x="1015" y="51" on="0"/>
        <pt x="976" y="0" on="0"/>
        <pt x="941" y="0" on="1"/>
        <pt x="142" y="0" on="1"/>
        <pt x="107" y="0" on="0"/>
        <pt x="68" y="51" on="0"/>
        <pt x="68" y="84" on="1"/>
        <pt x="68" y="121" on="0"/>
        <pt x="102" y="176" on="0"/>
        <pt x="140" y="176" on="1"/>
        <pt x="404" y="176" on="1"/>
        <pt x="404" y="1536" on="1"/>
        <pt x="160" y="1536" on="1"/>
        <pt x="122" y="1536" on="0"/>
        <pt x="88" y="1591" on="0"/>
        <pt x="88" y="1628" on="1"/>
        <pt x="88" y="1661" on="0"/>
        <pt x="127" y="1712" on="0"/>
        <pt x="162" y="1712" on="1"/>
        <pt x="861" y="1712" on="1"/>
        <pt x="889" y="1712" on="0"/>
        <pt x="921" y="1661" on="0"/>
        <pt x="921" y="1628" on="1"/>
        <pt x="921" y="1591" on="0"/>
        <pt x="887" y="1536" on="0"/>
        <pt x="849" y="1536" on="1"/>
        <pt x="638" y="1536" on="1"/>
        <pt x="638" y="1359" on="1"/>
        <pt x="981" y="1359" on="0"/>
        <pt x="1545" y="1244" on="0"/>
        <pt x="1545" y="907" on="1"/>
      </contour>
      <contour>
        <pt x="1309" y="917" on="1"/>
        <pt x="1309" y="1110" on="0"/>
        <pt x="978" y="1191" on="0"/>
        <pt x="638" y="1191" on="1"/>
        <pt x="638" y="624" on="1"/>
        <pt x="987" y="624" on="0"/>
        <pt x="1309" y="707" on="0"/>
        <pt x="1309" y="917" on="1"/>
      </contour>
    </TTGlyph>
    <TTGlyph name="U" xMin="39" yMin="-25" xMax="1813" yMax="1714">
      <contour>
        <pt x="944" y="-25" on="1"/>
        <pt x="644" y="-25" on="0"/>
        <pt x="262" y="308" on="0"/>
        <pt x="262" y="604" on="1"/>
        <pt x="262" y="1538" on="1"/>
        <pt x="111" y="1538" on="1"/>
        <pt x="73" y="1538" on="0"/>
        <pt x="39" y="1593" on="0"/>
        <pt x="39" y="1630" on="1"/>
        <pt x="39" y="1663" on="0"/>
        <pt x="78" y="1714" on="0"/>
        <pt x="113" y="1714" on="1"/>
        <pt x="697" y="1714" on="1"/>
        <pt x="732" y="1714" on="0"/>
        <pt x="770" y="1663" on="0"/>
        <pt x="770" y="1630" on="1"/>
        <pt x="770" y="1593" on="0"/>
        <pt x="737" y="1538" on="0"/>
        <pt x="699" y="1538" on="1"/>
        <pt x="496" y="1538" on="1"/>
        <pt x="496" y="604" on="1"/>
        <pt x="496" y="391" on="0"/>
        <pt x="729" y="154" on="0"/>
        <pt x="944" y="154" on="1"/>
        <pt x="1140" y="154" on="0"/>
        <pt x="1375" y="406" on="0"/>
        <pt x="1375" y="602" on="1"/>
        <pt x="1375" y="1538" on="1"/>
        <pt x="1184" y="1538" on="1"/>
        <pt x="1146" y="1538" on="0"/>
        <pt x="1112" y="1593" on="0"/>
        <pt x="1112" y="1630" on="1"/>
        <pt x="1112" y="1663" on="0"/>
        <pt x="1151" y="1714" on="0"/>
        <pt x="1186" y="1714" on="1"/>
        <pt x="1739" y="1714" on="1"/>
        <pt x="1774" y="1714" on="0"/>
        <pt x="1813" y="1663" on="0"/>
        <pt x="1813" y="1630" on="1"/>
        <pt x="1813" y="1593" on="0"/>
        <pt x="1779" y="1538" on="0"/>
        <pt x="1741" y="1538" on="1"/>
        <pt x="1567" y="1538" on="1"/>
        <pt x="1567" y="602" on="1"/>
        <pt x="1567" y="324" on="0"/>
        <pt x="1221" y="-25" on="0"/>
        <pt x="944" y="-25" on="1"/>
      </contour>
    </TTGlyph>
    <TTGlyph name="Uacute" xMin="39" yMin="-25" xMax="1813" yMax="2284">
      <component glyphName="glyph00367" x="39" y="0" flags="0x0"/>
      <component glyphName="U" x="0" y="0" flags="0x1204"/>
      <component glyphName="acute" x="621" y="414" flags="0x1004"/>
    </TTGlyph>
    <TTGlyph name="Ubreve" xMin="39" yMin="-25" xMax="1813" yMax="2205">
      <component glyphName="glyph00367" x="39" y="0" flags="0x0"/>
      <component glyphName="U" x="0" y="0" flags="0x1204"/>
      <component glyphName="breve" x="630" y="305" flags="0x1004"/>
    </TTGlyph>
    <TTGlyph name="Ucircumflex" xMin="39" yMin="-25" xMax="1813" yMax="2340">
      <component glyphName="glyph00367" x="39" y="0" flags="0x0"/>
      <component glyphName="U" x="0" y="0" flags="0x1204"/>
      <component glyphName="circumflex" x="630" y="408" flags="0x1004"/>
    </TTGlyph>
    <TTGlyph name="Udieresis" xMin="39" yMin="-25" xMax="1813" yMax="2107">
      <component glyphName="glyph00367" x="39" y="0" flags="0x0"/>
      <component glyphName="U" x="0" y="0" flags="0x1204"/>
      <component glyphName="dieresis" x="482" y="409" flags="0x1004"/>
    </TTGlyph>
    <TTGlyph name="Ugrave" xMin="39" yMin="-25" xMax="1813" yMax="2284">
      <component glyphName="glyph00367" x="39" y="0" flags="0x0"/>
      <component glyphName="U" x="0" y="0" flags="0x1204"/>
      <component glyphName="grave" x="621" y="414" flags="0x1004"/>
    </TTGlyph>
    <TTGlyph name="Uhungarumlaut" xMin="39" yMin="-25" xMax="1813" yMax="2284">
      <component glyphName="glyph00367" x="39" y="0" flags="0x0"/>
      <component glyphName="U" x="0" y="0" flags="0x1204"/>
      <component glyphName="hungarumlaut" x="433" y="414" flags="0x1004"/>
    </TTGlyph>
    <TTGlyph name="Umacron" xMin="39" yMin="-25" xMax="1813" yMax="1997">
      <component glyphName="glyph00367" x="39" y="0" flags="0x0"/>
      <component glyphName="U" x="0" y="0" flags="0x1204"/>
      <component glyphName="macron" x="413" y="875" flags="0x1004"/>
    </TTGlyph>
    <TTGlyph name="Uogonek" xMin="39" yMin="-552" xMax="1813" yMax="1714">
      <component glyphName="glyph00367" x="39" y="0" flags="0x0"/>
      <component glyphName="U" x="0" y="0" flags="0x1204"/>
      <component glyphName="ogonek" x="719" y="-36" flags="0x1004"/>
    </TTGlyph>
    <TTGlyph name="Uring" xMin="39" yMin="-25" xMax="1813" yMax="2339">
      <component glyphName="glyph00367" x="39" y="0" flags="0x0"/>
      <component glyphName="U" x="0" y="0" flags="0x1204"/>
      <component glyphName="ring" x="772" y="1051" flags="0x1004"/>
    </TTGlyph>
    <TTGlyph name="Utilde" xMin="39" yMin="-25" xMax="1813" yMax="2159">
      <component glyphName="glyph00367" x="39" y="0" flags="0x0"/>
      <component glyphName="U" x="0" y="0" flags="0x1204"/>
      <component glyphName="tilde" x="419" y="829" flags="0x1004"/>
    </TTGlyph>
    <TTGlyph name="V" xMin="19" yMin="-53" xMax="1839" yMax="1714">
      <contour>
        <pt x="1839" y="1630" on="1"/>
        <pt x="1839" y="1593" on="0"/>
        <pt x="1806" y="1538" on="0"/>
        <pt x="1768" y="1538" on="1"/>
        <pt x="1598" y="1538" on="1"/>
        <pt x="1047" y="29" on="1"/>
        <pt x="1030" y="-10" on="0"/>
        <pt x="993" y="-53" on="0"/>
        <pt x="953" y="-53" on="1"/>
        <pt x="914" y="-53" on="0"/>
        <pt x="873" y="-7" on="0"/>
        <pt x="860" y="29" on="1"/>
        <pt x="301" y="1538" on="1"/>
        <pt x="90" y="1538" on="1"/>
        <pt x="52" y="1538" on="0"/>
        <pt x="19" y="1593" on="0"/>
        <pt x="19" y="1630" on="1"/>
        <pt x="19" y="1663" on="0"/>
        <pt x="57" y="1714" on="0"/>
        <pt x="92" y="1714" on="1"/>
        <pt x="707" y="1714" on="1"/>
        <pt x="742" y="1714" on="0"/>
        <pt x="781" y="1663" on="0"/>
        <pt x="781" y="1630" on="1"/>
        <pt x="781" y="1593" on="0"/>
        <pt x="747" y="1538" on="0"/>
        <pt x="709" y="1538" on="1"/>
        <pt x="547" y="1538" on="1"/>
        <pt x="981" y="332" on="1"/>
        <pt x="1393" y="1538" on="1"/>
        <pt x="1231" y="1538" on="1"/>
        <pt x="1193" y="1538" on="0"/>
        <pt x="1159" y="1593" on="0"/>
        <pt x="1159" y="1630" on="1"/>
        <pt x="1159" y="1663" on="0"/>
        <pt x="1198" y="1714" on="0"/>
        <pt x="1233" y="1714" on="1"/>
        <pt x="1766" y="1714" on="1"/>
        <pt x="1801" y="1714" on="0"/>
        <pt x="1839" y="1663" on="0"/>
        <pt x="1839" y="1630" on="1"/>
      </contour>
    </TTGlyph>
    <TTGlyph name="W" xMin="17" yMin="-27" xMax="2296" yMax="1714">
      <contour>
        <pt x="1655" y="1622" on="1"/>
        <pt x="1655" y="1659" on="0"/>
        <pt x="1689" y="1714" on="0"/>
        <pt x="1727" y="1714" on="1"/>
        <pt x="2224" y="1714" on="1"/>
        <pt x="2262" y="1714" on="0"/>
        <pt x="2296" y="1659" on="0"/>
        <pt x="2296" y="1622" on="1"/>
        <pt x="2296" y="1589" on="0"/>
        <pt x="2257" y="1538" on="0"/>
        <pt x="2222" y="1538" on="1"/>
        <pt x="2056" y="1538" on="1"/>
        <pt x="1620" y="39" on="1"/>
        <pt x="1610" y="12" on="0"/>
        <pt x="1547" y="-27" on="0"/>
        <pt x="1510" y="-27" on="1"/>
        <pt x="1472" y="-27" on="0"/>
        <pt x="1416" y="10" on="0"/>
        <pt x="1411" y="47" on="1"/>
        <pt x="1153" y="1135" on="1"/>
        <pt x="856" y="39" on="1"/>
        <pt x="846" y="11" on="0"/>
        <pt x="779" y="-27" on="0"/>
        <pt x="742" y="-27" on="1"/>
        <pt x="700" y="-27" on="0"/>
        <pt x="644" y="11" on="0"/>
        <pt x="637" y="51" on="1"/>
        <pt x="254" y="1538" on="1"/>
        <pt x="90" y="1538" on="1"/>
        <pt x="55" y="1538" on="0"/>
        <pt x="17" y="1589" on="0"/>
        <pt x="17" y="1622" on="1"/>
        <pt x="17" y="1659" on="0"/>
        <pt x="50" y="1714" on="0"/>
        <pt x="88" y="1714" on="1"/>
        <pt x="586" y="1714" on="1"/>
        <pt x="624" y="1714" on="0"/>
        <pt x="658" y="1659" on="0"/>
        <pt x="658" y="1622" on="1"/>
        <pt x="658" y="1589" on="0"/>
        <pt x="619" y="1538" on="0"/>
        <pt x="584" y="1538" on="1"/>
        <pt x="490" y="1538" on="1"/>
        <pt x="774" y="381" on="1"/>
        <pt x="1098" y="1538" on="1"/>
        <pt x="1006" y="1538" on="1"/>
        <pt x="971" y="1538" on="0"/>
        <pt x="932" y="1589" on="0"/>
        <pt x="932" y="1622" on="1"/>
        <pt x="932" y="1659" on="0"/>
        <pt x="966" y="1714" on="0"/>
        <pt x="1004" y="1714" on="1"/>
        <pt x="1358" y="1714" on="1"/>
        <pt x="1396" y="1714" on="0"/>
        <pt x="1430" y="1659" on="0"/>
        <pt x="1430" y="1622" on="1"/>
        <pt x="1430" y="1589" on="0"/>
        <pt x="1391" y="1538" on="0"/>
        <pt x="1356" y="1538" on="1"/>
        <pt x="1256" y="1538" on="1"/>
        <pt x="1534" y="401" on="1"/>
        <pt x="1850" y="1538" on="1"/>
        <pt x="1729" y="1538" on="1"/>
        <pt x="1694" y="1538" on="0"/>
        <pt x="1655" y="1589" on="0"/>
        <pt x="1655" y="1622" on="1"/>
      </contour>
    </TTGlyph>
    <TTGlyph name="X" xMin="19" yMin="0" xMax="1932" yMax="1714">
      <contour>
        <pt x="1911" y="1630" on="1"/>
        <pt x="1911" y="1593" on="0"/>
        <pt x="1877" y="1538" on="0"/>
        <pt x="1839" y="1538" on="1"/>
        <pt x="1673" y="1538" on="1"/>
        <pt x="1120" y="895" on="1"/>
        <pt x="1739" y="176" on="1"/>
        <pt x="1860" y="176" on="1"/>
        <pt x="1898" y="176" on="0"/>
        <pt x="1932" y="121" on="0"/>
        <pt x="1932" y="84" on="1"/>
        <pt x="1932" y="51" on="0"/>
        <pt x="1893" y="0" on="0"/>
        <pt x="1858" y="0" on="1"/>
        <pt x="1182" y="0" on="1"/>
        <pt x="1147" y="0" on="0"/>
        <pt x="1108" y="51" on="0"/>
        <pt x="1108" y="84" on="1"/>
        <pt x="1108" y="121" on="0"/>
        <pt x="1142" y="176" on="0"/>
        <pt x="1180" y="176" on="1"/>
        <pt x="1458" y="176" on="1"/>
        <pt x="979" y="731" on="1"/>
        <pt x="502" y="176" on="1"/>
        <pt x="750" y="176" on="1"/>
        <pt x="788" y="176" on="0"/>
        <pt x="821" y="121" on="0"/>
        <pt x="821" y="84" on="1"/>
        <pt x="821" y="51" on="0"/>
        <pt x="783" y="0" on="0"/>
        <pt x="748" y="0" on="1"/>
        <pt x="92" y="0" on="1"/>
        <pt x="57" y="0" on="0"/>
        <pt x="19" y="51" on="0"/>
        <pt x="19" y="84" on="1"/>
        <pt x="19" y="121" on="0"/>
        <pt x="52" y="176" on="0"/>
        <pt x="90" y="176" on="1"/>
        <pt x="273" y="176" on="1"/>
        <pt x="864" y="864" on="1"/>
        <pt x="287" y="1538" on="1"/>
        <pt x="152" y="1538" on="1"/>
        <pt x="114" y="1538" on="0"/>
        <pt x="80" y="1593" on="0"/>
        <pt x="80" y="1630" on="1"/>
        <pt x="80" y="1663" on="0"/>
        <pt x="119" y="1714" on="0"/>
        <pt x="154" y="1714" on="1"/>
        <pt x="748" y="1714" on="1"/>
        <pt x="783" y="1714" on="0"/>
        <pt x="821" y="1663" on="0"/>
        <pt x="821" y="1630" on="1"/>
        <pt x="821" y="1593" on="0"/>
        <pt x="788" y="1538" on="0"/>
        <pt x="750" y="1538" on="1"/>
        <pt x="568" y="1538" on="1"/>
        <pt x="1006" y="1028" on="1"/>
        <pt x="1444" y="1538" on="1"/>
        <pt x="1262" y="1538" on="1"/>
        <pt x="1224" y="1538" on="0"/>
        <pt x="1190" y="1593" on="0"/>
        <pt x="1190" y="1630" on="1"/>
        <pt x="1190" y="1663" on="0"/>
        <pt x="1229" y="1714" on="0"/>
        <pt x="1264" y="1714" on="1"/>
        <pt x="1837" y="1714" on="1"/>
        <pt x="1872" y="1714" on="0"/>
        <pt x="1911" y="1663" on="0"/>
        <pt x="1911" y="1630" on="1"/>
      </contour>
    </TTGlyph>
    <TTGlyph name="Y" xMin="63" yMin="0" xMax="1763" yMax="1714">
      <contour>
        <pt x="1763" y="1630" on="1"/>
        <pt x="1763" y="1593" on="0"/>
        <pt x="1729" y="1538" on="0"/>
        <pt x="1691" y="1538" on="1"/>
        <pt x="1552" y="1538" on="1"/>
        <pt x="1055" y="723" on="1"/>
        <pt x="1055" y="176" on="1"/>
        <pt x="1278" y="176" on="1"/>
        <pt x="1316" y="176" on="0"/>
        <pt x="1349" y="121" on="0"/>
        <pt x="1349" y="84" on="1"/>
        <pt x="1349" y="51" on="0"/>
        <pt x="1311" y="0" on="0"/>
        <pt x="1276" y="0" on="1"/>
        <pt x="559" y="0" on="1"/>
        <pt x="524" y="0" on="0"/>
        <pt x="485" y="51" on="0"/>
        <pt x="485" y="84" on="1"/>
        <pt x="485" y="121" on="0"/>
        <pt x="519" y="176" on="0"/>
        <pt x="557" y="176" on="1"/>
        <pt x="821" y="176" on="1"/>
        <pt x="821" y="739" on="1"/>
        <pt x="346" y="1538" on="1"/>
        <pt x="135" y="1538" on="1"/>
        <pt x="97" y="1538" on="0"/>
        <pt x="63" y="1593" on="0"/>
        <pt x="63" y="1630" on="1"/>
        <pt x="63" y="1663" on="0"/>
        <pt x="102" y="1714" on="0"/>
        <pt x="137" y="1714" on="1"/>
        <pt x="731" y="1714" on="1"/>
        <pt x="766" y="1714" on="0"/>
        <pt x="805" y="1663" on="0"/>
        <pt x="805" y="1630" on="1"/>
        <pt x="805" y="1593" on="0"/>
        <pt x="771" y="1538" on="0"/>
        <pt x="733" y="1538" on="1"/>
        <pt x="592" y="1538" on="1"/>
        <pt x="977" y="891" on="1"/>
        <pt x="1358" y="1538" on="1"/>
        <pt x="1196" y="1538" on="1"/>
        <pt x="1158" y="1538" on="0"/>
        <pt x="1124" y="1593" on="0"/>
        <pt x="1124" y="1630" on="1"/>
        <pt x="1124" y="1663" on="0"/>
        <pt x="1163" y="1714" on="0"/>
        <pt x="1198" y="1714" on="1"/>
        <pt x="1689" y="1714" on="1"/>
        <pt x="1724" y="1714" on="0"/>
        <pt x="1763" y="1663" on="0"/>
        <pt x="1763" y="1630" on="1"/>
      </contour>
    </TTGlyph>
    <TTGlyph name="Yacute" xMin="63" yMin="0" xMax="1763" yMax="2284">
      <component glyphName="glyph00367" x="63" y="0" flags="0x0"/>
      <component glyphName="Y" x="0" y="0" flags="0x1204"/>
      <component glyphName="acute" x="608" y="414" flags="0x1004"/>
    </TTGlyph>
    <TTGlyph name="Ydieresis" xMin="63" yMin="0" xMax="1763" yMax="2107">
      <component glyphName="glyph00367" x="63" y="0" flags="0x0"/>
      <component glyphName="Y" x="0" y="0" flags="0x1204"/>
      <component glyphName="dieresis" x="528" y="409" flags="0x1004"/>
    </TTGlyph>
    <TTGlyph name="Z" xMin="79" yMin="0" xMax="1566" yMax="1714">
      <contour>
        <pt x="151" y="1239" on="1"/>
        <pt x="150" y="1634" on="1"/>
        <pt x="151" y="1665" on="0"/>
        <pt x="195" y="1714" on="0"/>
        <pt x="253" y="1714" on="1"/>
        <pt x="1383" y="1714" on="1"/>
        <pt x="1418" y="1714" on="0"/>
        <pt x="1457" y="1663" on="0"/>
        <pt x="1457" y="1630" on="1"/>
        <pt x="1457" y="1610" on="0"/>
        <pt x="1450" y="1575" on="0"/>
        <pt x="1441" y="1565" on="1"/>
        <pt x="378" y="176" on="1"/>
        <pt x="1314" y="176" on="1"/>
        <pt x="1390" y="547" on="1"/>
        <pt x="1400" y="580" on="0"/>
        <pt x="1455" y="623" on="0"/>
        <pt x="1492" y="623" on="1"/>
        <pt x="1523" y="623" on="0"/>
        <pt x="1566" y="583" on="0"/>
        <pt x="1566" y="549" on="1"/>
        <pt x="1566" y="539" on="0"/>
        <pt x="1563" y="519" on="0"/>
        <pt x="1560" y="510" on="1"/>
        <pt x="1517" y="78" on="1"/>
        <pt x="1507" y="42" on="0"/>
        <pt x="1470" y="0" on="0"/>
        <pt x="1435" y="0" on="1"/>
        <pt x="155" y="0" on="1"/>
        <pt x="123" y="0" on="0"/>
        <pt x="79" y="65" on="0"/>
        <pt x="79" y="102" on="1"/>
        <pt x="79" y="128" on="0"/>
        <pt x="102" y="185" on="0"/>
        <pt x="124" y="213" on="1"/>
        <pt x="1142" y="1538" on="1"/>
        <pt x="345" y="1538" on="1"/>
        <pt x="306" y="1241" on="1"/>
        <pt x="296" y="1212" on="0"/>
        <pt x="255" y="1165" on="0"/>
        <pt x="224" y="1165" on="1"/>
        <pt x="193" y="1165" on="0"/>
        <pt x="151" y="1207" on="0"/>
        <pt x="151" y="1239" on="1"/>
      </contour>
    </TTGlyph>
    <TTGlyph name="Zacute" xMin="79" yMin="0" xMax="1566" yMax="2284">
      <component glyphName="glyph00367" x="79" y="0" flags="0x0"/>
      <component glyphName="Z" x="0" y="0" flags="0x1204"/>
      <component glyphName="acute" x="513" y="414" flags="0x1004"/>
    </TTGlyph>
    <TTGlyph name="Zcaron" xMin="79" yMin="0" xMax="1566" yMax="2340">
      <component glyphName="glyph00367" x="79" y="0" flags="0x0"/>
      <component glyphName="Z" x="0" y="0" flags="0x1204"/>
      <component glyphName="caron" x="522" y="408" flags="0x1004"/>
    </TTGlyph>
    <TTGlyph name="Zdotaccent" xMin="79" yMin="0" xMax="1566" yMax="2142">
      <component glyphName="glyph00367" x="79" y="0" flags="0x0"/>
      <component glyphName="Z" x="0" y="0" flags="0x1204"/>
      <component glyphName="dotaccent" x="667" y="1791" flags="0x1004"/>
    </TTGlyph>
    <TTGlyph name="a" xMin="62" yMin="-28" xMax="1343" yMax="1188">
      <contour>
        <pt x="1343" y="168" on="1"/>
        <pt x="1343" y="88" on="0"/>
        <pt x="1131" y="-25" on="0"/>
        <pt x="1063" y="-25" on="1"/>
        <pt x="981" y="-25" on="0"/>
        <pt x="881" y="55" on="0"/>
        <pt x="863" y="137" on="1"/>
        <pt x="790" y="53" on="0"/>
        <pt x="554" y="-28" on="0"/>
        <pt x="420" y="-28" on="1"/>
        <pt x="267" y="-28" on="0"/>
        <pt x="62" y="158" on="0"/>
        <pt x="62" y="307" on="1"/>
        <pt x="62" y="575" on="0"/>
        <pt x="586" y="695" on="0"/>
        <pt x="836" y="717" on="1"/>
        <pt x="836" y="879" on="1"/>
        <pt x="836" y="957" on="0"/>
        <pt x="702" y="1018" on="0"/>
        <pt x="625" y="1018" on="1"/>
        <pt x="485" y="1018" on="0"/>
        <pt x="340" y="958" on="0"/>
        <pt x="244" y="897" on="1"/>
        <pt x="235" y="892" on="0"/>
        <pt x="218" y="886" on="0"/>
        <pt x="209" y="886" on="1"/>
        <pt x="175" y="886" on="0"/>
        <pt x="121" y="950" on="0"/>
        <pt x="121" y="985" on="1"/>
        <pt x="121" y="1105" on="0"/>
        <pt x="472" y="1188" on="0"/>
        <pt x="596" y="1188" on="1"/>
        <pt x="849" y="1188" on="0"/>
        <pt x="1035" y="973" on="0"/>
        <pt x="1035" y="723" on="1"/>
        <pt x="1035" y="219" on="1"/>
        <pt x="1035" y="188" on="0"/>
        <pt x="1056" y="147" on="0"/>
        <pt x="1079" y="147" on="1"/>
        <pt x="1124" y="147" on="0"/>
        <pt x="1236" y="255" on="0"/>
        <pt x="1272" y="255" on="1"/>
        <pt x="1294" y="255" on="0"/>
        <pt x="1343" y="196" on="0"/>
        <pt x="1343" y="168" on="1"/>
      </contour>
      <contour>
        <pt x="836" y="567" on="1"/>
        <pt x="678" y="550" on="0"/>
        <pt x="277" y="481" on="0"/>
        <pt x="277" y="313" on="1"/>
        <pt x="277" y="228" on="0"/>
        <pt x="403" y="145" on="0"/>
        <pt x="490" y="145" on="1"/>
        <pt x="594" y="145" on="0"/>
        <pt x="767" y="222" on="0"/>
        <pt x="836" y="276" on="1"/>
      </contour>
    </TTGlyph>
    <TTGlyph name="aacute" xMin="62" yMin="-28" xMax="1343" yMax="1733">
      <component glyphName="glyph00367" x="62" y="0" flags="0x0"/>
      <component glyphName="a" x="0" y="0" flags="0x1204"/>
      <component glyphName="acute" x="291" y="-137" flags="0x1004"/>
    </TTGlyph>
    <TTGlyph name="abreve" xMin="62" yMin="-28" xMax="1343" yMax="1654">
      <component glyphName="glyph00367" x="62" y="0" flags="0x0"/>
      <component glyphName="a" x="0" y="0" flags="0x1204"/>
      <component glyphName="breve" x="300" y="-246" flags="0x1004"/>
    </TTGlyph>
    <TTGlyph name="acircumflex" xMin="62" yMin="-28" xMax="1343" yMax="1789">
      <component glyphName="glyph00367" x="62" y="0" flags="0x0"/>
      <component glyphName="a" x="0" y="0" flags="0x1204"/>
      <component glyphName="circumflex" x="300" y="-143" flags="0x1004"/>
    </TTGlyph>
    <TTGlyph name="acute" xMin="9" yMin="1427" xMax="601" yMax="1870">
      <contour>
        <pt x="517" y="1870" on="1"/>
        <pt x="548" y="1870" on="0"/>
        <pt x="601" y="1817" on="0"/>
        <pt x="601" y="1786" on="1"/>
        <pt x="601" y="1773" on="0"/>
        <pt x="588" y="1750" on="0"/>
        <pt x="575" y="1741" on="1"/>
        <pt x="457" y="1667" on="0"/>
        <pt x="199" y="1503" on="0"/>
        <pt x="77" y="1434" on="1"/>
        <pt x="72" y="1431" on="0"/>
        <pt x="62" y="1427" on="0"/>
        <pt x="58" y="1427" on="1"/>
        <pt x="39" y="1427" on="0"/>
        <pt x="9" y="1460" on="0"/>
        <pt x="9" y="1479" on="1"/>
        <pt x="9" y="1489" on="0"/>
        <pt x="18" y="1504" on="0"/>
        <pt x="26" y="1509" on="1"/>
        <pt x="138" y="1584" on="0"/>
        <pt x="375" y="1768" on="0"/>
        <pt x="476" y="1855" on="1"/>
        <pt x="484" y="1862" on="0"/>
        <pt x="505" y="1870" on="0"/>
        <pt x="517" y="1870" on="1"/>
      </contour>
    </TTGlyph>
    <TTGlyph name="adieresis" xMin="62" yMin="-28" xMax="1343" yMax="1556">
      <component glyphName="glyph00367" x="62" y="0" flags="0x0"/>
      <component glyphName="a" x="0" y="0" flags="0x1204"/>
      <component glyphName="dieresis" x="152" y="-142" flags="0x1004"/>
    </TTGlyph>
    <TTGlyph name="ae" xMin="88" yMin="-25" xMax="1918" yMax="1188">
      <contour>
        <pt x="1029" y="967" on="1"/>
        <pt x="1090" y="1069" on="0"/>
        <pt x="1303" y="1188" on="0"/>
        <pt x="1454" y="1188" on="1"/>
        <pt x="1638" y="1188" on="0"/>
        <pt x="1915" y="928" on="0"/>
        <pt x="1915" y="728" on="1"/>
        <pt x="1915" y="660" on="0"/>
        <pt x="1819" y="634" on="0"/>
        <pt x="1752" y="627" on="1"/>
        <pt x="1109" y="580" on="1"/>
        <pt x="1113" y="399" on="0"/>
        <pt x="1312" y="174" on="0"/>
        <pt x="1477" y="174" on="1"/>
        <pt x="1584" y="174" on="0"/>
        <pt x="1710" y="261" on="0"/>
        <pt x="1762" y="314" on="1"/>
        <pt x="1775" y="327" on="0"/>
        <pt x="1805" y="340" on="0"/>
        <pt x="1821" y="340" on="1"/>
        <pt x="1861" y="340" on="0"/>
        <pt x="1918" y="291" on="0"/>
        <pt x="1918" y="250" on="1"/>
        <pt x="1918" y="127" on="0"/>
        <pt x="1606" y="-25" on="0"/>
        <pt x="1477" y="-25" on="1"/>
        <pt x="1321" y="-25" on="0"/>
        <pt x="1054" y="132" on="0"/>
        <pt x="997" y="269" on="1"/>
        <pt x="943" y="109" on="0"/>
        <pt x="660" y="-25" on="0"/>
        <pt x="506" y="-25" on="1"/>
        <pt x="332" y="-25" on="0"/>
        <pt x="88" y="144" on="0"/>
        <pt x="88" y="307" on="1"/>
        <pt x="88" y="571" on="0"/>
        <pt x="639" y="689" on="0"/>
        <pt x="902" y="711" on="1"/>
        <pt x="902" y="863" on="0"/>
        <pt x="808" y="1018" on="0"/>
        <pt x="651" y="1018" on="1"/>
        <pt x="500" y="1018" on="0"/>
        <pt x="382" y="897" on="0"/>
        <pt x="246" y="897" on="1"/>
        <pt x="204" y="897" on="0"/>
        <pt x="148" y="941" on="0"/>
        <pt x="148" y="985" on="1"/>
        <pt x="148" y="1105" on="0"/>
        <pt x="499" y="1188" on="0"/>
        <pt x="623" y="1188" on="1"/>
        <pt x="792" y="1188" on="0"/>
        <pt x="983" y="1083" on="0"/>
        <pt x="1029" y="967" on="1"/>
      </contour>
      <contour>
        <pt x="900" y="576" on="1"/>
        <pt x="731" y="558" on="0"/>
        <pt x="303" y="487" on="0"/>
        <pt x="303" y="313" on="1"/>
        <pt x="303" y="228" on="0"/>
        <pt x="429" y="145" on="0"/>
        <pt x="516" y="145" on="1"/>
        <pt x="789" y="145" on="0"/>
        <pt x="900" y="459" on="0"/>
        <pt x="900" y="540" on="1"/>
        <pt x="900" y="568" on="1"/>
      </contour>
      <contour>
        <pt x="1409" y="1018" on="1"/>
        <pt x="1287" y="1018" on="0"/>
        <pt x="1105" y="868" on="0"/>
        <pt x="1105" y="731" on="1"/>
        <pt x="1105" y="724" on="0"/>
        <pt x="1106" y="713" on="0"/>
        <pt x="1109" y="707" on="1"/>
        <pt x="1615" y="747" on="1"/>
        <pt x="1643" y="751" on="0"/>
        <pt x="1689" y="766" on="0"/>
        <pt x="1689" y="790" on="1"/>
        <pt x="1689" y="909" on="0"/>
        <pt x="1526" y="1018" on="0"/>
        <pt x="1409" y="1018" on="1"/>
      </contour>
    </TTGlyph>
    <TTGlyph name="agrave" xMin="62" yMin="-28" xMax="1343" yMax="1733">
      <component glyphName="glyph00367" x="62" y="0" flags="0x0"/>
      <component glyphName="a" x="0" y="0" flags="0x1204"/>
      <component glyphName="grave" x="291" y="-137" flags="0x1004"/>
    </TTGlyph>
    <TTGlyph name="amacron" xMin="62" yMin="-28" xMax="1343" yMax="1446">
      <component glyphName="glyph00367" x="62" y="0" flags="0x0"/>
      <component glyphName="a" x="0" y="0" flags="0x1204"/>
      <component glyphName="macron" x="83" y="324" flags="0x1004"/>
    </TTGlyph>
    <TTGlyph name="ampersand" xMin="87" yMin="-53" xMax="1652" yMax="1741">
      <contour>
        <pt x="395" y="932" on="1"/>
        <pt x="338" y="1025" on="0"/>
        <pt x="216" y="1248" on="0"/>
        <pt x="216" y="1370" on="1"/>
        <pt x="216" y="1533" on="0"/>
        <pt x="404" y="1741" on="0"/>
        <pt x="562" y="1741" on="1"/>
        <pt x="730" y="1741" on="0"/>
        <pt x="927" y="1530" on="0"/>
        <pt x="927" y="1366" on="1"/>
        <pt x="927" y="1188" on="0"/>
        <pt x="755" y="988" on="0"/>
        <pt x="645" y="912" on="1"/>
        <pt x="673" y="876" on="0"/>
        <pt x="731" y="810" on="0"/>
        <pt x="757" y="780" on="1"/>
        <pt x="835" y="685" on="0"/>
        <pt x="1013" y="504" on="0"/>
        <pt x="1112" y="423" on="1"/>
        <pt x="1163" y="504" on="0"/>
        <pt x="1223" y="698" on="0"/>
        <pt x="1229" y="797" on="1"/>
        <pt x="1093" y="797" on="1"/>
        <pt x="1058" y="797" on="0"/>
        <pt x="1019" y="848" on="0"/>
        <pt x="1019" y="881" on="1"/>
        <pt x="1019" y="918" on="0"/>
        <pt x="1053" y="973" on="0"/>
        <pt x="1091" y="973" on="1"/>
        <pt x="1566" y="973" on="1"/>
        <pt x="1604" y="973" on="0"/>
        <pt x="1637" y="918" on="0"/>
        <pt x="1637" y="881" on="1"/>
        <pt x="1637" y="848" on="0"/>
        <pt x="1599" y="797" on="0"/>
        <pt x="1564" y="797" on="1"/>
        <pt x="1403" y="797" on="1"/>
        <pt x="1396" y="657" on="0"/>
        <pt x="1308" y="416" on="0"/>
        <pt x="1243" y="323" on="1"/>
        <pt x="1311" y="275" on="0"/>
        <pt x="1456" y="190" on="0"/>
        <pt x="1531" y="154" on="1"/>
        <pt x="1574" y="133" on="0"/>
        <pt x="1652" y="104" on="0"/>
        <pt x="1652" y="43" on="1"/>
        <pt x="1652" y="-4" on="0"/>
        <pt x="1580" y="-53" on="0"/>
        <pt x="1535" y="-53" on="1"/>
        <pt x="1516" y="-53" on="0"/>
        <pt x="1485" y="-46" on="0"/>
        <pt x="1472" y="-39" on="1"/>
        <pt x="1379" y="7" on="0"/>
        <pt x="1197" y="113" on="0"/>
        <pt x="1112" y="173" on="1"/>
        <pt x="1023" y="92" on="0"/>
        <pt x="779" y="-27" on="0"/>
        <pt x="630" y="-27" on="1"/>
        <pt x="387" y="-27" on="0"/>
        <pt x="87" y="272" on="0"/>
        <pt x="87" y="510" on="1"/>
        <pt x="87" y="676" on="0"/>
        <pt x="278" y="860" on="0"/>
        <pt x="395" y="932" on="1"/>
      </contour>
      <contour>
        <pt x="482" y="798" on="1"/>
        <pt x="423" y="752" on="0"/>
        <pt x="314" y="628" on="0"/>
        <pt x="314" y="528" on="1"/>
        <pt x="314" y="356" on="0"/>
        <pt x="503" y="156" on="0"/>
        <pt x="669" y="156" on="1"/>
        <pt x="759" y="156" on="0"/>
        <pt x="917" y="218" on="0"/>
        <pt x="981" y="271" on="1"/>
        <pt x="838" y="384" on="0"/>
        <pt x="585" y="651" on="0"/>
        <pt x="482" y="798" on="1"/>
      </contour>
      <contour>
        <pt x="555" y="1034" on="1"/>
        <pt x="633" y="1091" on="0"/>
        <pt x="740" y="1241" on="0"/>
        <pt x="740" y="1356" on="1"/>
        <pt x="740" y="1436" on="0"/>
        <pt x="655" y="1573" on="0"/>
        <pt x="577" y="1573" on="1"/>
        <pt x="503" y="1573" on="0"/>
        <pt x="433" y="1454" on="0"/>
        <pt x="433" y="1382" on="1"/>
        <pt x="433" y="1289" on="0"/>
        <pt x="504" y="1112" on="0"/>
        <pt x="555" y="1034" on="1"/>
      </contour>
    </TTGlyph>
    <TTGlyph name="aogonek" xMin="62" yMin="-556" xMax="1343" yMax="1188">
      <component glyphName="glyph00367" x="62" y="0" flags="0x0"/>
      <component glyphName="a" x="0" y="0" flags="0x1204"/>
      <component glyphName="ogonek" x="813" y="-40" flags="0x1004"/>
    </TTGlyph>
    <TTGlyph name="aring" xMin="62" yMin="-28" xMax="1343" yMax="1788">
      <component glyphName="glyph00367" x="62" y="0" flags="0x0"/>
      <component glyphName="a" x="0" y="0" flags="0x1204"/>
      <component glyphName="ring" x="442" y="500" flags="0x1004"/>
    </TTGlyph>
    <TTGlyph name="asciicircum" xMin="184" yMin="567" xMax="1124" yMax="1511">
      <contour>
        <pt x="1124" y="639" on="1"/>
        <pt x="1124" y="611" on="0"/>
        <pt x="1081" y="573" on="0"/>
        <pt x="1054" y="573" on="1"/>
        <pt x="1031" y="573" on="0"/>
        <pt x="997" y="600" on="0"/>
        <pt x="989" y="618" on="1"/>
        <pt x="690" y="1257" on="1"/>
        <pt x="364" y="623" on="1"/>
        <pt x="351" y="601" on="0"/>
        <pt x="310" y="567" on="0"/>
        <pt x="280" y="567" on="1"/>
        <pt x="243" y="567" on="0"/>
        <pt x="184" y="619" on="0"/>
        <pt x="184" y="657" on="1"/>
        <pt x="184" y="665" on="0"/>
        <pt x="189" y="686" on="0"/>
        <pt x="194" y="698" on="1"/>
        <pt x="546" y="1411" on="1"/>
        <pt x="565" y="1448" on="0"/>
        <pt x="618" y="1511" on="0"/>
        <pt x="661" y="1511" on="1"/>
        <pt x="701" y="1511" on="0"/>
        <pt x="752" y="1450" on="0"/>
        <pt x="767" y="1419" on="1"/>
        <pt x="1116" y="674" on="1"/>
        <pt x="1120" y="666" on="0"/>
        <pt x="1124" y="648" on="0"/>
        <pt x="1124" y="639" on="1"/>
      </contour>
    </TTGlyph>
    <TTGlyph name="asciitilde" xMin="159" yMin="992" xMax="1181" yMax="1350">
      <contour>
        <pt x="159" y="1065" on="1"/>
        <pt x="159" y="1189" on="0"/>
        <pt x="288" y="1350" on="0"/>
        <pt x="379" y="1350" on="1"/>
        <pt x="558" y="1350" on="0"/>
        <pt x="820" y="1168" on="0"/>
        <pt x="884" y="1168" on="1"/>
        <pt x="990" y="1168" on="0"/>
        <pt x="1050" y="1330" on="0"/>
        <pt x="1107" y="1330" on="1"/>
        <pt x="1136" y="1330" on="0"/>
        <pt x="1181" y="1303" on="0"/>
        <pt x="1181" y="1276" on="1"/>
        <pt x="1181" y="1151" on="0"/>
        <pt x="1029" y="992" on="0"/>
        <pt x="922" y="992" on="1"/>
        <pt x="776" y="992" on="0"/>
        <pt x="505" y="1173" on="0"/>
        <pt x="409" y="1173" on="1"/>
        <pt x="320" y="1173" on="0"/>
        <pt x="275" y="1012" on="0"/>
        <pt x="232" y="1012" on="1"/>
        <pt x="204" y="1012" on="0"/>
        <pt x="159" y="1038" on="0"/>
        <pt x="159" y="1065" on="1"/>
      </contour>
    </TTGlyph>
    <TTGlyph name="asterisk" xMin="157" yMin="381" xMax="1492" yMax="1585">
      <contour>
        <pt x="1402" y="1104" on="1"/>
        <pt x="1447" y="1104" on="0"/>
        <pt x="1492" y="1027" on="0"/>
        <pt x="1492" y="983" on="1"/>
        <pt x="1492" y="939" on="0"/>
        <pt x="1447" y="862" on="0"/>
        <pt x="1402" y="862" on="1"/>
        <pt x="1040" y="905" on="1"/>
        <pt x="1005" y="908" on="0"/>
        <pt x="966" y="950" on="0"/>
        <pt x="966" y="983" on="1"/>
        <pt x="966" y="1016" on="0"/>
        <pt x="1005" y="1058" on="0"/>
        <pt x="1040" y="1061" on="1"/>
      </contour>
      <contour>
        <pt x="247" y="862" on="1"/>
        <pt x="202" y="862" on="0"/>
        <pt x="157" y="939" on="0"/>
        <pt x="157" y="983" on="1"/>
        <pt x="157" y="1027" on="0"/>
        <pt x="202" y="1104" on="0"/>
        <pt x="247" y="1104" on="1"/>
        <pt x="609" y="1061" on="1"/>
        <pt x="644" y="1058" on="0"/>
        <pt x="683" y="1016" on="0"/>
        <pt x="683" y="983" on="1"/>
        <pt x="683" y="950" on="0"/>
        <pt x="644" y="908" on="0"/>
        <pt x="609" y="905" on="1"/>
      </contour>
      <contour>
        <pt x="1226" y="504" on="1"/>
        <pt x="1226" y="453" on="0"/>
        <pt x="1129" y="381" on="0"/>
        <pt x="1078" y="381" on="1"/>
        <pt x="1052" y="381" on="0"/>
        <pt x="1014" y="403" on="0"/>
        <pt x="1005" y="422" on="1"/>
        <pt x="863" y="758" on="1"/>
        <pt x="859" y="767" on="0"/>
        <pt x="855" y="787" on="0"/>
        <pt x="855" y="797" on="1"/>
        <pt x="855" y="829" on="0"/>
        <pt x="902" y="870" on="0"/>
        <pt x="933" y="870" on="1"/>
        <pt x="957" y="870" on="0"/>
        <pt x="986" y="851" on="0"/>
        <pt x="999" y="834" on="1"/>
        <pt x="1216" y="541" on="1"/>
        <pt x="1221" y="531" on="0"/>
        <pt x="1226" y="512" on="0"/>
        <pt x="1226" y="504" on="1"/>
      </contour>
      <contour>
        <pt x="423" y="1462" on="1"/>
        <pt x="423" y="1514" on="0"/>
        <pt x="519" y="1585" on="0"/>
        <pt x="571" y="1585" on="1"/>
        <pt x="596" y="1585" on="0"/>
        <pt x="633" y="1564" on="0"/>
        <pt x="644" y="1544" on="1"/>
        <pt x="786" y="1208" on="1"/>
        <pt x="790" y="1199" on="0"/>
        <pt x="794" y="1179" on="0"/>
        <pt x="794" y="1169" on="1"/>
        <pt x="794" y="1145" on="0"/>
        <pt x="770" y="1116" on="0"/>
        <pt x="755" y="1106" on="1"/>
        <pt x="734" y="1098" on="1"/>
        <pt x="729" y="1096" on="0"/>
        <pt x="719" y="1094" on="0"/>
        <pt x="714" y="1094" on="1"/>
        <pt x="697" y="1094" on="0"/>
        <pt x="664" y="1114" on="0"/>
        <pt x="650" y="1133" on="1"/>
        <pt x="433" y="1425" on="1"/>
        <pt x="428" y="1435" on="0"/>
        <pt x="423" y="1454" on="0"/>
        <pt x="423" y="1462" on="1"/>
      </contour>
      <contour>
        <pt x="569" y="381" on="1"/>
        <pt x="516" y="381" on="0"/>
        <pt x="421" y="452" on="0"/>
        <pt x="421" y="504" on="1"/>
        <pt x="421" y="512" on="0"/>
        <pt x="426" y="531" on="0"/>
        <pt x="431" y="541" on="1"/>
        <pt x="648" y="834" on="1"/>
        <pt x="661" y="851" on="0"/>
        <pt x="688" y="870" on="0"/>
        <pt x="712" y="870" on="1"/>
        <pt x="743" y="870" on="0"/>
        <pt x="792" y="829" on="0"/>
        <pt x="792" y="797" on="1"/>
        <pt x="792" y="787" on="0"/>
        <pt x="788" y="767" on="0"/>
        <pt x="784" y="758" on="1"/>
        <pt x="642" y="422" on="1"/>
        <pt x="631" y="402" on="0"/>
        <pt x="594" y="381" on="0"/>
        <pt x="569" y="381" on="1"/>
      </contour>
      <contour>
        <pt x="1076" y="1585" on="1"/>
        <pt x="1127" y="1585" on="0"/>
        <pt x="1224" y="1512" on="0"/>
        <pt x="1224" y="1462" on="1"/>
        <pt x="1224" y="1454" on="0"/>
        <pt x="1219" y="1435" on="0"/>
        <pt x="1214" y="1425" on="1"/>
        <pt x="997" y="1133" on="1"/>
        <pt x="983" y="1114" on="0"/>
        <pt x="950" y="1094" on="0"/>
        <pt x="931" y="1094" on="1"/>
        <pt x="900" y="1094" on="0"/>
        <pt x="853" y="1138" on="0"/>
        <pt x="853" y="1169" on="1"/>
        <pt x="853" y="1179" on="0"/>
        <pt x="857" y="1199" on="0"/>
        <pt x="861" y="1208" on="1"/>
        <pt x="1003" y="1544" on="1"/>
        <pt x="1012" y="1563" on="0"/>
        <pt x="1050" y="1585" on="0"/>
        <pt x="1076" y="1585" on="1"/>
      </contour>
    </TTGlyph>
    <TTGlyph name="at" xMin="35" yMin="-326" xMax="2235" yMax="1896">
      <contour>
        <pt x="1469" y="1208" on="1"/>
        <pt x="1484" y="1251" on="0"/>
        <pt x="1546" y="1360" on="0"/>
        <pt x="1602" y="1360" on="1"/>
        <pt x="1624" y="1360" on="0"/>
        <pt x="1657" y="1366" on="0"/>
        <pt x="1674" y="1366" on="1"/>
        <pt x="1679" y="1366" on="0"/>
        <pt x="1684" y="1361" on="0"/>
        <pt x="1684" y="1356" on="1"/>
        <pt x="1684" y="1321" on="0"/>
        <pt x="1660" y="1254" on="0"/>
        <pt x="1649" y="1208" on="1"/>
        <pt x="1504" y="580" on="1"/>
        <pt x="1500" y="567" on="0"/>
        <pt x="1496" y="536" on="0"/>
        <pt x="1496" y="520" on="1"/>
        <pt x="1496" y="450" on="0"/>
        <pt x="1583" y="377" on="0"/>
        <pt x="1659" y="377" on="1"/>
        <pt x="1876" y="377" on="0"/>
        <pt x="2059" y="793" on="0"/>
        <pt x="2059" y="1016" on="1"/>
        <pt x="2059" y="1353" on="0"/>
        <pt x="1604" y="1737" on="0"/>
        <pt x="1258" y="1737" on="1"/>
        <pt x="816" y="1737" on="0"/>
        <pt x="224" y="1112" on="0"/>
        <pt x="224" y="672" on="1"/>
        <pt x="224" y="285" on="0"/>
        <pt x="761" y="-176" on="0"/>
        <pt x="1147" y="-176" on="1"/>
        <pt x="1440" y="-176" on="0"/>
        <pt x="1794" y="15" on="0"/>
        <pt x="1965" y="125" on="1"/>
        <pt x="1972" y="131" on="0"/>
        <pt x="1990" y="137" on="0"/>
        <pt x="2001" y="137" on="1"/>
        <pt x="2024" y="137" on="0"/>
        <pt x="2065" y="101" on="0"/>
        <pt x="2065" y="78" on="1"/>
        <pt x="2065" y="70" on="0"/>
        <pt x="2058" y="51" on="0"/>
        <pt x="2051" y="41" on="1"/>
        <pt x="1918" y="-128" on="0"/>
        <pt x="1413" y="-326" on="0"/>
        <pt x="1117" y="-326" on="1"/>
        <pt x="874" y="-326" on="0"/>
        <pt x="485" y="-164" on="0"/>
        <pt x="352" y="-44" on="1"/>
        <pt x="221" y="75" on="0"/>
        <pt x="35" y="436" on="0"/>
        <pt x="35" y="674" on="1"/>
        <pt x="35" y="849" on="0"/>
        <pt x="128" y="1150" on="0"/>
        <pt x="197" y="1269" on="1"/>
        <pt x="337" y="1515" on="0"/>
        <pt x="853" y="1896" on="0"/>
        <pt x="1231" y="1896" on="1"/>
        <pt x="1474" y="1896" on="0"/>
        <pt x="1850" y="1731" on="0"/>
        <pt x="1974" y="1609" on="1"/>
        <pt x="2078" y="1507" on="0"/>
        <pt x="2235" y="1205" on="0"/>
        <pt x="2235" y="1022" on="1"/>
        <pt x="2235" y="712" on="0"/>
        <pt x="1947" y="238" on="0"/>
        <pt x="1639" y="238" on="1"/>
        <pt x="1536" y="238" on="0"/>
        <pt x="1414" y="340" on="0"/>
        <pt x="1389" y="416" on="1"/>
        <pt x="1336" y="342" on="0"/>
        <pt x="1160" y="217" on="0"/>
        <pt x="1035" y="217" on="1"/>
        <pt x="835" y="217" on="0"/>
        <pt x="621" y="473" on="0"/>
        <pt x="621" y="674" on="1"/>
        <pt x="621" y="906" on="0"/>
        <pt x="925" y="1315" on="0"/>
        <pt x="1158" y="1315" on="1"/>
        <pt x="1257" y="1315" on="0"/>
        <pt x="1414" y="1251" on="0"/>
        <pt x="1469" y="1208" on="1"/>
      </contour>
      <contour>
        <pt x="1197" y="1163" on="1"/>
        <pt x="1001" y="1163" on="0"/>
        <pt x="814" y="860" on="0"/>
        <pt x="814" y="662" on="1"/>
        <pt x="814" y="552" on="0"/>
        <pt x="933" y="377" on="0"/>
        <pt x="1043" y="377" on="1"/>
        <pt x="1266" y="377" on="0"/>
        <pt x="1383" y="715" on="0"/>
        <pt x="1414" y="907" on="1"/>
        <pt x="1426" y="981" on="1"/>
        <pt x="1426" y="1057" on="0"/>
        <pt x="1275" y="1163" on="0"/>
        <pt x="1197" y="1163" on="1"/>
      </contour>
    </TTGlyph>
    <TTGlyph name="atilde" xMin="62" yMin="-28" xMax="1343" yMax="1608">
      <component glyphName="glyph00367" x="62" y="0" flags="0x0"/>
      <component glyphName="a" x="0" y="0" flags="0x1204"/>
      <component glyphName="tilde" x="89" y="278" flags="0x1004"/>
    </TTGlyph>
    <TTGlyph name="b" xMin="-101" yMin="-25" xMax="1347" yMax="1739">
      <contour>
        <pt x="1126" y="582" on="1"/>
        <pt x="1126" y="755" on="0"/>
        <pt x="955" y="1018" on="0"/>
        <pt x="786" y="1018" on="1"/>
        <pt x="665" y="1018" on="0"/>
        <pt x="490" y="944" on="0"/>
        <pt x="430" y="881" on="1"/>
        <pt x="430" y="324" on="1"/>
        <pt x="483" y="247" on="0"/>
        <pt x="654" y="145" on="0"/>
        <pt x="776" y="145" on="1"/>
        <pt x="950" y="145" on="0"/>
        <pt x="1126" y="407" on="0"/>
        <pt x="1126" y="582" on="1"/>
      </contour>
      <contour>
        <pt x="1347" y="582" on="1"/>
        <pt x="1347" y="317" on="0"/>
        <pt x="1051" y="-25" on="0"/>
        <pt x="790" y="-25" on="1"/>
        <pt x="667" y="-25" on="0"/>
        <pt x="472" y="79" on="0"/>
        <pt x="409" y="150" on="1"/>
        <pt x="409" y="89" on="0"/>
        <pt x="370" y="-8" on="0"/>
        <pt x="313" y="-8" on="1"/>
        <pt x="262" y="-8" on="0"/>
        <pt x="225" y="68" on="0"/>
        <pt x="225" y="117" on="1"/>
        <pt x="225" y="1524" on="1"/>
        <pt x="-11" y="1462" on="1"/>
        <pt x="-15" y="1462" on="0"/>
        <pt x="-17" y="1460" on="0"/>
        <pt x="-21" y="1460" on="1"/>
        <pt x="-52" y="1460" on="0"/>
        <pt x="-101" y="1515" on="0"/>
        <pt x="-101" y="1546" on="1"/>
        <pt x="-101" y="1589" on="0"/>
        <pt x="-56" y="1616" on="0"/>
        <pt x="-23" y="1626" on="1"/>
        <pt x="362" y="1737" on="1"/>
        <pt x="364" y="1738" on="0"/>
        <pt x="371" y="1739" on="0"/>
        <pt x="376" y="1739" on="1"/>
        <pt x="397" y="1739" on="0"/>
        <pt x="430" y="1712" on="0"/>
        <pt x="430" y="1690" on="1"/>
        <pt x="430" y="1035" on="1"/>
        <pt x="501" y="1104" on="0"/>
        <pt x="671" y="1188" on="0"/>
        <pt x="794" y="1188" on="1"/>
        <pt x="1048" y="1188" on="0"/>
        <pt x="1347" y="841" on="0"/>
        <pt x="1347" y="582" on="1"/>
      </contour>
    </TTGlyph>
    <TTGlyph name="backslash" xMin="-129" yMin="-580" xMax="1151" yMax="1890">
      <contour>
        <pt x="-129" y="1804" on="1"/>
        <pt x="-129" y="1841" on="0"/>
        <pt x="-61" y="1890" on="0"/>
        <pt x="-26" y="1890" on="1"/>
        <pt x="-6" y="1890" on="0"/>
        <pt x="25" y="1870" on="0"/>
        <pt x="35" y="1851" on="1"/>
        <pt x="1143" y="-463" on="1"/>
        <pt x="1147" y="-470" on="0"/>
        <pt x="1151" y="-486" on="0"/>
        <pt x="1151" y="-494" on="1"/>
        <pt x="1151" y="-530" on="0"/>
        <pt x="1082" y="-580" on="0"/>
        <pt x="1047" y="-580" on="1"/>
        <pt x="1021" y="-580" on="0"/>
        <pt x="990" y="-554" on="0"/>
        <pt x="979" y="-532" on="1"/>
        <pt x="-123" y="1776" on="1"/>
        <pt x="-126" y="1783" on="0"/>
        <pt x="-129" y="1797" on="0"/>
        <pt x="-129" y="1804" on="1"/>
      </contour>
    </TTGlyph>
    <TTGlyph name="bar" xMin="224" yMin="-164" xMax="400" yMax="1841">
      <contour>
        <pt x="314" y="1841" on="1"/>
        <pt x="351" y="1841" on="0"/>
        <pt x="396" y="1803" on="0"/>
        <pt x="400" y="1769" on="1"/>
        <pt x="400" y="-98" on="1"/>
        <pt x="400" y="-129" on="0"/>
        <pt x="342" y="-164" on="0"/>
        <pt x="312" y="-164" on="1"/>
        <pt x="273" y="-164" on="0"/>
        <pt x="224" y="-127" on="0"/>
        <pt x="224" y="-82" on="1"/>
        <pt x="224" y="1769" on="1"/>
        <pt x="224" y="1805" on="0"/>
        <pt x="280" y="1841" on="0"/>
        <pt x="314" y="1841" on="1"/>
      </contour>
    </TTGlyph>
    <TTGlyph name="braceleft" xMin="69" yMin="-546" xMax="946" yMax="1985">
      <contour>
        <pt x="569" y="949" on="1"/>
        <pt x="569" y="883" on="0"/>
        <pt x="504" y="742" on="0"/>
        <pt x="386" y="720" on="1"/>
        <pt x="504" y="698" on="0"/>
        <pt x="569" y="556" on="0"/>
        <pt x="569" y="490" on="1"/>
        <pt x="569" y="349" on="0"/>
        <pt x="482" y="34" on="0"/>
        <pt x="482" y="-95" on="1"/>
        <pt x="482" y="-202" on="0"/>
        <pt x="629" y="-341" on="0"/>
        <pt x="844" y="-341" on="1"/>
        <pt x="885" y="-341" on="0"/>
        <pt x="946" y="-401" on="0"/>
        <pt x="946" y="-443" on="1"/>
        <pt x="946" y="-483" on="0"/>
        <pt x="884" y="-546" on="0"/>
        <pt x="844" y="-546" on="1"/>
        <pt x="492" y="-546" on="0"/>
        <pt x="260" y="-303" on="0"/>
        <pt x="260" y="-134" on="1"/>
        <pt x="260" y="23" on="0"/>
        <pt x="352" y="364" on="0"/>
        <pt x="352" y="491" on="1"/>
        <pt x="352" y="545" on="0"/>
        <pt x="278" y="617" on="0"/>
        <pt x="171" y="617" on="1"/>
        <pt x="130" y="617" on="0"/>
        <pt x="69" y="677" on="0"/>
        <pt x="69" y="719" on="1"/>
        <pt x="69" y="720" on="1"/>
        <pt x="69" y="720" on="1"/>
        <pt x="69" y="762" on="0"/>
        <pt x="130" y="822" on="0"/>
        <pt x="171" y="822" on="1"/>
        <pt x="278" y="822" on="0"/>
        <pt x="352" y="894" on="0"/>
        <pt x="352" y="948" on="1"/>
        <pt x="352" y="1075" on="0"/>
        <pt x="260" y="1416" on="0"/>
        <pt x="260" y="1573" on="1"/>
        <pt x="260" y="1742" on="0"/>
        <pt x="492" y="1985" on="0"/>
        <pt x="844" y="1985" on="1"/>
        <pt x="884" y="1985" on="0"/>
        <pt x="946" y="1922" on="0"/>
        <pt x="946" y="1882" on="1"/>
        <pt x="946" y="1840" on="0"/>
        <pt x="885" y="1780" on="0"/>
        <pt x="844" y="1780" on="1"/>
        <pt x="629" y="1780" on="0"/>
        <pt x="482" y="1641" on="0"/>
        <pt x="482" y="1534" on="1"/>
        <pt x="482" y="1405" on="0"/>
        <pt x="569" y="1090" on="0"/>
        <pt x="569" y="949" on="1"/>
      </contour>
    </TTGlyph>
    <TTGlyph name="braceright" xMin="82" yMin="-546" xMax="959" yMax="1985">
      <contour>
        <pt x="459" y="949" on="1"/>
        <pt x="459" y="1090" on="0"/>
        <pt x="546" y="1405" on="0"/>
        <pt x="546" y="1534" on="1"/>
        <pt x="546" y="1641" on="0"/>
        <pt x="399" y="1780" on="0"/>
        <pt x="184" y="1780" on="1"/>
        <pt x="143" y="1780" on="0"/>
        <pt x="82" y="1840" on="0"/>
        <pt x="82" y="1882" on="1"/>
        <pt x="82" y="1922" on="0"/>
        <pt x="144" y="1985" on="0"/>
        <pt x="184" y="1985" on="1"/>
        <pt x="536" y="1985" on="0"/>
        <pt x="768" y="1742" on="0"/>
        <pt x="768" y="1573" on="1"/>
        <pt x="768" y="1416" on="0"/>
        <pt x="676" y="1075" on="0"/>
        <pt x="676" y="948" on="1"/>
        <pt x="676" y="894" on="0"/>
        <pt x="750" y="822" on="0"/>
        <pt x="857" y="822" on="1"/>
        <pt x="898" y="822" on="0"/>
        <pt x="959" y="762" on="0"/>
        <pt x="959" y="720" on="1"/>
        <pt x="959" y="720" on="1"/>
        <pt x="959" y="719" on="1"/>
        <pt x="959" y="677" on="0"/>
        <pt x="898" y="617" on="0"/>
        <pt x="857" y="617" on="1"/>
        <pt x="750" y="617" on="0"/>
        <pt x="676" y="545" on="0"/>
        <pt x="676" y="491" on="1"/>
        <pt x="676" y="364" on="0"/>
        <pt x="768" y="23" on="0"/>
        <pt x="768" y="-134" on="1"/>
        <pt x="768" y="-303" on="0"/>
        <pt x="536" y="-546" on="0"/>
        <pt x="184" y="-546" on="1"/>
        <pt x="144" y="-546" on="0"/>
        <pt x="82" y="-483" on="0"/>
        <pt x="82" y="-443" on="1"/>
        <pt x="82" y="-401" on="0"/>
        <pt x="143" y="-341" on="0"/>
        <pt x="184" y="-341" on="1"/>
        <pt x="399" y="-341" on="0"/>
        <pt x="546" y="-202" on="0"/>
        <pt x="546" y="-95" on="1"/>
        <pt x="546" y="34" on="0"/>
        <pt x="459" y="349" on="0"/>
        <pt x="459" y="490" on="1"/>
        <pt x="459" y="556" on="0"/>
        <pt x="524" y="698" on="0"/>
        <pt x="642" y="720" on="1"/>
        <pt x="524" y="742" on="0"/>
        <pt x="459" y="883" on="0"/>
        <pt x="459" y="949" on="1"/>
      </contour>
    </TTGlyph>
    <TTGlyph name="bracketleft" xMin="173" yMin="-518" xMax="777" yMax="2075">
      <contour>
        <pt x="275" y="-518" on="1"/>
        <pt x="234" y="-518" on="0"/>
        <pt x="173" y="-462" on="0"/>
        <pt x="173" y="-420" on="1"/>
        <pt x="213" y="778" on="1"/>
        <pt x="173" y="1976" on="1"/>
        <pt x="173" y="2016" on="0"/>
        <pt x="235" y="2075" on="0"/>
        <pt x="275" y="2075" on="1"/>
        <pt x="675" y="2075" on="1"/>
        <pt x="715" y="2075" on="0"/>
        <pt x="777" y="2012" on="0"/>
        <pt x="777" y="1972" on="1"/>
        <pt x="777" y="1930" on="0"/>
        <pt x="716" y="1870" on="0"/>
        <pt x="675" y="1870" on="1"/>
        <pt x="394" y="1870" on="1"/>
        <pt x="394" y="-313" on="1"/>
        <pt x="675" y="-313" on="1"/>
        <pt x="716" y="-313" on="0"/>
        <pt x="777" y="-374" on="0"/>
        <pt x="777" y="-416" on="1"/>
        <pt x="777" y="-456" on="0"/>
        <pt x="715" y="-518" on="0"/>
        <pt x="675" y="-518" on="1"/>
      </contour>
    </TTGlyph>
    <TTGlyph name="bracketright" xMin="133" yMin="-518" xMax="737" yMax="2075">
      <contour>
        <pt x="635" y="-518" on="1"/>
        <pt x="235" y="-518" on="1"/>
        <pt x="195" y="-518" on="0"/>
        <pt x="133" y="-456" on="0"/>
        <pt x="133" y="-416" on="1"/>
        <pt x="133" y="-374" on="0"/>
        <pt x="194" y="-313" on="0"/>
        <pt x="235" y="-313" on="1"/>
        <pt x="516" y="-313" on="1"/>
        <pt x="516" y="1870" on="1"/>
        <pt x="235" y="1870" on="1"/>
        <pt x="194" y="1870" on="0"/>
        <pt x="133" y="1930" on="0"/>
        <pt x="133" y="1972" on="1"/>
        <pt x="133" y="2012" on="0"/>
        <pt x="195" y="2075" on="0"/>
        <pt x="235" y="2075" on="1"/>
        <pt x="635" y="2075" on="1"/>
        <pt x="675" y="2075" on="0"/>
        <pt x="737" y="2016" on="0"/>
        <pt x="737" y="1976" on="1"/>
        <pt x="697" y="778" on="1"/>
        <pt x="737" y="-420" on="1"/>
        <pt x="737" y="-462" on="0"/>
        <pt x="676" y="-518" on="0"/>
        <pt x="635" y="-518" on="1"/>
      </contour>
    </TTGlyph>
    <TTGlyph name="breve" xMin="0" yMin="1536" xMax="592" yMax="1900">
      <contour>
        <pt x="88" y="1879" on="1"/>
        <pt x="122" y="1789" on="0"/>
        <pt x="236" y="1699" on="0"/>
        <pt x="296" y="1699" on="1"/>
        <pt x="356" y="1699" on="0"/>
        <pt x="470" y="1789" on="0"/>
        <pt x="504" y="1879" on="1"/>
        <pt x="508" y="1891" on="0"/>
        <pt x="527" y="1900" on="0"/>
        <pt x="537" y="1900" on="1"/>
        <pt x="556" y="1900" on="0"/>
        <pt x="592" y="1869" on="0"/>
        <pt x="592" y="1853" on="1"/>
        <pt x="592" y="1696" on="0"/>
        <pt x="406" y="1536" on="0"/>
        <pt x="296" y="1536" on="1"/>
        <pt x="186" y="1536" on="0"/>
        <pt x="0" y="1696" on="0"/>
        <pt x="0" y="1853" on="1"/>
        <pt x="0" y="1869" on="0"/>
        <pt x="36" y="1900" on="0"/>
        <pt x="55" y="1900" on="1"/>
        <pt x="65" y="1900" on="0"/>
        <pt x="84" y="1891" on="0"/>
        <pt x="88" y="1879" on="1"/>
      </contour>
    </TTGlyph>
    <TTGlyph name="brokenbar" xMin="224" yMin="-164" xMax="400" yMax="1841">
      <contour>
        <pt x="314" y="1841" on="1"/>
        <pt x="351" y="1841" on="0"/>
        <pt x="396" y="1803" on="0"/>
        <pt x="400" y="1769" on="1"/>
        <pt x="400" y="-98" on="1"/>
        <pt x="400" y="-129" on="0"/>
        <pt x="342" y="-164" on="0"/>
        <pt x="312" y="-164" on="1"/>
        <pt x="273" y="-164" on="0"/>
        <pt x="224" y="-127" on="0"/>
        <pt x="224" y="-82" on="1"/>
        <pt x="224" y="1769" on="1"/>
        <pt x="224" y="1805" on="0"/>
        <pt x="280" y="1841" on="0"/>
        <pt x="314" y="1841" on="1"/>
      </contour>
    </TTGlyph>
    <TTGlyph name="bullet" xMin="193" yMin="289" xMax="898" yMax="997">
      <contour>
        <pt x="551" y="289" on="1"/>
        <pt x="389" y="289" on="0"/>
        <pt x="193" y="482" on="0"/>
        <pt x="193" y="643" on="1"/>
        <pt x="193" y="805" on="0"/>
        <pt x="390" y="997" on="0"/>
        <pt x="551" y="997" on="1"/>
        <pt x="708" y="997" on="0"/>
        <pt x="898" y="800" on="0"/>
        <pt x="898" y="643" on="1"/>
        <pt x="898" y="486" on="0"/>
        <pt x="707" y="289" on="0"/>
        <pt x="551" y="289" on="1"/>
      </contour>
    </TTGlyph>
    <TTGlyph name="c" xMin="70" yMin="-25" xMax="1197" yMax="1188">
      <contour>
        <pt x="738" y="1188" on="1"/>
        <pt x="889" y="1188" on="0"/>
        <pt x="1168" y="1065" on="0"/>
        <pt x="1168" y="878" on="1"/>
        <pt x="1168" y="819" on="0"/>
        <pt x="1122" y="738" on="0"/>
        <pt x="1071" y="738" on="1"/>
        <pt x="996" y="738" on="0"/>
        <pt x="954" y="913" on="0"/>
        <pt x="935" y="993" on="1"/>
        <pt x="886" y="1006" on="0"/>
        <pt x="791" y="1018" on="0"/>
        <pt x="745" y="1018" on="1"/>
        <pt x="552" y="1018" on="0"/>
        <pt x="292" y="793" on="0"/>
        <pt x="292" y="596" on="1"/>
        <pt x="292" y="383" on="0"/>
        <pt x="547" y="174" on="0"/>
        <pt x="710" y="174" on="1"/>
        <pt x="795" y="174" on="0"/>
        <pt x="967" y="239" on="0"/>
        <pt x="1038" y="302" on="1"/>
        <pt x="1052" y="314" on="0"/>
        <pt x="1084" y="328" on="0"/>
        <pt x="1101" y="328" on="1"/>
        <pt x="1142" y="328" on="0"/>
        <pt x="1197" y="287" on="0"/>
        <pt x="1197" y="250" on="1"/>
        <pt x="1197" y="122" on="0"/>
        <pt x="853" y="-25" on="0"/>
        <pt x="722" y="-25" on="1"/>
        <pt x="435" y="-25" on="0"/>
        <pt x="70" y="306" on="0"/>
        <pt x="70" y="596" on="1"/>
        <pt x="70" y="880" on="0"/>
        <pt x="469" y="1188" on="0"/>
        <pt x="738" y="1188" on="1"/>
      </contour>
    </TTGlyph>
    <TTGlyph name="cacute" xMin="70" yMin="-25" xMax="1197" yMax="1733">
      <component glyphName="glyph00367" x="70" y="0" flags="0x0"/>
      <component glyphName="acute" x="433" y="-137" flags="0x1004"/>
      <component glyphName="c" x="0" y="0" flags="0x1204"/>
    </TTGlyph>
    <TTGlyph name="caron" xMin="-30" yMin="1433" xMax="622" yMax="1932">
      <contour>
        <pt x="296" y="1433" on="1"/>
        <pt x="282" y="1433" on="0"/>
        <pt x="256" y="1442" on="0"/>
        <pt x="250" y="1450" on="1"/>
        <pt x="-20" y="1864" on="1"/>
        <pt x="-25" y="1870" on="0"/>
        <pt x="-30" y="1883" on="0"/>
        <pt x="-30" y="1889" on="1"/>
        <pt x="-30" y="1907" on="0"/>
        <pt x="4" y="1932" on="0"/>
        <pt x="24" y="1932" on="1"/>
        <pt x="33" y="1932" on="0"/>
        <pt x="52" y="1927" on="0"/>
        <pt x="58" y="1919" on="1"/>
        <pt x="296" y="1613" on="1"/>
        <pt x="534" y="1919" on="1"/>
        <pt x="540" y="1927" on="0"/>
        <pt x="559" y="1932" on="0"/>
        <pt x="568" y="1932" on="1"/>
        <pt x="588" y="1932" on="0"/>
        <pt x="622" y="1907" on="0"/>
        <pt x="622" y="1889" on="1"/>
        <pt x="622" y="1883" on="0"/>
        <pt x="617" y="1870" on="0"/>
        <pt x="612" y="1864" on="1"/>
        <pt x="342" y="1450" on="1"/>
        <pt x="336" y="1442" on="0"/>
        <pt x="310" y="1433" on="0"/>
        <pt x="296" y="1433" on="1"/>
      </contour>
    </TTGlyph>
    <TTGlyph name="ccaron" xMin="70" yMin="-25" xMax="1197" yMax="1789">
      <component glyphName="glyph00367" x="70" y="0" flags="0x0"/>
      <component glyphName="c" x="0" y="0" flags="0x1204"/>
      <component glyphName="caron" x="442" y="-143" flags="0x1004"/>
    </TTGlyph>
    <TTGlyph name="ccedilla" xMin="70" yMin="-677" xMax="1197" yMax="1188">
      <component glyphName="glyph00367" x="70" y="0" flags="0x0"/>
      <component glyphName="c" x="0" y="0" flags="0x1204"/>
      <component glyphName="cedilla" x="522" y="-2" flags="0x1004"/>
    </TTGlyph>
    <TTGlyph name="ccircumflex" xMin="70" yMin="-25" xMax="1197" yMax="1789">
      <component glyphName="glyph00367" x="70" y="0" flags="0x0"/>
      <component glyphName="c" x="0" y="0" flags="0x1204"/>
      <component glyphName="circumflex" x="442" y="-143" flags="0x1004"/>
    </TTGlyph>
    <TTGlyph name="cdotaccent" xMin="70" yMin="-25" xMax="1197" yMax="1591">
      <component glyphName="glyph00367" x="70" y="0" flags="0x0"/>
      <component glyphName="c" x="0" y="0" flags="0x1204"/>
      <component glyphName="dotaccent" x="587" y="1240" flags="0x1004"/>
    </TTGlyph>
    <TTGlyph name="cedilla" xMin="-50" yMin="-675" xMax="264" yMax="0">
      <contour>
        <pt x="264" y="0" on="1"/>
        <pt x="204" y="-501" on="1"/>
        <pt x="198" y="-589" on="0"/>
        <pt x="111" y="-675" on="0"/>
        <pt x="62" y="-675" on="1"/>
        <pt x="19" y="-675" on="0"/>
        <pt x="-50" y="-606" on="0"/>
        <pt x="-50" y="-538" on="1"/>
        <pt x="-50" y="-489" on="0"/>
        <pt x="114" y="-37" on="0"/>
        <pt x="136" y="0" on="1"/>
      </contour>
    </TTGlyph>
    <TTGlyph name="cent" xMin="94" yMin="-172" xMax="1221" yMax="1623">
      <contour>
        <pt x="723" y="1623" on="1"/>
        <pt x="752" y="1623" on="0"/>
        <pt x="791" y="1594" on="0"/>
        <pt x="791" y="1566" on="1"/>
        <pt x="791" y="1328" on="1"/>
        <pt x="937" y="1324" on="0"/>
        <pt x="1192" y="1196" on="0"/>
        <pt x="1192" y="1018" on="1"/>
        <pt x="1192" y="959" on="0"/>
        <pt x="1146" y="878" on="0"/>
        <pt x="1095" y="878" on="1"/>
        <pt x="1020" y="878" on="0"/>
        <pt x="978" y="1053" on="0"/>
        <pt x="959" y="1133" on="1"/>
        <pt x="916" y="1144" on="0"/>
        <pt x="831" y="1157" on="0"/>
        <pt x="791" y="1158" on="1"/>
        <pt x="791" y="317" on="1"/>
        <pt x="862" y="326" on="0"/>
        <pt x="1003" y="389" on="0"/>
        <pt x="1062" y="442" on="1"/>
        <pt x="1076" y="454" on="0"/>
        <pt x="1108" y="468" on="0"/>
        <pt x="1125" y="468" on="1"/>
        <pt x="1166" y="468" on="0"/>
        <pt x="1221" y="427" on="0"/>
        <pt x="1221" y="390" on="1"/>
        <pt x="1221" y="272" on="0"/>
        <pt x="922" y="128" on="0"/>
        <pt x="791" y="117" on="1"/>
        <pt x="791" y="-113" on="1"/>
        <pt x="791" y="-142" on="0"/>
        <pt x="749" y="-172" on="0"/>
        <pt x="724" y="-172" on="1"/>
        <pt x="698" y="-172" on="0"/>
        <pt x="655" y="-139" on="0"/>
        <pt x="655" y="-104" on="1"/>
        <pt x="655" y="120" on="1"/>
        <pt x="405" y="145" on="0"/>
        <pt x="94" y="470" on="0"/>
        <pt x="94" y="736" on="1"/>
        <pt x="94" y="992" on="0"/>
        <pt x="421" y="1294" on="0"/>
        <pt x="655" y="1322" on="1"/>
        <pt x="655" y="1566" on="1"/>
        <pt x="655" y="1594" on="0"/>
        <pt x="697" y="1623" on="0"/>
        <pt x="723" y="1623" on="1"/>
      </contour>
      <contour>
        <pt x="655" y="1147" on="1"/>
        <pt x="506" y="1117" on="0"/>
        <pt x="316" y="902" on="0"/>
        <pt x="316" y="736" on="1"/>
        <pt x="316" y="549" on="0"/>
        <pt x="516" y="342" on="0"/>
        <pt x="655" y="320" on="1"/>
      </contour>
    </TTGlyph>
    <TTGlyph name="circumflex" xMin="-30" yMin="1433" xMax="622" yMax="1932">
      <contour>
        <pt x="296" y="1932" on="1"/>
        <pt x="310" y="1932" on="0"/>
        <pt x="336" y="1923" on="0"/>
        <pt x="342" y="1915" on="1"/>
        <pt x="612" y="1501" on="1"/>
        <pt x="617" y="1495" on="0"/>
        <pt x="622" y="1482" on="0"/>
        <pt x="622" y="1476" on="1"/>
        <pt x="622" y="1458" on="0"/>
        <pt x="588" y="1433" on="0"/>
        <pt x="568" y="1433" on="1"/>
        <pt x="559" y="1433" on="0"/>
        <pt x="540" y="1438" on="0"/>
        <pt x="534" y="1446" on="1"/>
        <pt x="296" y="1752" on="1"/>
        <pt x="58" y="1446" on="1"/>
        <pt x="52" y="1438" on="0"/>
        <pt x="33" y="1433" on="0"/>
        <pt x="24" y="1433" on="1"/>
        <pt x="4" y="1433" on="0"/>
        <pt x="-30" y="1458" on="0"/>
        <pt x="-30" y="1476" on="1"/>
        <pt x="-30" y="1482" on="0"/>
        <pt x="-25" y="1495" on="0"/>
        <pt x="-20" y="1501" on="1"/>
        <pt x="250" y="1915" on="1"/>
        <pt x="256" y="1923" on="0"/>
        <pt x="282" y="1932" on="0"/>
        <pt x="296" y="1932" on="1"/>
      </contour>
    </TTGlyph>
    <TTGlyph name="colon" xMin="147" yMin="-70" xMax="577" yMax="1190">
      <contour>
        <pt x="362" y="-70" on="1"/>
        <pt x="269" y="-70" on="0"/>
        <pt x="147" y="52" on="0"/>
        <pt x="147" y="145" on="1"/>
        <pt x="147" y="238" on="0"/>
        <pt x="270" y="360" on="0"/>
        <pt x="362" y="360" on="1"/>
        <pt x="454" y="360" on="0"/>
        <pt x="577" y="236" on="0"/>
        <pt x="577" y="145" on="1"/>
        <pt x="577" y="52" on="0"/>
        <pt x="454" y="-70" on="0"/>
        <pt x="362" y="-70" on="1"/>
      </contour>
      <contour>
        <pt x="362" y="760" on="1"/>
        <pt x="269" y="760" on="0"/>
        <pt x="147" y="882" on="0"/>
        <pt x="147" y="975" on="1"/>
        <pt x="147" y="1068" on="0"/>
        <pt x="270" y="1190" on="0"/>
        <pt x="362" y="1190" on="1"/>
        <pt x="454" y="1190" on="0"/>
        <pt x="577" y="1066" on="0"/>
        <pt x="577" y="975" on="1"/>
        <pt x="577" y="882" on="0"/>
        <pt x="454" y="760" on="0"/>
        <pt x="362" y="760" on="1"/>
      </contour>
    </TTGlyph>
    <TTGlyph name="comma" xMin="162" yMin="-376" xMax="558" yMax="280">
      <contour>
        <pt x="353" y="280" on="1"/>
        <pt x="435" y="280" on="0"/>
        <pt x="558" y="168" on="0"/>
        <pt x="558" y="58" on="1"/>
        <pt x="558" y="-99" on="0"/>
        <pt x="397" y="-306" on="0"/>
        <pt x="284" y="-363" on="1"/>
        <pt x="272" y="-370" on="0"/>
        <pt x="247" y="-376" on="0"/>
        <pt x="237" y="-376" on="1"/>
        <pt x="205" y="-376" on="0"/>
        <pt x="162" y="-334" on="0"/>
        <pt x="162" y="-308" on="1"/>
        <pt x="162" y="-295" on="0"/>
        <pt x="177" y="-267" on="0"/>
        <pt x="193" y="-256" on="1"/>
        <pt x="250" y="-218" on="0"/>
        <pt x="371" y="-110" on="0"/>
        <pt x="371" y="-25" on="1"/>
        <pt x="290" y="-25" on="0"/>
        <pt x="183" y="49" on="0"/>
        <pt x="183" y="125" on="1"/>
        <pt x="183" y="202" on="0"/>
        <pt x="287" y="280" on="0"/>
        <pt x="353" y="280" on="1"/>
      </contour>
    </TTGlyph>
    <TTGlyph name="copyright" xMin="167" yMin="-25" xMax="1961" yMax="1739">
      <contour>
        <pt x="1961" y="850" on="1"/>
        <pt x="1961" y="454" on="0"/>
        <pt x="1459" y="-25" on="0"/>
        <pt x="1064" y="-25" on="1"/>
        <pt x="669" y="-25" on="0"/>
        <pt x="167" y="454" on="0"/>
        <pt x="167" y="850" on="1"/>
        <pt x="167" y="1247" on="0"/>
        <pt x="668" y="1739" on="0"/>
        <pt x="1064" y="1739" on="1"/>
        <pt x="1460" y="1739" on="0"/>
        <pt x="1961" y="1247" on="0"/>
        <pt x="1961" y="850" on="1"/>
      </contour>
      <contour>
        <pt x="1070" y="469" on="1"/>
        <pt x="1194" y="469" on="0"/>
        <pt x="1359" y="605" on="0"/>
        <pt x="1359" y="731" on="1"/>
        <pt x="1359" y="755" on="0"/>
        <pt x="1406" y="774" on="0"/>
        <pt x="1432" y="774" on="1"/>
        <pt x="1454" y="774" on="0"/>
        <pt x="1504" y="751" on="0"/>
        <pt x="1504" y="729" on="1"/>
        <pt x="1504" y="508" on="1"/>
        <pt x="1504" y="492" on="0"/>
        <pt x="1499" y="478" on="0"/>
        <pt x="1486" y="473" on="1"/>
        <pt x="1412" y="409" on="0"/>
        <pt x="1201" y="319" on="0"/>
        <pt x="1070" y="319" on="1"/>
        <pt x="831" y="319" on="0"/>
        <pt x="537" y="618" on="0"/>
        <pt x="537" y="858" on="1"/>
        <pt x="537" y="1099" on="0"/>
        <pt x="831" y="1405" on="0"/>
        <pt x="1070" y="1405" on="1"/>
        <pt x="1156" y="1405" on="0"/>
        <pt x="1288" y="1352" on="0"/>
        <pt x="1338" y="1307" on="1"/>
        <pt x="1338" y="1348" on="1"/>
        <pt x="1338" y="1372" on="0"/>
        <pt x="1387" y="1391" on="0"/>
        <pt x="1412" y="1391" on="1"/>
        <pt x="1433" y="1391" on="0"/>
        <pt x="1484" y="1369" on="0"/>
        <pt x="1484" y="1348" on="1"/>
        <pt x="1484" y="1083" on="1"/>
        <pt x="1484" y="1061" on="0"/>
        <pt x="1434" y="1040" on="0"/>
        <pt x="1412" y="1040" on="1"/>
        <pt x="1385" y="1040" on="0"/>
        <pt x="1356" y="1086" on="0"/>
        <pt x="1342" y="1106" on="1"/>
        <pt x="1299" y="1172" on="0"/>
        <pt x="1166" y="1262" on="0"/>
        <pt x="1070" y="1262" on="1"/>
        <pt x="905" y="1262" on="0"/>
        <pt x="726" y="1024" on="0"/>
        <pt x="726" y="858" on="1"/>
        <pt x="726" y="695" on="0"/>
        <pt x="908" y="469" on="0"/>
        <pt x="1070" y="469" on="1"/>
      </contour>
      <contour>
        <pt x="333" y="854" on="1"/>
        <pt x="333" y="528" on="0"/>
        <pt x="732" y="123" on="0"/>
        <pt x="1064" y="123" on="1"/>
        <pt x="1396" y="123" on="0"/>
        <pt x="1795" y="528" on="0"/>
        <pt x="1795" y="854" on="1"/>
        <pt x="1795" y="1179" on="0"/>
        <pt x="1395" y="1591" on="0"/>
        <pt x="1064" y="1591" on="1"/>
        <pt x="733" y="1591" on="0"/>
        <pt x="333" y="1179" on="0"/>
        <pt x="333" y="854" on="1"/>
      </contour>
    </TTGlyph>
    <TTGlyph name="currency" xMin="169" yMin="319" xMax="959" yMax="1108">
      <contour>
        <pt x="885" y="1108" on="1"/>
        <pt x="914" y="1108" on="0"/>
        <pt x="959" y="1063" on="0"/>
        <pt x="959" y="1035" on="1"/>
        <pt x="959" y="1021" on="0"/>
        <pt x="947" y="994" on="0"/>
        <pt x="937" y="983" on="1"/>
        <pt x="667" y="714" on="1"/>
        <pt x="937" y="444" on="1"/>
        <pt x="947" y="434" on="0"/>
        <pt x="959" y="406" on="0"/>
        <pt x="959" y="393" on="1"/>
        <pt x="959" y="364" on="0"/>
        <pt x="914" y="319" on="0"/>
        <pt x="885" y="319" on="1"/>
        <pt x="871" y="319" on="0"/>
        <pt x="843" y="331" on="0"/>
        <pt x="833" y="341" on="1"/>
        <pt x="564" y="610" on="1"/>
        <pt x="295" y="341" on="1"/>
        <pt x="284" y="331" on="0"/>
        <pt x="257" y="319" on="0"/>
        <pt x="243" y="319" on="1"/>
        <pt x="214" y="319" on="0"/>
        <pt x="169" y="364" on="0"/>
        <pt x="169" y="393" on="1"/>
        <pt x="169" y="406" on="0"/>
        <pt x="180" y="434" on="0"/>
        <pt x="191" y="444" on="1"/>
        <pt x="460" y="714" on="1"/>
        <pt x="191" y="983" on="1"/>
        <pt x="180" y="994" on="0"/>
        <pt x="169" y="1021" on="0"/>
        <pt x="169" y="1035" on="1"/>
        <pt x="169" y="1063" on="0"/>
        <pt x="214" y="1108" on="0"/>
        <pt x="243" y="1108" on="1"/>
        <pt x="257" y="1108" on="0"/>
        <pt x="284" y="1097" on="0"/>
        <pt x="295" y="1086" on="1"/>
        <pt x="564" y="817" on="1"/>
        <pt x="833" y="1086" on="1"/>
        <pt x="843" y="1097" on="0"/>
        <pt x="871" y="1108" on="0"/>
        <pt x="885" y="1108" on="1"/>
      </contour>
    </TTGlyph>
    <TTGlyph name="d" xMin="70" yMin="-25" xMax="1453" yMax="1739">
      <contour>
        <pt x="292" y="582" on="1"/>
        <pt x="292" y="408" on="0"/>
        <pt x="469" y="145" on="0"/>
        <pt x="642" y="145" on="1"/>
        <pt x="761" y="145" on="0"/>
        <pt x="935" y="249" on="0"/>
        <pt x="988" y="324" on="1"/>
        <pt x="988" y="881" on="1"/>
        <pt x="925" y="945" on="0"/>
        <pt x="748" y="1018" on="0"/>
        <pt x="632" y="1018" on="1"/>
        <pt x="463" y="1018" on="0"/>
        <pt x="292" y="751" on="0"/>
        <pt x="292" y="582" on="1"/>
      </contour>
      <contour>
        <pt x="70" y="582" on="1"/>
        <pt x="70" y="837" on="0"/>
        <pt x="369" y="1188" on="0"/>
        <pt x="623" y="1188" on="1"/>
        <pt x="742" y="1188" on="0"/>
        <pt x="916" y="1112" on="0"/>
        <pt x="988" y="1055" on="1"/>
        <pt x="988" y="1524" on="1"/>
        <pt x="752" y="1462" on="1"/>
        <pt x="748" y="1462" on="0"/>
        <pt x="746" y="1460" on="0"/>
        <pt x="742" y="1460" on="1"/>
        <pt x="711" y="1460" on="0"/>
        <pt x="662" y="1515" on="0"/>
        <pt x="662" y="1546" on="1"/>
        <pt x="662" y="1589" on="0"/>
        <pt x="707" y="1616" on="0"/>
        <pt x="740" y="1626" on="1"/>
        <pt x="1125" y="1737" on="1"/>
        <pt x="1127" y="1738" on="0"/>
        <pt x="1135" y="1739" on="0"/>
        <pt x="1140" y="1739" on="1"/>
        <pt x="1161" y="1739" on="0"/>
        <pt x="1193" y="1712" on="0"/>
        <pt x="1193" y="1690" on="1"/>
        <pt x="1193" y="176" on="1"/>
        <pt x="1338" y="197" on="1"/>
        <pt x="1343" y="198" on="0"/>
        <pt x="1357" y="199" on="0"/>
        <pt x="1365" y="199" on="1"/>
        <pt x="1405" y="199" on="0"/>
        <pt x="1453" y="160" on="0"/>
        <pt x="1453" y="125" on="1"/>
        <pt x="1453" y="44" on="0"/>
        <pt x="1278" y="19" on="0"/>
        <pt x="1213" y="12" on="1"/>
        <pt x="1174" y="6" on="0"/>
        <pt x="1077" y="-10" on="0"/>
        <pt x="1045" y="-10" on="1"/>
        <pt x="1010" y="-10" on="0"/>
        <pt x="988" y="44" on="0"/>
        <pt x="988" y="78" on="1"/>
        <pt x="988" y="150" on="1"/>
        <pt x="931" y="81" on="0"/>
        <pt x="745" y="-25" on="0"/>
        <pt x="628" y="-25" on="1"/>
        <pt x="365" y="-25" on="0"/>
        <pt x="70" y="320" on="0"/>
        <pt x="70" y="582" on="1"/>
      </contour>
    </TTGlyph>
    <TTGlyph name="dagger" xMin="133" yMin="-164" xMax="1103" yMax="1841">
      <contour>
        <pt x="1023" y="1255" on="1"/>
        <pt x="1056" y="1255" on="0"/>
        <pt x="1103" y="1208" on="0"/>
        <pt x="1103" y="1175" on="1"/>
        <pt x="1103" y="1142" on="0"/>
        <pt x="1056" y="1094" on="0"/>
        <pt x="1023" y="1094" on="1"/>
        <pt x="695" y="1094" on="1"/>
        <pt x="695" y="-98" on="1"/>
        <pt x="695" y="-129" on="0"/>
        <pt x="637" y="-164" on="0"/>
        <pt x="607" y="-164" on="1"/>
        <pt x="568" y="-164" on="0"/>
        <pt x="519" y="-127" on="0"/>
        <pt x="519" y="-82" on="1"/>
        <pt x="519" y="1094" on="1"/>
        <pt x="213" y="1094" on="1"/>
        <pt x="180" y="1094" on="0"/>
        <pt x="133" y="1142" on="0"/>
        <pt x="133" y="1175" on="1"/>
        <pt x="133" y="1208" on="0"/>
        <pt x="180" y="1255" on="0"/>
        <pt x="213" y="1255" on="1"/>
        <pt x="519" y="1255" on="1"/>
        <pt x="519" y="1769" on="1"/>
        <pt x="519" y="1805" on="0"/>
        <pt x="575" y="1841" on="0"/>
        <pt x="609" y="1841" on="1"/>
        <pt x="646" y="1841" on="0"/>
        <pt x="691" y="1803" on="0"/>
        <pt x="695" y="1769" on="1"/>
        <pt x="695" y="1255" on="1"/>
      </contour>
    </TTGlyph>
    <TTGlyph name="daggerdbl" xMin="193" yMin="-164" xMax="1043" yMax="1841">
      <contour>
        <pt x="963" y="1255" on="1"/>
        <pt x="996" y="1255" on="0"/>
        <pt x="1043" y="1208" on="0"/>
        <pt x="1043" y="1175" on="1"/>
        <pt x="1043" y="1142" on="0"/>
        <pt x="996" y="1094" on="0"/>
        <pt x="963" y="1094" on="1"/>
        <pt x="695" y="1094" on="1"/>
        <pt x="695" y="538" on="1"/>
        <pt x="963" y="538" on="1"/>
        <pt x="996" y="538" on="0"/>
        <pt x="1043" y="490" on="0"/>
        <pt x="1043" y="457" on="1"/>
        <pt x="1043" y="424" on="0"/>
        <pt x="996" y="377" on="0"/>
        <pt x="963" y="377" on="1"/>
        <pt x="695" y="377" on="1"/>
        <pt x="695" y="-98" on="1"/>
        <pt x="695" y="-129" on="0"/>
        <pt x="637" y="-164" on="0"/>
        <pt x="607" y="-164" on="1"/>
        <pt x="568" y="-164" on="0"/>
        <pt x="519" y="-127" on="0"/>
        <pt x="519" y="-82" on="1"/>
        <pt x="519" y="377" on="1"/>
        <pt x="273" y="377" on="1"/>
        <pt x="240" y="377" on="0"/>
        <pt x="193" y="424" on="0"/>
        <pt x="193" y="457" on="1"/>
        <pt x="193" y="490" on="0"/>
        <pt x="240" y="538" on="0"/>
        <pt x="273" y="538" on="1"/>
        <pt x="519" y="538" on="1"/>
        <pt x="519" y="1094" on="1"/>
        <pt x="273" y="1094" on="1"/>
        <pt x="240" y="1094" on="0"/>
        <pt x="193" y="1142" on="0"/>
        <pt x="193" y="1175" on="1"/>
        <pt x="193" y="1208" on="0"/>
        <pt x="240" y="1255" on="0"/>
        <pt x="273" y="1255" on="1"/>
        <pt x="519" y="1255" on="1"/>
        <pt x="519" y="1769" on="1"/>
        <pt x="519" y="1805" on="0"/>
        <pt x="575" y="1841" on="0"/>
        <pt x="609" y="1841" on="1"/>
        <pt x="646" y="1841" on="0"/>
        <pt x="691" y="1803" on="0"/>
        <pt x="695" y="1769" on="1"/>
        <pt x="695" y="1255" on="1"/>
      </contour>
    </TTGlyph>
    <TTGlyph name="dcaron" xMin="70" yMin="-25" xMax="1849" yMax="1739">
      <component glyphName="glyph00367" x="70" y="0" flags="0x0"/>
      <component glyphName="comma" x="1291" y="1459" flags="0x1004"/>
      <component glyphName="d" x="0" y="0" flags="0x1204"/>
    </TTGlyph>
    <TTGlyph name="dcroat" xMin="89" yMin="-25" xMax="1472" yMax="1715">
      <contour>
        <pt x="311" y="582" on="1"/>
        <pt x="311" y="408" on="0"/>
        <pt x="488" y="145" on="0"/>
        <pt x="661" y="145" on="1"/>
        <pt x="780" y="145" on="0"/>
        <pt x="954" y="249" on="0"/>
        <pt x="1007" y="324" on="1"/>
        <pt x="1007" y="881" on="1"/>
        <pt x="944" y="945" on="0"/>
        <pt x="767" y="1018" on="0"/>
        <pt x="651" y="1018" on="1"/>
        <pt x="482" y="1018" on="0"/>
        <pt x="311" y="751" on="0"/>
        <pt x="311" y="582" on="1"/>
      </contour>
      <contour>
        <pt x="1344" y="1438" on="1"/>
        <pt x="1380" y="1438" on="0"/>
        <pt x="1416" y="1390" on="0"/>
        <pt x="1416" y="1362" on="1"/>
        <pt x="1416" y="1333" on="0"/>
        <pt x="1379" y="1283" on="0"/>
        <pt x="1342" y="1283" on="1"/>
        <pt x="1212" y="1283" on="1"/>
        <pt x="1212" y="176" on="1"/>
        <pt x="1357" y="197" on="1"/>
        <pt x="1362" y="198" on="0"/>
        <pt x="1376" y="199" on="0"/>
        <pt x="1384" y="199" on="1"/>
        <pt x="1424" y="199" on="0"/>
        <pt x="1472" y="160" on="0"/>
        <pt x="1472" y="125" on="1"/>
        <pt x="1472" y="44" on="0"/>
        <pt x="1297" y="19" on="0"/>
        <pt x="1232" y="12" on="1"/>
        <pt x="1193" y="6" on="0"/>
        <pt x="1096" y="-10" on="0"/>
        <pt x="1064" y="-10" on="1"/>
        <pt x="1029" y="-10" on="0"/>
        <pt x="1007" y="44" on="0"/>
        <pt x="1007" y="78" on="1"/>
        <pt x="1007" y="150" on="1"/>
        <pt x="950" y="81" on="0"/>
        <pt x="764" y="-25" on="0"/>
        <pt x="647" y="-25" on="1"/>
        <pt x="384" y="-25" on="0"/>
        <pt x="89" y="320" on="0"/>
        <pt x="89" y="582" on="1"/>
        <pt x="89" y="837" on="0"/>
        <pt x="388" y="1188" on="0"/>
        <pt x="642" y="1188" on="1"/>
        <pt x="761" y="1188" on="0"/>
        <pt x="935" y="1112" on="0"/>
        <pt x="1007" y="1055" on="1"/>
        <pt x="1007" y="1283" on="1"/>
        <pt x="708" y="1283" on="1"/>
        <pt x="666" y="1283" on="0"/>
        <pt x="625" y="1333" on="0"/>
        <pt x="625" y="1362" on="1"/>
        <pt x="625" y="1390" on="0"/>
        <pt x="664" y="1438" on="0"/>
        <pt x="702" y="1438" on="1"/>
        <pt x="1007" y="1438" on="1"/>
        <pt x="1007" y="1560" on="1"/>
        <pt x="795" y="1560" on="1"/>
        <pt x="753" y="1560" on="0"/>
        <pt x="712" y="1610" on="0"/>
        <pt x="712" y="1639" on="1"/>
        <pt x="712" y="1667" on="0"/>
        <pt x="751" y="1715" on="0"/>
        <pt x="789" y="1715" on="1"/>
        <pt x="1141" y="1715" on="1"/>
        <pt x="1177" y="1715" on="0"/>
        <pt x="1213" y="1667" on="0"/>
        <pt x="1213" y="1639" on="1"/>
        <pt x="1213" y="1636" on="0"/>
        <pt x="1212" y="1629" on="0"/>
        <pt x="1212" y="1626" on="1"/>
        <pt x="1212" y="1626" on="1"/>
        <pt x="1212" y="1438" on="1"/>
      </contour>
    </TTGlyph>
    <TTGlyph name="degree" xMin="230" yMin="912" xMax="965" yMax="1642">
      <contour>
        <pt x="603" y="1642" on="1"/>
        <pt x="784" y="1642" on="0"/>
        <pt x="965" y="1415" on="0"/>
        <pt x="965" y="1278" on="1"/>
        <pt x="965" y="1143" on="0"/>
        <pt x="777" y="912" on="0"/>
        <pt x="596" y="912" on="1"/>
        <pt x="415" y="912" on="0"/>
        <pt x="230" y="1137" on="0"/>
        <pt x="230" y="1271" on="1"/>
        <pt x="230" y="1409" on="0"/>
        <pt x="421" y="1642" on="0"/>
        <pt x="603" y="1642" on="1"/>
      </contour>
      <contour>
        <pt x="608" y="1052" on="1"/>
        <pt x="710" y="1052" on="0"/>
        <pt x="810" y="1184" on="0"/>
        <pt x="810" y="1274" on="1"/>
        <pt x="810" y="1364" on="0"/>
        <pt x="706" y="1500" on="0"/>
        <pt x="602" y="1500" on="1"/>
        <pt x="498" y="1500" on="0"/>
        <pt x="394" y="1364" on="0"/>
        <pt x="394" y="1274" on="1"/>
        <pt x="394" y="1185" on="0"/>
        <pt x="507" y="1052" on="0"/>
        <pt x="608" y="1052" on="1"/>
      </contour>
    </TTGlyph>
    <TTGlyph name="dieresis" xMin="65" yMin="1432" xMax="823" yMax="1698">
      <contour>
        <pt x="199" y="1432" on="1"/>
        <pt x="145" y="1432" on="0"/>
        <pt x="65" y="1511" on="0"/>
        <pt x="65" y="1565" on="1"/>
        <pt x="65" y="1619" on="0"/>
        <pt x="145" y="1698" on="0"/>
        <pt x="199" y="1698" on="1"/>
        <pt x="253" y="1698" on="0"/>
        <pt x="332" y="1619" on="0"/>
        <pt x="332" y="1565" on="1"/>
        <pt x="332" y="1511" on="0"/>
        <pt x="253" y="1432" on="0"/>
        <pt x="199" y="1432" on="1"/>
      </contour>
      <contour>
        <pt x="690" y="1432" on="1"/>
        <pt x="636" y="1432" on="0"/>
        <pt x="557" y="1511" on="0"/>
        <pt x="557" y="1565" on="1"/>
        <pt x="557" y="1619" on="0"/>
        <pt x="636" y="1698" on="0"/>
        <pt x="690" y="1698" on="1"/>
        <pt x="744" y="1698" on="0"/>
        <pt x="823" y="1619" on="0"/>
        <pt x="823" y="1565" on="1"/>
        <pt x="823" y="1511" on="0"/>
        <pt x="744" y="1432" on="0"/>
        <pt x="690" y="1432" on="1"/>
      </contour>
    </TTGlyph>
    <TTGlyph name="divide" xMin="194" yMin="152" xMax="1282" yMax="1279">
      <contour>
        <pt x="739" y="152" on="1"/>
        <pt x="675" y="152" on="0"/>
        <pt x="592" y="236" on="0"/>
        <pt x="592" y="300" on="1"/>
        <pt x="592" y="363" on="0"/>
        <pt x="676" y="447" on="0"/>
        <pt x="739" y="447" on="1"/>
        <pt x="802" y="447" on="0"/>
        <pt x="886" y="362" on="0"/>
        <pt x="886" y="300" on="1"/>
        <pt x="886" y="236" on="0"/>
        <pt x="802" y="152" on="0"/>
        <pt x="739" y="152" on="1"/>
      </contour>
      <contour>
        <pt x="739" y="984" on="1"/>
        <pt x="675" y="984" on="0"/>
        <pt x="592" y="1068" on="0"/>
        <pt x="592" y="1131" on="1"/>
        <pt x="592" y="1195" on="0"/>
        <pt x="676" y="1279" on="0"/>
        <pt x="739" y="1279" on="1"/>
        <pt x="802" y="1279" on="0"/>
        <pt x="886" y="1194" on="0"/>
        <pt x="886" y="1131" on="1"/>
        <pt x="886" y="1068" on="0"/>
        <pt x="802" y="984" on="0"/>
        <pt x="739" y="984" on="1"/>
      </contour>
      <contour>
        <pt x="194" y="715" on="1"/>
        <pt x="194" y="756" on="0"/>
        <pt x="254" y="817" on="0"/>
        <pt x="296" y="817" on="1"/>
        <pt x="1180" y="817" on="1"/>
        <pt x="1222" y="817" on="0"/>
        <pt x="1282" y="756" on="0"/>
        <pt x="1282" y="715" on="1"/>
        <pt x="1282" y="672" on="0"/>
        <pt x="1223" y="612" on="0"/>
        <pt x="1180" y="612" on="1"/>
        <pt x="296" y="612" on="1"/>
        <pt x="253" y="612" on="0"/>
        <pt x="194" y="672" on="0"/>
        <pt x="194" y="715" on="1"/>
      </contour>
    </TTGlyph>
    <TTGlyph name="dollar" xMin="159" yMin="-210" xMax="1468" yMax="1920">
      <contour>
        <pt x="900" y="1580" on="1"/>
        <pt x="900" y="997" on="1"/>
        <pt x="1023" y="967" on="1"/>
        <pt x="1220" y="918" on="0"/>
        <pt x="1468" y="695" on="0"/>
        <pt x="1468" y="458" on="1"/>
        <pt x="1468" y="225" on="0"/>
        <pt x="1130" y="-4" on="0"/>
        <pt x="900" y="-23" on="1"/>
        <pt x="900" y="-144" on="1"/>
        <pt x="900" y="-171" on="0"/>
        <pt x="861" y="-210" on="0"/>
        <pt x="834" y="-210" on="1"/>
        <pt x="807" y="-210" on="0"/>
        <pt x="768" y="-171" on="0"/>
        <pt x="768" y="-144" on="1"/>
        <pt x="768" y="-27" on="1"/>
        <pt x="669" y="-25" on="0"/>
        <pt x="481" y="11" on="0"/>
        <pt x="392" y="45" on="1"/>
        <pt x="388" y="11" on="0"/>
        <pt x="334" y="-25" on="0"/>
        <pt x="300" y="-25" on="1"/>
        <pt x="264" y="-25" on="0"/>
        <pt x="220" y="5" on="0"/>
        <pt x="216" y="39" on="1"/>
        <pt x="159" y="535" on="1"/>
        <pt x="159" y="575" on="0"/>
        <pt x="207" y="614" on="0"/>
        <pt x="255" y="614" on="1"/>
        <pt x="285" y="614" on="0"/>
        <pt x="331" y="579" on="0"/>
        <pt x="335" y="549" on="1"/>
        <pt x="351" y="410" on="1"/>
        <pt x="368" y="273" on="0"/>
        <pt x="614" y="151" on="0"/>
        <pt x="768" y="150" on="1"/>
        <pt x="768" y="794" on="1"/>
        <pt x="660" y="825" on="1"/>
        <pt x="481" y="865" on="0"/>
        <pt x="246" y="1070" on="0"/>
        <pt x="246" y="1271" on="1"/>
        <pt x="246" y="1475" on="0"/>
        <pt x="549" y="1721" on="0"/>
        <pt x="768" y="1737" on="1"/>
        <pt x="768" y="1854" on="1"/>
        <pt x="768" y="1881" on="0"/>
        <pt x="807" y="1920" on="0"/>
        <pt x="834" y="1920" on="1"/>
        <pt x="861" y="1920" on="0"/>
        <pt x="900" y="1881" on="0"/>
        <pt x="900" y="1854" on="1"/>
        <pt x="900" y="1736" on="1"/>
        <pt x="987" y="1730" on="0"/>
        <pt x="1151" y="1688" on="0"/>
        <pt x="1205" y="1657" on="1"/>
        <pt x="1205" y="1699" on="0"/>
        <pt x="1258" y="1743" on="0"/>
        <pt x="1299" y="1743" on="1"/>
        <pt x="1329" y="1743" on="0"/>
        <pt x="1375" y="1707" on="0"/>
        <pt x="1379" y="1677" on="1"/>
        <pt x="1410" y="1309" on="1"/>
        <pt x="1410" y="1266" on="0"/>
        <pt x="1358" y="1227" on="0"/>
        <pt x="1318" y="1227" on="1"/>
        <pt x="1283" y="1227" on="0"/>
        <pt x="1238" y="1257" on="0"/>
        <pt x="1234" y="1290" on="1"/>
        <pt x="1226" y="1372" on="1"/>
        <pt x="1213" y="1477" on="0"/>
        <pt x="1018" y="1574" on="0"/>
        <pt x="900" y="1580" on="1"/>
      </contour>
      <contour>
        <pt x="900" y="757" on="1"/>
        <pt x="900" y="157" on="1"/>
        <pt x="1040" y="173" on="0"/>
        <pt x="1263" y="307" on="0"/>
        <pt x="1263" y="459" on="1"/>
        <pt x="1263" y="594" on="0"/>
        <pt x="1100" y="700" on="0"/>
        <pt x="988" y="732" on="1"/>
      </contour>
      <contour>
        <pt x="768" y="1030" on="1"/>
        <pt x="768" y="1576" on="1"/>
        <pt x="587" y="1557" on="0"/>
        <pt x="467" y="1388" on="0"/>
        <pt x="467" y="1287" on="1"/>
        <pt x="467" y="1190" on="0"/>
        <pt x="602" y="1071" on="0"/>
        <pt x="736" y="1038" on="1"/>
      </contour>
    </TTGlyph>
    <TTGlyph name="dotaccent" xMin="1" yMin="50" xMax="300" yMax="351">
      <contour>
        <pt x="300" y="206" on="1"/>
        <pt x="300" y="149" on="0"/>
        <pt x="217" y="50" on="0"/>
        <pt x="151" y="50" on="1"/>
        <pt x="79" y="50" on="0"/>
        <pt x="1" y="149" on="0"/>
        <pt x="1" y="206" on="1"/>
        <pt x="1" y="260" on="0"/>
        <pt x="75" y="351" on="0"/>
        <pt x="153" y="351" on="1"/>
        <pt x="153" y="351" on="1"/>
        <pt x="222" y="351" on="0"/>
        <pt x="300" y="261" on="0"/>
        <pt x="300" y="206" on="1"/>
      </contour>
    </TTGlyph>
    <TTGlyph name="dotlessi" xMin="33" yMin="0" xMax="703" yMax="1133">
      <contour>
        <pt x="60" y="86" on="1"/>
        <pt x="60" y="123" on="0"/>
        <pt x="97" y="176" on="0"/>
        <pt x="136" y="176" on="1"/>
        <pt x="273" y="176" on="1"/>
        <pt x="273" y="928" on="1"/>
        <pt x="129" y="889" on="1"/>
        <pt x="127" y="888" on="0"/>
        <pt x="120" y="887" on="0"/>
        <pt x="115" y="887" on="1"/>
        <pt x="85" y="887" on="0"/>
        <pt x="33" y="936" on="0"/>
        <pt x="33" y="967" on="1"/>
        <pt x="33" y="999" on="0"/>
        <pt x="63" y="1044" on="0"/>
        <pt x="91" y="1051" on="1"/>
        <pt x="410" y="1130" on="1"/>
        <pt x="413" y="1131" on="0"/>
        <pt x="421" y="1133" on="0"/>
        <pt x="426" y="1133" on="1"/>
        <pt x="448" y="1133" on="0"/>
        <pt x="478" y="1107" on="0"/>
        <pt x="478" y="1085" on="1"/>
        <pt x="478" y="176" on="1"/>
        <pt x="631" y="176" on="1"/>
        <pt x="669" y="176" on="0"/>
        <pt x="703" y="121" on="0"/>
        <pt x="703" y="84" on="1"/>
        <pt x="703" y="51" on="0"/>
        <pt x="664" y="0" on="0"/>
        <pt x="629" y="0" on="1"/>
        <pt x="142" y="0" on="1"/>
        <pt x="100" y="0" on="0"/>
        <pt x="60" y="48" on="0"/>
        <pt x="60" y="86" on="1"/>
      </contour>
    </TTGlyph>
    <TTGlyph name="e" xMin="70" yMin="-25" xMax="1207" yMax="1188">
      <contour>
        <pt x="283" y="559" on="1"/>
        <pt x="283" y="363" on="0"/>
        <pt x="528" y="158" on="0"/>
        <pt x="707" y="158" on="1"/>
        <pt x="834" y="158" on="0"/>
        <pt x="979" y="253" on="0"/>
        <pt x="1045" y="314" on="1"/>
        <pt x="1060" y="327" on="0"/>
        <pt x="1094" y="340" on="0"/>
        <pt x="1111" y="340" on="1"/>
        <pt x="1151" y="340" on="0"/>
        <pt x="1207" y="291" on="0"/>
        <pt x="1207" y="250" on="1"/>
        <pt x="1207" y="122" on="0"/>
        <pt x="836" y="-25" on="0"/>
        <pt x="699" y="-25" on="1"/>
        <pt x="425" y="-25" on="0"/>
        <pt x="70" y="300" on="0"/>
        <pt x="70" y="575" on="1"/>
        <pt x="70" y="847" on="0"/>
        <pt x="396" y="1188" on="0"/>
        <pt x="675" y="1188" on="1"/>
        <pt x="875" y="1188" on="0"/>
        <pt x="1205" y="911" on="0"/>
        <pt x="1205" y="692" on="1"/>
        <pt x="1205" y="617" on="0"/>
        <pt x="1112" y="587" on="0"/>
        <pt x="1041" y="580" on="1"/>
      </contour>
      <contour>
        <pt x="954" y="756" on="1"/>
        <pt x="954" y="899" on="0"/>
        <pt x="779" y="1018" on="0"/>
        <pt x="675" y="1018" on="1"/>
        <pt x="499" y="1018" on="0"/>
        <pt x="292" y="844" on="0"/>
        <pt x="279" y="700" on="1"/>
        <pt x="880" y="713" on="1"/>
        <pt x="908" y="714" on="0"/>
        <pt x="954" y="733" on="0"/>
        <pt x="954" y="756" on="1"/>
      </contour>
    </TTGlyph>
    <TTGlyph name="eacute" xMin="70" yMin="-25" xMax="1207" yMax="1733">
      <component glyphName="glyph00367" x="70" y="0" flags="0x0"/>
      <component glyphName="acute" x="370" y="-137" flags="0x1004"/>
      <component glyphName="e" x="0" y="0" flags="0x1204"/>
    </TTGlyph>
    <TTGlyph name="ecaron" xMin="70" yMin="-25" xMax="1207" yMax="1789">
      <component glyphName="glyph00367" x="70" y="0" flags="0x0"/>
      <component glyphName="caron" x="379" y="-143" flags="0x1004"/>
      <component glyphName="e" x="0" y="0" flags="0x1204"/>
    </TTGlyph>
    <TTGlyph name="ecircumflex" xMin="70" yMin="-25" xMax="1207" yMax="1789">
      <component glyphName="glyph00367" x="70" y="0" flags="0x0"/>
      <component glyphName="circumflex" x="379" y="-143" flags="0x1004"/>
      <component glyphName="e" x="0" y="0" flags="0x1204"/>
    </TTGlyph>
    <TTGlyph name="edieresis" xMin="70" yMin="-25" xMax="1207" yMax="1556">
      <component glyphName="glyph00367" x="70" y="0" flags="0x0"/>
      <component glyphName="dieresis" x="211" y="-142" flags="0x1004"/>
      <component glyphName="e" x="0" y="0" flags="0x1204"/>
    </TTGlyph>
    <TTGlyph name="edotaccent" xMin="70" yMin="-25" xMax="1207" yMax="1591">
      <component glyphName="glyph00367" x="70" y="0" flags="0x0"/>
      <component glyphName="dotaccent" x="524" y="1240" flags="0x1004"/>
      <component glyphName="e" x="0" y="0" flags="0x1204"/>
    </TTGlyph>
    <TTGlyph name="egrave" xMin="70" yMin="-25" xMax="1207" yMax="1733">
      <component glyphName="glyph00367" x="70" y="0" flags="0x0"/>
      <component glyphName="e" x="0" y="0" flags="0x1204"/>
      <component glyphName="grave" x="370" y="-137" flags="0x1004"/>
    </TTGlyph>
    <TTGlyph name="eight" xMin="100" yMin="-25" xMax="1216" yMax="1737">
      <contour>
        <pt x="627" y="1737" on="1"/>
        <pt x="827" y="1737" on="0"/>
        <pt x="1145" y="1533" on="0"/>
        <pt x="1145" y="1337" on="1"/>
        <pt x="1145" y="1165" on="0"/>
        <pt x="944" y="958" on="0"/>
        <pt x="829" y="901" on="1"/>
        <pt x="971" y="826" on="0"/>
        <pt x="1216" y="631" on="0"/>
        <pt x="1216" y="418" on="1"/>
        <pt x="1216" y="188" on="0"/>
        <pt x="890" y="-25" on="0"/>
        <pt x="661" y="-25" on="1"/>
        <pt x="419" y="-25" on="0"/>
        <pt x="100" y="201" on="0"/>
        <pt x="100" y="442" on="1"/>
        <pt x="100" y="617" on="0"/>
        <pt x="291" y="825" on="0"/>
        <pt x="407" y="883" on="1"/>
        <pt x="288" y="956" on="0"/>
        <pt x="137" y="1142" on="0"/>
        <pt x="137" y="1313" on="1"/>
        <pt x="137" y="1511" on="0"/>
        <pt x="424" y="1737" on="0"/>
        <pt x="627" y="1737" on="1"/>
      </contour>
      <contour>
        <pt x="668" y="145" on="1"/>
        <pt x="811" y="145" on="0"/>
        <pt x="912" y="214" on="1"/>
        <pt x="1016" y="284" on="0"/>
        <pt x="1012" y="418" on="1"/>
        <pt x="1007" y="586" on="0"/>
        <pt x="810" y="684" on="1"/>
        <pt x="750" y="714" on="0"/>
        <pt x="559" y="811" on="1"/>
        <pt x="457" y="753" on="0"/>
        <pt x="301" y="569" on="0"/>
        <pt x="301" y="430" on="1"/>
        <pt x="301" y="281" on="0"/>
        <pt x="519" y="145" on="0"/>
        <pt x="668" y="145" on="1"/>
      </contour>
      <contour>
        <pt x="639" y="1581" on="1"/>
        <pt x="514" y="1581" on="0"/>
        <pt x="336" y="1450" on="0"/>
        <pt x="336" y="1327" on="1"/>
        <pt x="336" y="1177" on="0"/>
        <pt x="583" y="1022" on="0"/>
        <pt x="688" y="973" on="1"/>
        <pt x="794" y="1024" on="0"/>
        <pt x="940" y="1191" on="0"/>
        <pt x="940" y="1325" on="1"/>
        <pt x="940" y="1455" on="0"/>
        <pt x="766" y="1581" on="0"/>
        <pt x="639" y="1581" on="1"/>
      </contour>
    </TTGlyph>
    <TTGlyph name="ellipsis" xMin="0" yMin="0" xMax="0" yMax="0">
      <component glyphName=".notdef" x="0" y="0" flags="0x1204"/>
      <component glyphName=".notdef" x="806" y="0" flags="0x1004"/>
      <component glyphName=".notdef" x="1612" y="0" flags="0x1004"/>
    </TTGlyph>
    <TTGlyph name="emacron" xMin="70" yMin="-25" xMax="1207" yMax="1446">
      <component glyphName="glyph00367" x="70" y="0" flags="0x0"/>
      <component glyphName="e" x="0" y="0" flags="0x1204"/>
      <component glyphName="macron" x="125" y="324" flags="0x1004"/>
    </TTGlyph>
    <TTGlyph name="emdash" xMin="-1" yMin="569" xMax="1446" yMax="781">
      <contour>
        <pt x="1340" y="781" on="1"/>
        <pt x="1383" y="781" on="0"/>
        <pt x="1446" y="718" on="0"/>
        <pt x="1446" y="675" on="1"/>
        <pt x="1446" y="631" on="0"/>
        <pt x="1383" y="569" on="0"/>
        <pt x="1340" y="569" on="1"/>
        <pt x="105" y="569" on="1"/>
        <pt x="61" y="569" on="0"/>
        <pt x="-1" y="631" on="0"/>
        <pt x="-1" y="675" on="1"/>
        <pt x="-1" y="718" on="0"/>
        <pt x="61" y="781" on="0"/>
        <pt x="105" y="781" on="1"/>
      </contour>
    </TTGlyph>
    <TTGlyph name="endash" xMin="59" yMin="569" xMax="1178" yMax="781">
      <contour>
        <pt x="1072" y="781" on="1"/>
        <pt x="1115" y="781" on="0"/>
        <pt x="1178" y="718" on="0"/>
        <pt x="1178" y="675" on="1"/>
        <pt x="1178" y="631" on="0"/>
        <pt x="1115" y="569" on="0"/>
        <pt x="1072" y="569" on="1"/>
        <pt x="165" y="569" on="1"/>
        <pt x="121" y="569" on="0"/>
        <pt x="59" y="631" on="0"/>
        <pt x="59" y="675" on="1"/>
        <pt x="59" y="718" on="0"/>
        <pt x="121" y="781" on="0"/>
        <pt x="165" y="781" on="1"/>
      </contour>
    </TTGlyph>
    <TTGlyph name="eng" xMin="50" yMin="-481" xMax="1313" yMax="1188">
      <contour>
        <pt x="1111" y="118" on="1"/>
        <pt x="1111" y="762" on="1"/>
        <pt x="1111" y="881" on="0"/>
        <pt x="990" y="1018" on="0"/>
        <pt x="869" y="1018" on="1"/>
        <pt x="735" y="1018" on="0"/>
        <pt x="494" y="841" on="0"/>
        <pt x="494" y="707" on="1"/>
        <pt x="494" y="176" on="1"/>
        <pt x="640" y="176" on="1"/>
        <pt x="678" y="176" on="0"/>
        <pt x="711" y="121" on="0"/>
        <pt x="711" y="84" on="1"/>
        <pt x="711" y="51" on="0"/>
        <pt x="673" y="0" on="0"/>
        <pt x="638" y="0" on="1"/>
        <pt x="171" y="0" on="1"/>
        <pt x="129" y="0" on="0"/>
        <pt x="89" y="48" on="0"/>
        <pt x="89" y="86" on="1"/>
        <pt x="89" y="123" on="0"/>
        <pt x="126" y="176" on="0"/>
        <pt x="165" y="176" on="1"/>
        <pt x="289" y="176" on="1"/>
        <pt x="289" y="979" on="1"/>
        <pt x="146" y="944" on="1"/>
        <pt x="144" y="943" on="0"/>
        <pt x="137" y="942" on="0"/>
        <pt x="132" y="942" on="1"/>
        <pt x="102" y="942" on="0"/>
        <pt x="50" y="991" on="0"/>
        <pt x="50" y="1022" on="1"/>
        <pt x="50" y="1056" on="0"/>
        <pt x="79" y="1097" on="0"/>
        <pt x="107" y="1106" on="1"/>
        <pt x="386" y="1186" on="1"/>
        <pt x="390" y="1186" on="0"/>
        <pt x="392" y="1188" on="0"/>
        <pt x="396" y="1188" on="1"/>
        <pt x="402" y="1188" on="1"/>
        <pt x="423" y="1188" on="0"/>
        <pt x="453" y="1163" on="0"/>
        <pt x="453" y="1141" on="1"/>
        <pt x="474" y="952" on="1"/>
        <pt x="525" y="1044" on="0"/>
        <pt x="766" y="1188" on="0"/>
        <pt x="906" y="1188" on="1"/>
        <pt x="1093" y="1188" on="0"/>
        <pt x="1313" y="968" on="0"/>
        <pt x="1313" y="780" on="1"/>
        <pt x="1313" y="118" on="1"/>
        <pt x="1313" y="-106" on="0"/>
        <pt x="1138" y="-481" on="0"/>
        <pt x="875" y="-481" on="1"/>
        <pt x="762" y="-481" on="0"/>
        <pt x="602" y="-387" on="0"/>
        <pt x="602" y="-263" on="1"/>
        <pt x="602" y="-206" on="0"/>
        <pt x="640" y="-142" on="0"/>
        <pt x="698" y="-142" on="1"/>
        <pt x="739" y="-142" on="0"/>
        <pt x="787" y="-194" on="0"/>
        <pt x="787" y="-240" on="1"/>
        <pt x="800" y="-273" on="0"/>
        <pt x="794" y="-312" on="0"/>
        <pt x="886" y="-312" on="1"/>
        <pt x="1019" y="-312" on="0"/>
        <pt x="1111" y="-59" on="0"/>
        <pt x="1111" y="118" on="1"/>
      </contour>
    </TTGlyph>
    <TTGlyph name="eogonek" xMin="70" yMin="-552" xMax="1207" yMax="1188">
      <component glyphName="glyph00367" x="70" y="0" flags="0x0"/>
      <component glyphName="e" x="0" y="0" flags="0x1204"/>
      <component glyphName="ogonek" x="474" y="-36" flags="0x1004"/>
    </TTGlyph>
    <TTGlyph name="equal" xMin="59" yMin="1" xMax="1178" yMax="736">
      <contour>
        <pt x="1072" y="213" on="1"/>
        <pt x="1115" y="213" on="0"/>
        <pt x="1178" y="150" on="0"/>
        <pt x="1178" y="107" on="1"/>
        <pt x="1178" y="63" on="0"/>
        <pt x="1115" y="1" on="0"/>
        <pt x="1072" y="1" on="1"/>
        <pt x="165" y="1" on="1"/>
        <pt x="121" y="1" on="0"/>
        <pt x="59" y="63" on="0"/>
        <pt x="59" y="107" on="1"/>
        <pt x="59" y="150" on="0"/>
        <pt x="121" y="213" on="0"/>
        <pt x="165" y="213" on="1"/>
      </contour>
      <contour>
        <pt x="1072" y="736" on="1"/>
        <pt x="1115" y="736" on="0"/>
        <pt x="1178" y="673" on="0"/>
        <pt x="1178" y="630" on="1"/>
        <pt x="1178" y="586" on="0"/>
        <pt x="1115" y="524" on="0"/>
        <pt x="1072" y="524" on="1"/>
        <pt x="165" y="524" on="1"/>
        <pt x="121" y="524" on="0"/>
        <pt x="59" y="586" on="0"/>
        <pt x="59" y="630" on="1"/>
        <pt x="59" y="673" on="0"/>
        <pt x="121" y="736" on="0"/>
        <pt x="165" y="736" on="1"/>
      </contour>
    </TTGlyph>
    <TTGlyph name="eth" xMin="67" yMin="-22" xMax="1297" yMax="1885">
      <contour>
        <pt x="668" y="149" on="1"/>
        <pt x="852" y="149" on="0"/>
        <pt x="1053" y="389" on="0"/>
        <pt x="1053" y="575" on="1"/>
        <pt x="1053" y="767" on="0"/>
        <pt x="853" y="1005" on="0"/>
        <pt x="676" y="1005" on="1"/>
        <pt x="492" y="1005" on="0"/>
        <pt x="283" y="768" on="0"/>
        <pt x="283" y="575" on="1"/>
        <pt x="283" y="390" on="0"/>
        <pt x="483" y="149" on="0"/>
        <pt x="668" y="149" on="1"/>
      </contour>
      <contour>
        <pt x="526" y="1885" on="1"/>
        <pt x="607" y="1885" on="0"/>
        <pt x="765" y="1746" on="0"/>
        <pt x="814" y="1704" on="1"/>
        <pt x="967" y="1827" on="1"/>
        <pt x="984" y="1840" on="0"/>
        <pt x="1017" y="1852" on="0"/>
        <pt x="1031" y="1852" on="1"/>
        <pt x="1065" y="1852" on="0"/>
        <pt x="1111" y="1801" on="0"/>
        <pt x="1111" y="1770" on="1"/>
        <pt x="1111" y="1752" on="0"/>
        <pt x="1093" y="1716" on="0"/>
        <pt x="1073" y="1702" on="1"/>
        <pt x="924" y="1599" on="1"/>
        <pt x="1093" y="1424" on="0"/>
        <pt x="1297" y="970" on="0"/>
        <pt x="1297" y="690" on="1"/>
        <pt x="1297" y="371" on="0"/>
        <pt x="989" y="-22" on="0"/>
        <pt x="668" y="-22" on="1"/>
        <pt x="396" y="-22" on="0"/>
        <pt x="67" y="307" on="0"/>
        <pt x="67" y="580" on="1"/>
        <pt x="67" y="852" on="0"/>
        <pt x="396" y="1188" on="0"/>
        <pt x="666" y="1188" on="1"/>
        <pt x="768" y="1188" on="0"/>
        <pt x="934" y="1102" on="0"/>
        <pt x="997" y="1044" on="1"/>
        <pt x="971" y="1171" on="0"/>
        <pt x="841" y="1390" on="0"/>
        <pt x="756" y="1483" on="1"/>
        <pt x="585" y="1365" on="1"/>
        <pt x="577" y="1360" on="0"/>
        <pt x="560" y="1354" on="0"/>
        <pt x="552" y="1354" on="1"/>
        <pt x="529" y="1354" on="0"/>
        <pt x="492" y="1389" on="0"/>
        <pt x="492" y="1413" on="1"/>
        <pt x="492" y="1426" on="0"/>
        <pt x="507" y="1457" on="0"/>
        <pt x="524" y="1470" on="1"/>
        <pt x="660" y="1580" on="1"/>
        <pt x="614" y="1622" on="0"/>
        <pt x="448" y="1753" on="0"/>
        <pt x="448" y="1822" on="1"/>
        <pt x="448" y="1853" on="0"/>
        <pt x="494" y="1885" on="0"/>
        <pt x="526" y="1885" on="1"/>
      </contour>
    </TTGlyph>
    <TTGlyph name="exclam" xMin="188" yMin="-25" xMax="541" yMax="1739">
      <contour>
        <pt x="502" y="1587" on="1"/>
        <pt x="502" y="1335" on="0"/>
        <pt x="428" y="826" on="0"/>
        <pt x="428" y="557" on="1"/>
        <pt x="428" y="532" on="0"/>
        <pt x="392" y="496" on="0"/>
        <pt x="367" y="496" on="1"/>
        <pt x="342" y="496" on="0"/>
        <pt x="305" y="532" on="0"/>
        <pt x="305" y="557" on="1"/>
        <pt x="305" y="828" on="0"/>
        <pt x="231" y="1336" on="0"/>
        <pt x="231" y="1591" on="1"/>
        <pt x="231" y="1661" on="0"/>
        <pt x="308" y="1739" on="0"/>
        <pt x="367" y="1739" on="1"/>
        <pt x="427" y="1739" on="0"/>
        <pt x="502" y="1660" on="0"/>
        <pt x="502" y="1587" on="1"/>
      </contour>
      <contour>
        <pt x="365" y="-25" on="1"/>
        <pt x="290" y="-25" on="0"/>
        <pt x="188" y="77" on="0"/>
        <pt x="188" y="152" on="1"/>
        <pt x="188" y="227" on="0"/>
        <pt x="290" y="328" on="0"/>
        <pt x="365" y="328" on="1"/>
        <pt x="440" y="328" on="0"/>
        <pt x="541" y="227" on="0"/>
        <pt x="541" y="152" on="1"/>
        <pt x="541" y="77" on="0"/>
        <pt x="440" y="-25" on="0"/>
        <pt x="365" y="-25" on="1"/>
      </contour>
    </TTGlyph>
    <TTGlyph name="exclamdown" xMin="188" yMin="-25" xMax="541" yMax="1739">
      <contour>
        <pt x="502" y="127" on="1"/>
        <pt x="502" y="54" on="0"/>
        <pt x="427" y="-25" on="0"/>
        <pt x="367" y="-25" on="1"/>
        <pt x="308" y="-25" on="0"/>
        <pt x="231" y="53" on="0"/>
        <pt x="231" y="123" on="1"/>
        <pt x="231" y="378" on="0"/>
        <pt x="305" y="886" on="0"/>
        <pt x="305" y="1157" on="1"/>
        <pt x="305" y="1182" on="0"/>
        <pt x="342" y="1219" on="0"/>
        <pt x="367" y="1219" on="1"/>
        <pt x="392" y="1219" on="0"/>
        <pt x="428" y="1182" on="0"/>
        <pt x="428" y="1157" on="1"/>
        <pt x="428" y="888" on="0"/>
        <pt x="502" y="379" on="0"/>
        <pt x="502" y="127" on="1"/>
      </contour>
      <contour>
        <pt x="365" y="1739" on="1"/>
        <pt x="440" y="1739" on="0"/>
        <pt x="541" y="1637" on="0"/>
        <pt x="541" y="1562" on="1"/>
        <pt x="541" y="1487" on="0"/>
        <pt x="440" y="1386" on="0"/>
        <pt x="365" y="1386" on="1"/>
        <pt x="290" y="1386" on="0"/>
        <pt x="188" y="1487" on="0"/>
        <pt x="188" y="1562" on="1"/>
        <pt x="188" y="1637" on="0"/>
        <pt x="290" y="1739" on="0"/>
        <pt x="365" y="1739" on="1"/>
      </contour>
    </TTGlyph>
    <TTGlyph name="f" xMin="63" yMin="0" xMax="1012" yMax="1739">
      <contour>
        <pt x="926" y="1411" on="1"/>
        <pt x="889" y="1411" on="0"/>
        <pt x="835" y="1448" on="0"/>
        <pt x="835" y="1487" on="1"/>
        <pt x="835" y="1556" on="1"/>
        <pt x="676" y="1542" on="0"/>
        <pt x="562" y="1394" on="0"/>
        <pt x="562" y="1231" on="1"/>
        <pt x="562" y="1221" on="0"/>
        <pt x="563" y="1201" on="0"/>
        <pt x="563" y="1191" on="1"/>
        <pt x="565" y="1122" on="1"/>
        <pt x="784" y="1122" on="1"/>
        <pt x="822" y="1122" on="0"/>
        <pt x="856" y="1067" on="0"/>
        <pt x="856" y="1030" on="1"/>
        <pt x="856" y="997" on="0"/>
        <pt x="817" y="946" on="0"/>
        <pt x="782" y="946" on="1"/>
        <pt x="563" y="946" on="1"/>
        <pt x="565" y="176" on="1"/>
        <pt x="817" y="176" on="1"/>
        <pt x="855" y="176" on="0"/>
        <pt x="889" y="121" on="0"/>
        <pt x="889" y="84" on="1"/>
        <pt x="889" y="51" on="0"/>
        <pt x="850" y="0" on="0"/>
        <pt x="815" y="0" on="1"/>
        <pt x="145" y="0" on="1"/>
        <pt x="103" y="0" on="0"/>
        <pt x="63" y="48" on="0"/>
        <pt x="63" y="86" on="1"/>
        <pt x="63" y="123" on="0"/>
        <pt x="100" y="176" on="0"/>
        <pt x="139" y="176" on="1"/>
        <pt x="360" y="176" on="1"/>
        <pt x="360" y="946" on="1"/>
        <pt x="182" y="946" on="1"/>
        <pt x="140" y="946" on="0"/>
        <pt x="100" y="994" on="0"/>
        <pt x="100" y="1032" on="1"/>
        <pt x="100" y="1069" on="0"/>
        <pt x="137" y="1122" on="0"/>
        <pt x="176" y="1122" on="1"/>
        <pt x="360" y="1122" on="1"/>
        <pt x="360" y="1227" on="1"/>
        <pt x="360" y="1490" on="0"/>
        <pt x="660" y="1739" on="0"/>
        <pt x="928" y="1739" on="1"/>
        <pt x="961" y="1739" on="0"/>
        <pt x="1012" y="1700" on="0"/>
        <pt x="1012" y="1665" on="1"/>
        <pt x="1012" y="1493" on="1"/>
        <pt x="1012" y="1451" on="0"/>
        <pt x="964" y="1411" on="0"/>
        <pt x="926" y="1411" on="1"/>
      </contour>
    </TTGlyph>
    <TTGlyph name="five" xMin="88" yMin="-78" xMax="1155" yMax="1801">
      <contour>
        <pt x="1042" y="1746" on="1"/>
        <pt x="1042" y="1682" on="0"/>
        <pt x="990" y="1516" on="0"/>
        <pt x="930" y="1516" on="1"/>
        <pt x="441" y="1516" on="1"/>
        <pt x="404" y="1516" on="0"/>
        <pt x="372" y="1439" on="0"/>
        <pt x="371" y="1416" on="1"/>
        <pt x="345" y="949" on="1"/>
        <pt x="387" y="1001" on="0"/>
        <pt x="556" y="1071" on="0"/>
        <pt x="643" y="1071" on="1"/>
        <pt x="877" y="1071" on="0"/>
        <pt x="1155" y="814" on="0"/>
        <pt x="1155" y="580" on="1"/>
        <pt x="1155" y="284" on="0"/>
        <pt x="722" y="-78" on="0"/>
        <pt x="426" y="-78" on="1"/>
        <pt x="321" y="-78" on="0"/>
        <pt x="88" y="-14" on="0"/>
        <pt x="88" y="90" on="1"/>
        <pt x="88" y="136" on="0"/>
        <pt x="141" y="205" on="0"/>
        <pt x="188" y="205" on="1"/>
        <pt x="290" y="205" on="0"/>
        <pt x="435" y="117" on="0"/>
        <pt x="539" y="117" on="1"/>
        <pt x="699" y="117" on="0"/>
        <pt x="938" y="336" on="0"/>
        <pt x="938" y="535" on="1"/>
        <pt x="938" y="665" on="0"/>
        <pt x="792" y="848" on="0"/>
        <pt x="605" y="848" on="1"/>
        <pt x="462" y="848" on="0"/>
        <pt x="321" y="729" on="0"/>
        <pt x="242" y="729" on="1"/>
        <pt x="226" y="729" on="0"/>
        <pt x="190" y="737" on="0"/>
        <pt x="170" y="746" on="1"/>
        <pt x="229" y="1626" on="1"/>
        <pt x="229" y="1691" on="0"/>
        <pt x="356" y="1714" on="0"/>
        <pt x="428" y="1714" on="1"/>
        <pt x="872" y="1712" on="1"/>
        <pt x="891" y="1755" on="0"/>
        <pt x="951" y="1801" on="0"/>
        <pt x="977" y="1801" on="1"/>
        <pt x="1004" y="1801" on="0"/>
        <pt x="1042" y="1774" on="0"/>
        <pt x="1042" y="1746" on="1"/>
      </contour>
    </TTGlyph>
    <TTGlyph name="florin" xMin="33" yMin="-441" xMax="1012" yMax="1739">
      <contour>
        <pt x="360" y="946" on="1"/>
        <pt x="182" y="946" on="1"/>
        <pt x="140" y="946" on="0"/>
        <pt x="100" y="994" on="0"/>
        <pt x="100" y="1032" on="1"/>
        <pt x="100" y="1069" on="0"/>
        <pt x="137" y="1122" on="0"/>
        <pt x="176" y="1122" on="1"/>
        <pt x="360" y="1122" on="1"/>
        <pt x="360" y="1227" on="1"/>
        <pt x="360" y="1490" on="0"/>
        <pt x="660" y="1739" on="0"/>
        <pt x="928" y="1739" on="1"/>
        <pt x="961" y="1739" on="0"/>
        <pt x="1012" y="1700" on="0"/>
        <pt x="1012" y="1665" on="1"/>
        <pt x="1012" y="1493" on="1"/>
        <pt x="1012" y="1451" on="0"/>
        <pt x="964" y="1411" on="0"/>
        <pt x="926" y="1411" on="1"/>
        <pt x="889" y="1411" on="0"/>
        <pt x="835" y="1448" on="0"/>
        <pt x="835" y="1487" on="1"/>
        <pt x="835" y="1556" on="1"/>
        <pt x="676" y="1542" on="0"/>
        <pt x="562" y="1394" on="0"/>
        <pt x="562" y="1231" on="1"/>
        <pt x="562" y="1221" on="0"/>
        <pt x="563" y="1201" on="0"/>
        <pt x="563" y="1191" on="1"/>
        <pt x="565" y="1122" on="1"/>
        <pt x="784" y="1122" on="1"/>
        <pt x="822" y="1122" on="0"/>
        <pt x="856" y="1067" on="0"/>
        <pt x="856" y="1030" on="1"/>
        <pt x="856" y="997" on="0"/>
        <pt x="817" y="946" on="0"/>
        <pt x="782" y="946" on="1"/>
        <pt x="563" y="946" on="1"/>
        <pt x="565" y="71" on="1"/>
        <pt x="565" y="-192" on="0"/>
        <pt x="331" y="-441" on="0"/>
        <pt x="117" y="-441" on="1"/>
        <pt x="84" y="-441" on="0"/>
        <pt x="33" y="-402" on="0"/>
        <pt x="33" y="-367" on="1"/>
        <pt x="33" y="-195" on="1"/>
        <pt x="33" y="-153" on="0"/>
        <pt x="81" y="-113" on="0"/>
        <pt x="119" y="-113" on="1"/>
        <pt x="156" y="-113" on="0"/>
        <pt x="210" y="-150" on="0"/>
        <pt x="210" y="-189" on="1"/>
        <pt x="210" y="-258" on="1"/>
        <pt x="297" y="-244" on="0"/>
        <pt x="363" y="-96" on="0"/>
        <pt x="363" y="67" on="1"/>
        <pt x="363" y="77" on="0"/>
        <pt x="361" y="309" on="0"/>
        <pt x="360" y="946" on="1"/>
      </contour>
    </TTGlyph>
    <TTGlyph name="four" xMin="94" yMin="34" xMax="1408" yMax="1730">
      <contour>
        <pt x="850" y="1376" on="1"/>
        <pt x="319" y="713" on="1"/>
        <pt x="850" y="713" on="1"/>
      </contour>
      <contour>
        <pt x="1351" y="117" on="1"/>
        <pt x="1351" y="86" on="0"/>
        <pt x="1315" y="34" on="0"/>
        <pt x="1281" y="34" on="1"/>
        <pt x="578" y="34" on="1"/>
        <pt x="544" y="34" on="0"/>
        <pt x="508" y="86" on="0"/>
        <pt x="508" y="117" on="1"/>
        <pt x="508" y="154" on="0"/>
        <pt x="540" y="204" on="0"/>
        <pt x="577" y="204" on="1"/>
        <pt x="850" y="204" on="1"/>
        <pt x="850" y="562" on="1"/>
        <pt x="157" y="562" on="1"/>
        <pt x="127" y="562" on="0"/>
        <pt x="94" y="607" on="0"/>
        <pt x="94" y="634" on="1"/>
        <pt x="94" y="655" on="0"/>
        <pt x="105" y="689" on="0"/>
        <pt x="115" y="699" on="1"/>
        <pt x="319" y="953" on="0"/>
        <pt x="734" y="1458" on="0"/>
        <pt x="941" y="1708" on="1"/>
        <pt x="948" y="1718" on="0"/>
        <pt x="1001" y="1730" on="0"/>
        <pt x="1014" y="1730" on="1"/>
        <pt x="1045" y="1730" on="0"/>
        <pt x="1051" y="1678" on="0"/>
        <pt x="1051" y="1647" on="1"/>
        <pt x="1051" y="713" on="1"/>
        <pt x="1347" y="713" on="1"/>
        <pt x="1381" y="713" on="0"/>
        <pt x="1408" y="668" on="0"/>
        <pt x="1408" y="634" on="1"/>
        <pt x="1408" y="607" on="0"/>
        <pt x="1374" y="562" on="0"/>
        <pt x="1344" y="562" on="1"/>
        <pt x="1051" y="562" on="1"/>
        <pt x="1051" y="204" on="1"/>
        <pt x="1283" y="204" on="1"/>
        <pt x="1320" y="204" on="0"/>
        <pt x="1351" y="154" on="0"/>
        <pt x="1351" y="117" on="1"/>
      </contour>
    </TTGlyph>
    <TTGlyph name="fraction" xMin="65" yMin="-580" xMax="1345" yMax="1890">
      <contour>
        <pt x="170" y="-580" on="1"/>
        <pt x="135" y="-580" on="0"/>
        <pt x="65" y="-530" on="0"/>
        <pt x="65" y="-494" on="1"/>
        <pt x="65" y="-486" on="0"/>
        <pt x="69" y="-470" on="0"/>
        <pt x="73" y="-463" on="1"/>
        <pt x="1181" y="1851" on="1"/>
        <pt x="1189" y="1870" on="0"/>
        <pt x="1221" y="1890" on="0"/>
        <pt x="1243" y="1890" on="1"/>
        <pt x="1277" y="1890" on="0"/>
        <pt x="1345" y="1841" on="0"/>
        <pt x="1345" y="1804" on="1"/>
        <pt x="1345" y="1797" on="0"/>
        <pt x="1342" y="1783" on="0"/>
        <pt x="1339" y="1776" on="1"/>
        <pt x="237" y="-532" on="1"/>
        <pt x="226" y="-554" on="0"/>
        <pt x="196" y="-580" on="0"/>
        <pt x="170" y="-580" on="1"/>
      </contour>
    </TTGlyph>
</ttFont>
